<svg viewBox="0 0 900 360" class="chart"><rect width="900" height="360" fill="white" rx="16"/><text x="58" y="24" font-size="17" font-weight="700" fill="#0f172a">历史对比：年均气温，北京季节振幅大，巴塞罗那更温和</text><line x1="58" y1="310.0" x2="876" y2="310.0" stroke="#e2e8f0"/><text x="50" y="314.0" text-anchor="end" font-size="11" fill="#64748b">8.4</text><line x1="58" y1="242.0" x2="876" y2="242.0" stroke="#e2e8f0"/><text x="50" y="246.0" text-anchor="end" font-size="11" fill="#64748b">10.8</text><line x1="58" y1="174.0" x2="876" y2="174.0" stroke="#e2e8f0"/><text x="50" y="178.0" text-anchor="end" font-size="11" fill="#64748b">13.2</text><line x1="58" y1="106.0" x2="876" y2="106.0" stroke="#e2e8f0"/><text x="50" y="110.0" text-anchor="end" font-size="11" fill="#64748b">15.6</text><line x1="58" y1="38.0" x2="876" y2="38.0" stroke="#e2e8f0"/><text x="50" y="42.0" text-anchor="end" font-size="11" fill="#64748b">18.1</text><text x="58.0" y="342" text-anchor="middle" font-size="11" fill="#64748b">1990</text><text x="171.6" y="342" text-anchor="middle" font-size="11" fill="#64748b">1995</text><text x="285.2" y="342" text-anchor="middle" font-size="11" fill="#64748b">2000</text><text x="398.8" y="342" text-anchor="middle" font-size="11" fill="#64748b">2005</text><text x="512.4" y="342" text-anchor="middle" font-size="11" fill="#64748b">2010</text><text x="626.1" y="342" text-anchor="middle" font-size="11" fill="#64748b">2015</text><text x="739.7" y="342" text-anchor="middle" font-size="11" fill="#64748b">2020</text><text x="853.3" y="342" text-anchor="middle" font-size="11" fill="#64748b">2025</text><polyline points="58.0,103.4 80.7,126.5 103.4,126.2 126.2,132.4 148.9,99.2 171.6,108.5 194.3,124.5 217.1,96.4 239.8,107.6 262.5,112.1 285.2,111.6 307.9,108.2 330.7,114.4 353.4,95.3 376.1,115.2 398.8,124.8 421.6,91.9 444.3,107.6 467.0,115.2 489.7,98.4 512.4,128.2 535.2,97.5 557.9,102.9 580.6,112.1 603.3,92.4 626.1,91.6 648.8,92.4 671.5,93.3 694.2,93.3 716.9,97.2 739.7,88.2 762.4,98.1 785.1,64.3 807.8,68.8 830.6,79.5 853.3,70.5 876.0,168.9" fill="none" stroke="#dc2626" stroke-width="2.5" stroke-linecap="round"/><polyline points="58.0,217.3 80.7,219.0 103.4,206.1 126.2,207.7 148.9,188.6 171.6,206.9 194.3,221.5 217.1,190.0 239.8,181.9 262.5,177.9 285.2,199.3 307.9,196.2 330.7,184.4 353.4,192.6 376.1,183.0 398.8,192.6 421.6,185.0 444.3,171.2 467.0,194.2 489.7,191.2 512.4,221.0 535.2,198.5 557.9,208.9 580.6,206.1 603.3,170.9 626.1,183.0 648.8,188.9 671.5,175.4 694.2,186.4 716.9,169.5 739.7,177.1 762.4,189.5 785.1,192.6 807.8,169.5 830.6,159.9 853.3,143.1 876.0,283.7" fill="none" stroke="#2563eb" stroke-width="2.5" stroke-linecap="round"/><circle cx="58" cy="354" r="5" fill="#dc2626"/><text x="68" y="358" font-size="12">巴塞罗那</text><circle cx="178" cy="354" r="5" fill="#2563eb"/><text x="188" y="358" font-size="12">北京</text></svg>