<svg viewBox="0 0 900 360" class="chart"><rect width="900" height="360" fill="white" rx="16"/><text x="58" y="24" font-size="17" font-weight="700" fill="#0f172a">历史对比：年度降水，北京更集中且波动，巴塞罗那更地中海型</text><line x1="58" y1="310.0" x2="876" y2="310.0" stroke="#e2e8f0"/><text x="50" y="314.0" text-anchor="end" font-size="11" fill="#64748b">40</text><line x1="58" y1="242.0" x2="876" y2="242.0" stroke="#e2e8f0"/><text x="50" y="246.0" text-anchor="end" font-size="11" fill="#64748b">317</text><line x1="58" y1="174.0" x2="876" y2="174.0" stroke="#e2e8f0"/><text x="50" y="178.0" text-anchor="end" font-size="11" fill="#64748b">594</text><line x1="58" y1="106.0" x2="876" y2="106.0" stroke="#e2e8f0"/><text x="50" y="110.0" text-anchor="end" font-size="11" fill="#64748b">870</text><line x1="58" y1="38.0" x2="876" y2="38.0" stroke="#e2e8f0"/><text x="50" y="42.0" text-anchor="end" font-size="11" fill="#64748b">1147</text><text x="58.0" y="342" text-anchor="middle" font-size="11" fill="#64748b">1990</text><text x="171.6" y="342" text-anchor="middle" font-size="11" fill="#64748b">1995</text><text x="285.2" y="342" text-anchor="middle" font-size="11" fill="#64748b">2000</text><text x="398.8" y="342" text-anchor="middle" font-size="11" fill="#64748b">2005</text><text x="512.4" y="342" text-anchor="middle" font-size="11" fill="#64748b">2010</text><text x="626.1" y="342" text-anchor="middle" font-size="11" fill="#64748b">2015</text><text x="739.7" y="342" text-anchor="middle" font-size="11" fill="#64748b">2020</text><text x="853.3" y="342" text-anchor="middle" font-size="11" fill="#64748b">2025</text><polyline points="58.0,206.6 80.7,148.9 103.4,170.5 126.2,196.1 148.9,177.3 171.6,183.3 194.3,114.0 217.1,212.0 239.8,205.5 262.5,202.3 285.2,195.4 307.9,181.1 330.7,129.0 353.4,170.6 376.1,182.4 398.8,182.9 421.6,222.8 444.3,193.9 467.0,163.0 489.7,211.7 512.4,144.4 535.2,176.4 557.9,207.9 580.6,170.0 603.3,170.0 626.1,197.5 648.8,188.8 671.5,196.7 694.2,64.3 716.9,166.4 739.7,118.5 762.4,192.7 785.1,182.9 807.8,209.8 830.6,121.3 853.3,95.6 876.0,231.7" fill="none" stroke="#dc2626" stroke-width="2.5" stroke-linecap="round"/><polyline points="58.0,97.8 80.7,181.8 103.4,181.4 126.2,199.3 148.9,109.5 171.6,138.8 194.3,147.1 217.1,224.0 239.8,161.0 262.5,219.3 285.2,158.9 307.9,189.3 330.7,212.7 353.4,175.0 376.1,185.4 398.8,210.4 421.6,196.4 444.3,212.1 467.0,195.3 489.7,211.9 512.4,193.3 535.2,197.2 557.9,186.6 580.6,201.1 603.3,225.5 626.1,192.0 648.8,154.0 671.5,149.1 694.2,181.5 716.9,198.2 739.7,191.3 762.4,114.8 785.1,170.2 807.8,162.4 830.6,141.3 853.3,145.1 876.0,283.7" fill="none" stroke="#2563eb" stroke-width="2.5" stroke-linecap="round"/><circle cx="58" cy="354" r="5" fill="#dc2626"/><text x="68" y="358" font-size="12">巴塞罗那</text><circle cx="178" cy="354" r="5" fill="#2563eb"/><text x="188" y="358" font-size="12">北京</text></svg>