<svg viewBox="0 0 900 360" class="chart"><rect width="900" height="360" fill="white" rx="16"/><text x="58" y="24" font-size="17" font-weight="700" fill="#0f172a">历史对比：热夜日数，两个城市都需关注夜间热风险</text><line x1="58" y1="310.0" x2="876" y2="310.0" stroke="#e2e8f0"/><text x="50" y="314.0" text-anchor="end" font-size="11" fill="#64748b">-10</text><line x1="58" y1="242.0" x2="876" y2="242.0" stroke="#e2e8f0"/><text x="50" y="246.0" text-anchor="end" font-size="11" fill="#64748b">21</text><line x1="58" y1="174.0" x2="876" y2="174.0" stroke="#e2e8f0"/><text x="50" y="178.0" text-anchor="end" font-size="11" fill="#64748b">52</text><line x1="58" y1="106.0" x2="876" y2="106.0" stroke="#e2e8f0"/><text x="50" y="110.0" text-anchor="end" font-size="11" fill="#64748b">82</text><line x1="58" y1="38.0" x2="876" y2="38.0" stroke="#e2e8f0"/><text x="50" y="42.0" text-anchor="end" font-size="11" fill="#64748b">113</text><text x="58.0" y="342" text-anchor="middle" font-size="11" fill="#64748b">1990</text><text x="171.6" y="342" text-anchor="middle" font-size="11" fill="#64748b">1995</text><text x="285.2" y="342" text-anchor="middle" font-size="11" fill="#64748b">2000</text><text x="398.8" y="342" text-anchor="middle" font-size="11" fill="#64748b">2005</text><text x="512.4" y="342" text-anchor="middle" font-size="11" fill="#64748b">2010</text><text x="626.1" y="342" text-anchor="middle" font-size="11" fill="#64748b">2015</text><text x="739.7" y="342" text-anchor="middle" font-size="11" fill="#64748b">2020</text><text x="853.3" y="342" text-anchor="middle" font-size="11" fill="#64748b">2025</text><polyline points="58.0,150.7 80.7,153.0 103.4,199.5 126.2,232.7 148.9,155.2 171.6,208.3 194.3,230.5 217.1,206.1 239.8,168.5 262.5,177.3 285.2,237.1 307.9,195.0 330.7,246.0 353.4,113.1 376.1,177.3 398.8,181.8 421.6,157.4 444.3,210.6 467.0,190.6 489.7,150.7 512.4,168.5 535.2,197.3 557.9,168.5 580.6,179.5 603.3,177.3 626.1,155.2 648.8,159.6 671.5,141.9 694.2,121.9 716.9,144.1 739.7,150.7 762.4,139.7 785.1,106.4 807.8,128.6 830.6,159.6 853.3,124.1 876.0,283.7" fill="none" stroke="#dc2626" stroke-width="2.5" stroke-linecap="round"/><polyline points="58.0,159.6 80.7,172.9 103.4,175.1 126.2,172.9 148.9,106.4 171.6,188.4 194.3,170.7 217.1,130.8 239.8,146.3 262.5,124.1 285.2,117.5 307.9,139.7 330.7,141.9 353.4,141.9 376.1,181.8 398.8,148.5 421.6,141.9 444.3,113.1 467.0,159.6 489.7,166.2 512.4,150.7 535.2,153.0 557.9,141.9 580.6,130.8 603.3,135.2 626.1,153.0 648.8,144.1 671.5,144.1 694.2,115.3 716.9,141.9 739.7,126.4 762.4,153.0 785.1,148.5 807.8,119.7 830.6,113.1 853.3,64.3 876.0,279.2" fill="none" stroke="#2563eb" stroke-width="2.5" stroke-linecap="round"/><circle cx="58" cy="354" r="5" fill="#dc2626"/><text x="68" y="358" font-size="12">巴塞罗那</text><circle cx="178" cy="354" r="5" fill="#2563eb"/><text x="188" y="358" font-size="12">北京</text></svg>