<svg viewBox="0 0 900 400" class="chart"><rect width="900" height="400" fill="white" rx="16"/><text x="60" y="24" font-size="17" font-weight="700">2025—2030 年均气温情景对比</text><line x1="60" y1="334.0" x2="876" y2="334.0" stroke="#e2e8f0"/><text x="52" y="338.0" text-anchor="end" font-size="11" fill="#64748b">0</text><line x1="60" y1="261.0" x2="876" y2="261.0" stroke="#e2e8f0"/><text x="52" y="265.0" text-anchor="end" font-size="11" fill="#64748b">5</text><line x1="60" y1="188.0" x2="876" y2="188.0" stroke="#e2e8f0"/><text x="52" y="192.0" text-anchor="end" font-size="11" fill="#64748b">10</text><line x1="60" y1="115.0" x2="876" y2="115.0" stroke="#e2e8f0"/><text x="52" y="119.0" text-anchor="end" font-size="11" fill="#64748b">15</text><line x1="60" y1="42.0" x2="876" y2="42.0" stroke="#e2e8f0"/><text x="52" y="46.0" text-anchor="end" font-size="11" fill="#64748b">20</text><rect x="84.5" y="92.1" width="43.5" height="241.9" fill="#dc2626" opacity=".86" rx="2"/><text x="106.2" y="85.1" text-anchor="middle" font-size="10.5" font-weight="700" fill="#334155">16.7</text><rect x="128.0" y="134.1" width="43.5" height="199.9" fill="#2563eb" opacity=".86" rx="2"/><text x="149.8" y="127.1" text-anchor="middle" font-size="10.5" font-weight="700" fill="#334155">13.8</text><text x="128.0" y="376" text-anchor="middle" font-size="11" fill="#64748b">2025</text><rect x="220.5" y="93.6" width="43.5" height="240.4" fill="#dc2626" opacity=".86" rx="2"/><text x="242.2" y="86.6" text-anchor="middle" font-size="10.5" font-weight="700" fill="#334155">16.6</text><rect x="264.0" y="135.6" width="43.5" height="198.4" fill="#2563eb" opacity=".86" rx="2"/><text x="285.8" y="128.6" text-anchor="middle" font-size="10.5" font-weight="700" fill="#334155">13.7</text><text x="264.0" y="376" text-anchor="middle" font-size="11" fill="#64748b">2026</text><rect x="356.5" y="92.1" width="43.5" height="241.9" fill="#dc2626" opacity=".86" rx="2"/><text x="378.2" y="85.1" text-anchor="middle" font-size="10.5" font-weight="700" fill="#334155">16.7</text><rect x="400.0" y="135.6" width="43.5" height="198.4" fill="#2563eb" opacity=".86" rx="2"/><text x="421.8" y="128.6" text-anchor="middle" font-size="10.5" font-weight="700" fill="#334155">13.7</text><text x="400.0" y="376" text-anchor="middle" font-size="11" fill="#64748b">2027</text><rect x="492.5" y="92.1" width="43.5" height="241.9" fill="#dc2626" opacity=".86" rx="2"/><text x="514.2" y="85.1" text-anchor="middle" font-size="10.5" font-weight="700" fill="#334155">16.7</text><rect x="536.0" y="134.1" width="43.5" height="199.9" fill="#2563eb" opacity=".86" rx="2"/><text x="557.8" y="127.1" text-anchor="middle" font-size="10.5" font-weight="700" fill="#334155">13.8</text><text x="536.0" y="376" text-anchor="middle" font-size="11" fill="#64748b">2028</text><rect x="628.5" y="90.7" width="43.5" height="243.3" fill="#dc2626" opacity=".86" rx="2"/><text x="650.2" y="83.7" text-anchor="middle" font-size="10.5" font-weight="700" fill="#334155">16.8</text><rect x="672.0" y="134.1" width="43.5" height="199.9" fill="#2563eb" opacity=".86" rx="2"/><text x="693.8" y="127.1" text-anchor="middle" font-size="10.5" font-weight="700" fill="#334155">13.8</text><text x="672.0" y="376" text-anchor="middle" font-size="11" fill="#64748b">2029</text><rect x="764.5" y="90.7" width="43.5" height="243.3" fill="#dc2626" opacity=".86" rx="2"/><text x="786.2" y="83.7" text-anchor="middle" font-size="10.5" font-weight="700" fill="#334155">16.8</text><rect x="808.0" y="132.7" width="43.5" height="201.3" fill="#2563eb" opacity=".86" rx="2"/><text x="829.8" y="125.7" text-anchor="middle" font-size="10.5" font-weight="700" fill="#334155">13.9</text><text x="808.0" y="376" text-anchor="middle" font-size="11" fill="#64748b">2030</text><circle cx="60" cy="394" r="5" fill="#dc2626"/><text x="70" y="398" font-size="12">巴塞罗那</text><circle cx="180" cy="394" r="5" fill="#2563eb"/><text x="190" y="398" font-size="12">北京</text></svg>