<svg viewBox="0 0 900 400" class="chart"><rect width="900" height="400" fill="white" rx="16"/><text x="60" y="24" font-size="17" font-weight="700">2025—2030 年降水情景对比</text><line x1="60" y1="334.0" x2="876" y2="334.0" stroke="#e2e8f0"/><text x="52" y="338.0" text-anchor="end" font-size="11" fill="#64748b">0</text><line x1="60" y1="261.0" x2="876" y2="261.0" stroke="#e2e8f0"/><text x="52" y="265.0" text-anchor="end" font-size="11" fill="#64748b">186</text><line x1="60" y1="188.0" x2="876" y2="188.0" stroke="#e2e8f0"/><text x="52" y="192.0" text-anchor="end" font-size="11" fill="#64748b">372</text><line x1="60" y1="115.0" x2="876" y2="115.0" stroke="#e2e8f0"/><text x="52" y="119.0" text-anchor="end" font-size="11" fill="#64748b">558</text><line x1="60" y1="42.0" x2="876" y2="42.0" stroke="#e2e8f0"/><text x="52" y="46.0" text-anchor="end" font-size="11" fill="#64748b">744</text><rect x="84.5" y="90.7" width="43.5" height="243.3" fill="#dc2626" opacity=".86" rx="2"/><text x="106.2" y="83.7" text-anchor="middle" font-size="10.5" font-weight="700" fill="#334155">620</text><rect x="128.0" y="120.1" width="43.5" height="213.9" fill="#2563eb" opacity=".86" rx="2"/><text x="149.8" y="113.1" text-anchor="middle" font-size="10.5" font-weight="700" fill="#334155">545</text><text x="128.0" y="376" text-anchor="middle" font-size="11" fill="#64748b">2025</text><rect x="220.5" y="109.1" width="43.5" height="224.9" fill="#dc2626" opacity=".86" rx="2"/><text x="242.2" y="102.1" text-anchor="middle" font-size="10.5" font-weight="700" fill="#334155">573</text><rect x="264.0" y="124.4" width="43.5" height="209.6" fill="#2563eb" opacity=".86" rx="2"/><text x="285.8" y="117.4" text-anchor="middle" font-size="10.5" font-weight="700" fill="#334155">534</text><text x="264.0" y="376" text-anchor="middle" font-size="11" fill="#64748b">2026</text><rect x="356.5" y="116.2" width="43.5" height="217.8" fill="#dc2626" opacity=".86" rx="2"/><text x="378.2" y="109.2" text-anchor="middle" font-size="10.5" font-weight="700" fill="#334155">555</text><rect x="400.0" y="113.8" width="43.5" height="220.2" fill="#2563eb" opacity=".86" rx="2"/><text x="421.8" y="106.8" text-anchor="middle" font-size="10.5" font-weight="700" fill="#334155">561</text><text x="400.0" y="376" text-anchor="middle" font-size="11" fill="#64748b">2027</text><rect x="492.5" y="106.8" width="43.5" height="227.2" fill="#dc2626" opacity=".86" rx="2"/><text x="514.2" y="99.8" text-anchor="middle" font-size="10.5" font-weight="700" fill="#334155">579</text><rect x="536.0" y="128.7" width="43.5" height="205.3" fill="#2563eb" opacity=".86" rx="2"/><text x="557.8" y="121.7" text-anchor="middle" font-size="10.5" font-weight="700" fill="#334155">523</text><text x="536.0" y="376" text-anchor="middle" font-size="11" fill="#64748b">2028</text><rect x="628.5" y="118.5" width="43.5" height="215.5" fill="#dc2626" opacity=".86" rx="2"/><text x="650.2" y="111.5" text-anchor="middle" font-size="10.5" font-weight="700" fill="#334155">549</text><rect x="672.0" y="115.8" width="43.5" height="218.2" fill="#2563eb" opacity=".86" rx="2"/><text x="693.8" y="108.8" text-anchor="middle" font-size="10.5" font-weight="700" fill="#334155">556</text><text x="672.0" y="376" text-anchor="middle" font-size="11" fill="#64748b">2029</text><rect x="764.5" y="113.8" width="43.5" height="220.2" fill="#dc2626" opacity=".86" rx="2"/><text x="786.2" y="106.8" text-anchor="middle" font-size="10.5" font-weight="700" fill="#334155">561</text><rect x="808.0" y="122.5" width="43.5" height="211.5" fill="#2563eb" opacity=".86" rx="2"/><text x="829.8" y="115.5" text-anchor="middle" font-size="10.5" font-weight="700" fill="#334155">539</text><text x="808.0" y="376" text-anchor="middle" font-size="11" fill="#64748b">2030</text><circle cx="60" cy="394" r="5" fill="#dc2626"/><text x="70" y="398" font-size="12">巴塞罗那</text><circle cx="180" cy="394" r="5" fill="#2563eb"/><text x="190" y="398" font-size="12">北京</text></svg>