<svg viewBox="0 0 900 400" class="chart"><rect width="900" height="400" fill="white" rx="16"/><text x="60" y="24" font-size="17" font-weight="700">2025—2030 月均气温估计：北京冬冷夏热，巴塞罗那更均衡</text><line x1="60" y1="334.0" x2="876" y2="334.0" stroke="#e2e8f0"/><text x="52" y="338.0" text-anchor="end" font-size="11" fill="#64748b">-4.9</text><line x1="60" y1="261.0" x2="876" y2="261.0" stroke="#e2e8f0"/><text x="52" y="265.0" text-anchor="end" font-size="11" fill="#64748b">5.0</text><line x1="60" y1="188.0" x2="876" y2="188.0" stroke="#e2e8f0"/><text x="52" y="192.0" text-anchor="end" font-size="11" fill="#64748b">14.8</text><line x1="60" y1="115.0" x2="876" y2="115.0" stroke="#e2e8f0"/><text x="52" y="119.0" text-anchor="end" font-size="11" fill="#64748b">24.6</text><line x1="60" y1="42.0" x2="876" y2="42.0" stroke="#e2e8f0"/><text x="52" y="46.0" text-anchor="end" font-size="11" fill="#64748b">34.4</text><rect x="72.2" y="228.8" width="21.8" height="69.1" fill="#dc2626" opacity=".86" rx="2"><title>巴塞罗那 1月 9.3</title></rect><text x="83.1" y="221.8" text-anchor="middle" font-size="9.5" font-weight="700" fill="#334155">9.3</text><rect x="94.0" y="297.9" width="21.8" height="17.8" fill="#2563eb" opacity=".86" rx="2"><title>北京 1月 -2.4</title></rect><text x="104.9" y="329.8" text-anchor="middle" font-size="9.5" font-weight="700" fill="#334155">-2.4</text><text x="94.0" y="376" text-anchor="middle" font-size="11" fill="#64748b">1月</text><rect x="140.2" y="224.4" width="21.8" height="73.6" fill="#dc2626" opacity=".86" rx="2"><title>巴塞罗那 2月 9.9</title></rect><text x="151.1" y="217.4" text-anchor="middle" font-size="9.5" font-weight="700" fill="#334155">9.9</text><rect x="162.0" y="289.7" width="21.8" height="8.2" fill="#2563eb" opacity=".86" rx="2"><title>北京 2月 1.1</title></rect><text x="172.9" y="282.7" text-anchor="middle" font-size="9.5" font-weight="700" fill="#334155">1.1</text><text x="162.0" y="376" text-anchor="middle" font-size="11" fill="#64748b">2月</text><rect x="208.2" y="207.3" width="21.8" height="90.7" fill="#dc2626" opacity=".86" rx="2"><title>巴塞罗那 3月 12.2</title></rect><text x="219.1" y="200.3" text-anchor="middle" font-size="9.5" font-weight="700" fill="#334155">12.2</text><rect x="230.0" y="243.7" width="21.8" height="54.2" fill="#2563eb" opacity=".86" rx="2"><title>北京 3月 7.3</title></rect><text x="240.9" y="236.7" text-anchor="middle" font-size="9.5" font-weight="700" fill="#334155">7.3</text><text x="230.0" y="376" text-anchor="middle" font-size="11" fill="#64748b">3月</text><rect x="276.2" y="190.2" width="21.8" height="107.7" fill="#dc2626" opacity=".86" rx="2"><title>巴塞罗那 4月 14.5</title></rect><text x="287.1" y="183.2" text-anchor="middle" font-size="9.5" font-weight="700" fill="#334155">14.5</text><rect x="298.0" y="182.7" width="21.8" height="115.2" fill="#2563eb" opacity=".86" rx="2"><title>北京 4月 15.5</title></rect><text x="308.9" y="175.7" text-anchor="middle" font-size="9.5" font-weight="700" fill="#334155">15.5</text><text x="298.0" y="376" text-anchor="middle" font-size="11" fill="#64748b">4月</text><rect x="344.2" y="164.2" width="21.8" height="133.8" fill="#dc2626" opacity=".86" rx="2"><title>巴塞罗那 5月 18.0</title></rect><text x="355.1" y="157.2" text-anchor="middle" font-size="9.5" font-weight="700" fill="#334155">18.0</text><rect x="366.0" y="132.2" width="21.8" height="165.7" fill="#2563eb" opacity=".86" rx="2"><title>北京 5月 22.3</title></rect><text x="376.9" y="125.2" text-anchor="middle" font-size="9.5" font-weight="700" fill="#334155">22.3</text><text x="366.0" y="376" text-anchor="middle" font-size="11" fill="#64748b">5月</text><rect x="412.2" y="132.2" width="21.8" height="165.7" fill="#dc2626" opacity=".86" rx="2"><title>巴塞罗那 6月 22.3</title></rect><text x="423.1" y="125.2" text-anchor="middle" font-size="9.5" font-weight="700" fill="#334155">22.3</text><rect x="434.0" y="97.3" width="21.8" height="200.6" fill="#2563eb" opacity=".86" rx="2"><title>北京 6月 27.0</title></rect><text x="444.9" y="90.3" text-anchor="middle" font-size="9.5" font-weight="700" fill="#334155">27.0</text><text x="434.0" y="376" text-anchor="middle" font-size="11" fill="#64748b">6月</text><rect x="480.2" y="111.4" width="21.8" height="186.5" fill="#dc2626" opacity=".86" rx="2"><title>巴塞罗那 7月 25.1</title></rect><text x="491.1" y="104.4" text-anchor="middle" font-size="9.5" font-weight="700" fill="#334155">25.1</text><rect x="502.0" y="87.6" width="21.8" height="210.3" fill="#2563eb" opacity=".86" rx="2"><title>北京 7月 28.3</title></rect><text x="512.9" y="80.6" text-anchor="middle" font-size="9.5" font-weight="700" fill="#334155">28.3</text><text x="502.0" y="376" text-anchor="middle" font-size="11" fill="#64748b">7月</text><rect x="548.2" y="109.2" width="21.8" height="188.7" fill="#dc2626" opacity=".86" rx="2"><title>巴塞罗那 8月 25.4</title></rect><text x="559.1" y="102.2" text-anchor="middle" font-size="9.5" font-weight="700" fill="#334155">25.4</text><rect x="570.0" y="98.8" width="21.8" height="199.1" fill="#2563eb" opacity=".86" rx="2"><title>北京 8月 26.8</title></rect><text x="580.9" y="91.8" text-anchor="middle" font-size="9.5" font-weight="700" fill="#334155">26.8</text><text x="570.0" y="376" text-anchor="middle" font-size="11" fill="#64748b">8月</text><rect x="616.2" y="135.2" width="21.8" height="162.7" fill="#dc2626" opacity=".86" rx="2"><title>巴塞罗那 9月 21.9</title></rect><text x="627.1" y="128.2" text-anchor="middle" font-size="9.5" font-weight="700" fill="#334155">21.9</text><rect x="638.0" y="135.9" width="21.8" height="162.0" fill="#2563eb" opacity=".86" rx="2"><title>北京 9月 21.8</title></rect><text x="648.9" y="128.9" text-anchor="middle" font-size="9.5" font-weight="700" fill="#334155">21.8</text><text x="638.0" y="376" text-anchor="middle" font-size="11" fill="#64748b">9月</text><rect x="684.2" y="161.9" width="21.8" height="136.0" fill="#dc2626" opacity=".86" rx="2"><title>巴塞罗那 10月 18.3</title></rect><text x="695.1" y="154.9" text-anchor="middle" font-size="9.5" font-weight="700" fill="#334155">18.3</text><rect x="706.0" y="191.7" width="21.8" height="106.3" fill="#2563eb" opacity=".86" rx="2"><title>北京 10月 14.3</title></rect><text x="716.9" y="184.7" text-anchor="middle" font-size="9.5" font-weight="700" fill="#334155">14.3</text><text x="706.0" y="376" text-anchor="middle" font-size="11" fill="#64748b">10月</text><rect x="752.2" y="197.6" width="21.8" height="100.3" fill="#dc2626" opacity=".86" rx="2"><title>巴塞罗那 11月 13.5</title></rect><text x="763.1" y="190.6" text-anchor="middle" font-size="9.5" font-weight="700" fill="#334155">13.5</text><rect x="774.0" y="260.8" width="21.8" height="37.2" fill="#2563eb" opacity=".86" rx="2"><title>北京 11月 5.0</title></rect><text x="784.9" y="253.8" text-anchor="middle" font-size="9.5" font-weight="700" fill="#334155">5.0</text><text x="774.0" y="376" text-anchor="middle" font-size="11" fill="#64748b">11月</text><rect x="820.2" y="222.9" width="21.8" height="75.1" fill="#dc2626" opacity=".86" rx="2"><title>巴塞罗那 12月 10.1</title></rect><text x="831.1" y="215.9" text-anchor="middle" font-size="9.5" font-weight="700" fill="#334155">10.1</text><rect x="842.0" y="297.9" width="21.8" height="7.4" fill="#2563eb" opacity=".86" rx="2"><title>北京 12月 -1.0</title></rect><text x="852.9" y="319.3" text-anchor="middle" font-size="9.5" font-weight="700" fill="#334155">-1.0</text><text x="842.0" y="376" text-anchor="middle" font-size="11" fill="#64748b">12月</text><circle cx="60" cy="394" r="5" fill="#dc2626"/><text x="70" y="398" font-size="12">巴塞罗那</text><circle cx="180" cy="394" r="5" fill="#2563eb"/><text x="190" y="398" font-size="12">北京</text></svg>