<svg viewBox="0 0 900 400" class="chart"><rect width="900" height="400" fill="white" rx="16"/><text x="60" y="24" font-size="17" font-weight="700">2025—2030 月降水估计：北京雨季集中在夏季</text><line x1="60" y1="334.0" x2="876" y2="334.0" stroke="#e2e8f0"/><text x="52" y="338.0" text-anchor="end" font-size="11" fill="#64748b">0.0</text><line x1="60" y1="261.0" x2="876" y2="261.0" stroke="#e2e8f0"/><text x="52" y="265.0" text-anchor="end" font-size="11" fill="#64748b">50.7</text><line x1="60" y1="188.0" x2="876" y2="188.0" stroke="#e2e8f0"/><text x="52" y="192.0" text-anchor="end" font-size="11" fill="#64748b">101.4</text><line x1="60" y1="115.0" x2="876" y2="115.0" stroke="#e2e8f0"/><text x="52" y="119.0" text-anchor="end" font-size="11" fill="#64748b">152.1</text><line x1="60" y1="42.0" x2="876" y2="42.0" stroke="#e2e8f0"/><text x="52" y="46.0" text-anchor="end" font-size="11" fill="#64748b">202.8</text><rect x="72.2" y="276.4" width="21.8" height="57.6" fill="#dc2626" opacity=".86" rx="2"><title>巴塞罗那 1月 40.0</title></rect><text x="83.1" y="269.4" text-anchor="middle" font-size="9.5" font-weight="700" fill="#334155">40.0</text><rect x="94.0" y="329.7" width="21.8" height="4.3" fill="#2563eb" opacity=".86" rx="2"><title>北京 1月 3.0</title></rect><text x="104.9" y="322.7" text-anchor="middle" font-size="9.5" font-weight="700" fill="#334155">3.0</text><text x="94.0" y="376" text-anchor="middle" font-size="11" fill="#64748b">1月</text><rect x="140.2" y="283.6" width="21.8" height="50.4" fill="#dc2626" opacity=".86" rx="2"><title>巴塞罗那 2月 35.0</title></rect><text x="151.1" y="276.6" text-anchor="middle" font-size="9.5" font-weight="700" fill="#334155">35.0</text><rect x="162.0" y="326.8" width="21.8" height="7.2" fill="#2563eb" opacity=".86" rx="2"><title>北京 2月 5.0</title></rect><text x="172.9" y="319.8" text-anchor="middle" font-size="9.5" font-weight="700" fill="#334155">5.0</text><text x="162.0" y="376" text-anchor="middle" font-size="11" fill="#64748b">2月</text><rect x="208.2" y="277.8" width="21.8" height="56.2" fill="#dc2626" opacity=".86" rx="2"><title>巴塞罗那 3月 39.0</title></rect><text x="219.1" y="270.8" text-anchor="middle" font-size="9.5" font-weight="700" fill="#334155">39.0</text><rect x="230.0" y="321.0" width="21.8" height="13.0" fill="#2563eb" opacity=".86" rx="2"><title>北京 3月 9.0</title></rect><text x="240.9" y="314.0" text-anchor="middle" font-size="9.5" font-weight="700" fill="#334155">9.0</text><text x="230.0" y="376" text-anchor="middle" font-size="11" fill="#64748b">3月</text><rect x="276.2" y="260.6" width="21.8" height="73.4" fill="#dc2626" opacity=".86" rx="2"><title>巴塞罗那 4月 51.0</title></rect><text x="287.1" y="253.6" text-anchor="middle" font-size="9.5" font-weight="700" fill="#334155">51.0</text><rect x="298.0" y="306.6" width="21.8" height="27.4" fill="#2563eb" opacity=".86" rx="2"><title>北京 4月 19.0</title></rect><text x="308.9" y="299.6" text-anchor="middle" font-size="9.5" font-weight="700" fill="#334155">19.0</text><text x="298.0" y="376" text-anchor="middle" font-size="11" fill="#64748b">4月</text><rect x="344.2" y="270.6" width="21.8" height="63.4" fill="#dc2626" opacity=".86" rx="2"><title>巴塞罗那 5月 44.0</title></rect><text x="355.1" y="263.6" text-anchor="middle" font-size="9.5" font-weight="700" fill="#334155">44.0</text><rect x="366.0" y="283.6" width="21.8" height="50.4" fill="#2563eb" opacity=".86" rx="2"><title>北京 5月 35.0</title></rect><text x="376.9" y="276.6" text-anchor="middle" font-size="9.5" font-weight="700" fill="#334155">35.0</text><text x="366.0" y="376" text-anchor="middle" font-size="11" fill="#64748b">5月</text><rect x="412.2" y="286.5" width="21.8" height="47.5" fill="#dc2626" opacity=".86" rx="2"><title>巴塞罗那 6月 33.0</title></rect><text x="423.1" y="279.5" text-anchor="middle" font-size="9.5" font-weight="700" fill="#334155">33.0</text><rect x="434.0" y="223.1" width="21.8" height="110.9" fill="#2563eb" opacity=".86" rx="2"><title>北京 6月 77.0</title></rect><text x="444.9" y="216.1" text-anchor="middle" font-size="9.5" font-weight="700" fill="#334155">77.0</text><text x="434.0" y="376" text-anchor="middle" font-size="11" fill="#64748b">6月</text><rect x="480.2" y="302.3" width="21.8" height="31.7" fill="#dc2626" opacity=".86" rx="2"><title>巴塞罗那 7月 22.0</title></rect><text x="491.1" y="295.3" text-anchor="middle" font-size="9.5" font-weight="700" fill="#334155">22.0</text><rect x="502.0" y="90.7" width="21.8" height="243.3" fill="#2563eb" opacity=".86" rx="2"><title>北京 7月 169.0</title></rect><text x="512.9" y="83.7" text-anchor="middle" font-size="9.5" font-weight="700" fill="#334155">169</text><text x="502.0" y="376" text-anchor="middle" font-size="11" fill="#64748b">7月</text><rect x="548.2" y="280.7" width="21.8" height="53.3" fill="#dc2626" opacity=".86" rx="2"><title>巴塞罗那 8月 37.0</title></rect><text x="559.1" y="273.7" text-anchor="middle" font-size="9.5" font-weight="700" fill="#334155">37.0</text><rect x="570.0" y="149.7" width="21.8" height="184.3" fill="#2563eb" opacity=".86" rx="2"><title>北京 8月 128.0</title></rect><text x="580.9" y="142.7" text-anchor="middle" font-size="9.5" font-weight="700" fill="#334155">128</text><text x="570.0" y="376" text-anchor="middle" font-size="11" fill="#64748b">8月</text><rect x="616.2" y="220.3" width="21.8" height="113.7" fill="#dc2626" opacity=".86" rx="2"><title>巴塞罗那 9月 79.0</title></rect><text x="627.1" y="213.3" text-anchor="middle" font-size="9.5" font-weight="700" fill="#334155">79.0</text><rect x="638.0" y="253.4" width="21.8" height="80.6" fill="#2563eb" opacity=".86" rx="2"><title>北京 9月 56.0</title></rect><text x="648.9" y="246.4" text-anchor="middle" font-size="9.5" font-weight="700" fill="#334155">56.0</text><text x="638.0" y="376" text-anchor="middle" font-size="11" fill="#64748b">9月</text><rect x="684.2" y="201.5" width="21.8" height="132.5" fill="#dc2626" opacity=".86" rx="2"><title>巴塞罗那 10月 92.0</title></rect><text x="695.1" y="194.5" text-anchor="middle" font-size="9.5" font-weight="700" fill="#334155">92.0</text><rect x="706.0" y="285.0" width="21.8" height="49.0" fill="#2563eb" opacity=".86" rx="2"><title>北京 10月 34.0</title></rect><text x="716.9" y="278.0" text-anchor="middle" font-size="9.5" font-weight="700" fill="#334155">34.0</text><text x="706.0" y="376" text-anchor="middle" font-size="11" fill="#64748b">10月</text><rect x="752.2" y="246.2" width="21.8" height="87.8" fill="#dc2626" opacity=".86" rx="2"><title>巴塞罗那 11月 61.0</title></rect><text x="763.1" y="239.2" text-anchor="middle" font-size="9.5" font-weight="700" fill="#334155">61.0</text><rect x="774.0" y="312.4" width="21.8" height="21.6" fill="#2563eb" opacity=".86" rx="2"><title>北京 11月 15.0</title></rect><text x="784.9" y="305.4" text-anchor="middle" font-size="9.5" font-weight="700" fill="#334155">15.0</text><text x="774.0" y="376" text-anchor="middle" font-size="11" fill="#64748b">11月</text><rect x="820.2" y="275.0" width="21.8" height="59.0" fill="#dc2626" opacity=".86" rx="2"><title>巴塞罗那 12月 41.0</title></rect><text x="831.1" y="268.0" text-anchor="middle" font-size="9.5" font-weight="700" fill="#334155">41.0</text><rect x="842.0" y="329.7" width="21.8" height="4.3" fill="#2563eb" opacity=".86" rx="2"><title>北京 12月 3.0</title></rect><text x="852.9" y="322.7" text-anchor="middle" font-size="9.5" font-weight="700" fill="#334155">3.0</text><text x="842.0" y="376" text-anchor="middle" font-size="11" fill="#64748b">12月</text><circle cx="60" cy="394" r="5" fill="#dc2626"/><text x="70" y="398" font-size="12">巴塞罗那</text><circle cx="180" cy="394" r="5" fill="#2563eb"/><text x="190" y="398" font-size="12">北京</text></svg>