<svg viewBox="0 0 900 360" class="chart" role="img" aria-label="1990—2025 年气温趋势：长期偏暖更明显"><rect width="900" height="360" fill="white" rx="16"/><text x="55" y="24" font-size="17" font-weight="700" fill="#0f172a">1990—2025 年气温趋势：长期偏暖更明显</text><line x1="55" y1="312.0" x2="880" y2="312.0" stroke="#e2e8f0"/><text x="47" y="316.0" text-anchor="end" font-size="11" fill="#64748b">-3.1</text><line x1="55" y1="243.0" x2="880" y2="243.0" stroke="#e2e8f0"/><text x="47" y="247.0" text-anchor="end" font-size="11" fill="#64748b">2.5</text><line x1="55" y1="174.0" x2="880" y2="174.0" stroke="#e2e8f0"/><text x="47" y="178.0" text-anchor="end" font-size="11" fill="#64748b">8.1</text><line x1="55" y1="105.0" x2="880" y2="105.0" stroke="#e2e8f0"/><text x="47" y="109.0" text-anchor="end" font-size="11" fill="#64748b">13.7</text><line x1="55" y1="36.0" x2="880" y2="36.0" stroke="#e2e8f0"/><text x="47" y="40.0" text-anchor="end" font-size="11" fill="#64748b">19.3</text><text x="55.0" y="342" text-anchor="middle" font-size="11" fill="#64748b">1990</text><text x="169.6" y="342" text-anchor="middle" font-size="11" fill="#64748b">1995</text><text x="284.2" y="342" text-anchor="middle" font-size="11" fill="#64748b">2000</text><text x="398.8" y="342" text-anchor="middle" font-size="11" fill="#64748b">2005</text><text x="513.3" y="342" text-anchor="middle" font-size="11" fill="#64748b">2010</text><text x="627.9" y="342" text-anchor="middle" font-size="11" fill="#64748b">2015</text><text x="742.5" y="342" text-anchor="middle" font-size="11" fill="#64748b">2020</text><text x="857.1" y="342" text-anchor="middle" font-size="11" fill="#64748b">2025</text><polyline points="55.0,79.9 77.9,90.0 100.8,89.9 123.8,92.6 146.7,78.0 169.6,82.1 192.5,89.1 215.4,76.8 238.3,81.7 261.2,83.7 284.2,83.5 307.1,82.0 330.0,84.7 352.9,76.3 375.8,85.1 398.8,89.3 421.7,74.8 444.6,81.7 467.5,85.1 490.4,77.7 513.3,90.7 536.2,77.3 559.2,79.6 582.1,83.7 605.0,75.1 627.9,74.7 650.8,75.1 673.8,75.4 696.7,75.4 719.6,77.2 742.5,73.2 765.4,77.5 788.3,62.7 811.2,64.7 834.2,69.4 857.1,65.4 880.0,108.7" fill="none" stroke="#dc2626" stroke-width="2.5" stroke-linejoin="round" stroke-linecap="round"/><circle cx="55" cy="354" r="5" fill="#dc2626"/><text x="65" y="358" font-size="12" fill="#334155">年均气温</text><polyline points="55.0,272.7 77.9,282.7 100.8,282.7 123.8,285.3 146.7,270.8 169.6,274.9 192.5,281.8 215.4,269.5 238.3,274.5 261.2,276.4 284.2,276.3 307.1,274.8 330.0,277.4 352.9,269.1 375.8,277.8 398.8,282.0 421.7,267.6 444.6,274.4 467.5,277.9 490.4,270.3 513.3,283.4 536.2,270.0 559.2,272.3 582.1,276.4 605.0,267.8 627.9,267.4 650.8,267.8 673.8,268.2 696.7,268.1 719.6,269.9 742.5,266.0 765.4,270.2 788.3,255.4 811.2,257.5 834.2,262.1 857.1,258.1 880.0,254.2" fill="none" stroke="#f97316" stroke-width="2.5" stroke-linejoin="round" stroke-linecap="round"/><circle cx="265" cy="354" r="5" fill="#f97316"/><text x="275" y="358" font-size="12" fill="#334155">气温距平</text></svg>