<svg viewBox="0 0 900 390" class="chart" role="img" aria-label="1990—2025 年年度降水：波动大于线性趋势"><rect width="900" height="390" fill="white" rx="16"/><text x="55" y="24" font-size="17" font-weight="700" fill="#0f172a">1990—2025 年年度降水：波动大于线性趋势</text><line x1="55" y1="324.0" x2="880" y2="324.0" stroke="#e2e8f0"/><text x="47" y="328.0" text-anchor="end" font-size="11" fill="#64748b">0</text><line x1="55" y1="253.5" x2="880" y2="253.5" stroke="#e2e8f0"/><text x="47" y="257.5" text-anchor="end" font-size="11" fill="#64748b">307</text><line x1="55" y1="183.0" x2="880" y2="183.0" stroke="#e2e8f0"/><text x="47" y="187.0" text-anchor="end" font-size="11" fill="#64748b">613</text><line x1="55" y1="112.5" x2="880" y2="112.5" stroke="#e2e8f0"/><text x="47" y="116.5" text-anchor="end" font-size="11" fill="#64748b">920</text><line x1="55" y1="42.0" x2="880" y2="42.0" stroke="#e2e8f0"/><text x="47" y="46.0" text-anchor="end" font-size="11" fill="#64748b">1227</text><rect x="58.1" y="218.1" width="16.1" height="105.9" fill="#2563eb" opacity="0.86" rx="2"/><text x="66.1" y="212.1" text-anchor="middle" font-size="10.5" font-weight="700" fill="#334155">461</text><text x="66.1" y="364" text-anchor="middle" font-size="10" fill="#64748b" transform="rotate(-45 66.1,364)">1990</text><rect x="80.4" y="164.1" width="16.1" height="159.9" fill="#2563eb" opacity="0.86" rx="2"/><text x="88.4" y="158.1" text-anchor="middle" font-size="10.5" font-weight="700" fill="#334155">696</text><rect x="102.7" y="184.4" width="16.1" height="139.6" fill="#2563eb" opacity="0.86" rx="2"/><text x="110.7" y="178.4" text-anchor="middle" font-size="10.5" font-weight="700" fill="#334155">608</text><text x="110.7" y="364" text-anchor="middle" font-size="10" fill="#64748b" transform="rotate(-45 110.7,364)">1992</text><rect x="125.0" y="208.2" width="16.1" height="115.8" fill="#2563eb" opacity="0.86" rx="2"/><text x="133.0" y="202.2" text-anchor="middle" font-size="10.5" font-weight="700" fill="#334155">504</text><rect x="147.3" y="190.6" width="16.1" height="133.4" fill="#2563eb" opacity="0.86" rx="2"/><text x="155.3" y="184.6" text-anchor="middle" font-size="10.5" font-weight="700" fill="#334155">580</text><text x="155.3" y="364" text-anchor="middle" font-size="10" fill="#64748b" transform="rotate(-45 155.3,364)">1994</text><rect x="169.6" y="196.3" width="16.1" height="127.7" fill="#2563eb" opacity="0.86" rx="2"/><text x="177.6" y="190.3" text-anchor="middle" font-size="10.5" font-weight="700" fill="#334155">556</text><rect x="191.9" y="131.5" width="16.1" height="192.5" fill="#2563eb" opacity="0.86" rx="2"/><text x="199.9" y="125.5" text-anchor="middle" font-size="10.5" font-weight="700" fill="#334155">838</text><text x="199.9" y="364" text-anchor="middle" font-size="10" fill="#64748b" transform="rotate(-45 199.9,364)">1996</text><rect x="214.2" y="223.1" width="16.1" height="100.9" fill="#2563eb" opacity="0.86" rx="2"/><text x="222.2" y="217.1" text-anchor="middle" font-size="10.5" font-weight="700" fill="#334155">439</text><rect x="236.5" y="217.1" width="16.1" height="106.9" fill="#2563eb" opacity="0.86" rx="2"/><text x="244.5" y="211.1" text-anchor="middle" font-size="10.5" font-weight="700" fill="#334155">465</text><text x="244.5" y="364" text-anchor="middle" font-size="10" fill="#64748b" transform="rotate(-45 244.5,364)">1998</text><rect x="258.8" y="214.0" width="16.1" height="110.0" fill="#2563eb" opacity="0.86" rx="2"/><text x="266.8" y="208.0" text-anchor="middle" font-size="10.5" font-weight="700" fill="#334155">478</text><rect x="281.1" y="207.6" width="16.1" height="116.4" fill="#2563eb" opacity="0.86" rx="2"/><text x="289.1" y="201.6" text-anchor="middle" font-size="10.5" font-weight="700" fill="#334155">506</text><text x="289.1" y="364" text-anchor="middle" font-size="10" fill="#64748b" transform="rotate(-45 289.1,364)">2000</text><rect x="303.4" y="194.3" width="16.1" height="129.7" fill="#2563eb" opacity="0.86" rx="2"/><text x="311.4" y="188.3" text-anchor="middle" font-size="10.5" font-weight="700" fill="#334155">564</text><rect x="325.7" y="145.5" width="16.1" height="178.5" fill="#2563eb" opacity="0.86" rx="2"/><text x="333.7" y="139.5" text-anchor="middle" font-size="10.5" font-weight="700" fill="#334155">777</text><text x="333.7" y="364" text-anchor="middle" font-size="10" fill="#64748b" transform="rotate(-45 333.7,364)">2002</text><rect x="348.0" y="184.4" width="16.1" height="139.6" fill="#2563eb" opacity="0.86" rx="2"/><text x="356.0" y="178.4" text-anchor="middle" font-size="10.5" font-weight="700" fill="#334155">607</text><rect x="370.3" y="195.4" width="16.1" height="128.6" fill="#2563eb" opacity="0.86" rx="2"/><text x="378.3" y="189.4" text-anchor="middle" font-size="10.5" font-weight="700" fill="#334155">559</text><text x="378.3" y="364" text-anchor="middle" font-size="10" fill="#64748b" transform="rotate(-45 378.3,364)">2004</text><rect x="392.6" y="195.9" width="16.1" height="128.1" fill="#2563eb" opacity="0.86" rx="2"/><text x="400.6" y="189.9" text-anchor="middle" font-size="10.5" font-weight="700" fill="#334155">558</text><rect x="414.9" y="233.2" width="16.1" height="90.8" fill="#2563eb" opacity="0.86" rx="2"/><text x="422.9" y="227.2" text-anchor="middle" font-size="10.5" font-weight="700" fill="#334155">395</text><text x="422.9" y="364" text-anchor="middle" font-size="10" fill="#64748b" transform="rotate(-45 422.9,364)">2006</text><rect x="437.2" y="206.2" width="16.1" height="117.8" fill="#2563eb" opacity="0.86" rx="2"/><text x="445.2" y="200.2" text-anchor="middle" font-size="10.5" font-weight="700" fill="#334155">513</text><rect x="459.5" y="177.3" width="16.1" height="146.7" fill="#2563eb" opacity="0.86" rx="2"/><text x="467.5" y="171.3" text-anchor="middle" font-size="10.5" font-weight="700" fill="#334155">638</text><text x="467.5" y="364" text-anchor="middle" font-size="10" fill="#64748b" transform="rotate(-45 467.5,364)">2008</text><rect x="481.8" y="222.8" width="16.1" height="101.2" fill="#2563eb" opacity="0.86" rx="2"/><text x="489.8" y="216.8" text-anchor="middle" font-size="10.5" font-weight="700" fill="#334155">440</text><rect x="504.1" y="159.9" width="16.1" height="164.1" fill="#2563eb" opacity="0.86" rx="2"/><text x="512.1" y="153.9" text-anchor="middle" font-size="10.5" font-weight="700" fill="#334155">714</text><text x="512.1" y="364" text-anchor="middle" font-size="10" fill="#64748b" transform="rotate(-45 512.1,364)">2010</text><rect x="526.4" y="189.8" width="16.1" height="134.2" fill="#2563eb" opacity="0.86" rx="2"/><text x="534.4" y="183.8" text-anchor="middle" font-size="10.5" font-weight="700" fill="#334155">584</text><rect x="548.7" y="219.3" width="16.1" height="104.7" fill="#2563eb" opacity="0.86" rx="2"/><text x="556.7" y="213.3" text-anchor="middle" font-size="10.5" font-weight="700" fill="#334155">456</text><text x="556.7" y="364" text-anchor="middle" font-size="10" fill="#64748b" transform="rotate(-45 556.7,364)">2012</text><rect x="571.0" y="183.9" width="16.1" height="140.1" fill="#2563eb" opacity="0.86" rx="2"/><text x="579.0" y="177.9" text-anchor="middle" font-size="10.5" font-weight="700" fill="#334155">610</text><rect x="593.3" y="183.8" width="16.1" height="140.2" fill="#2563eb" opacity="0.86" rx="2"/><text x="601.3" y="177.8" text-anchor="middle" font-size="10.5" font-weight="700" fill="#334155">610</text><text x="601.3" y="364" text-anchor="middle" font-size="10" fill="#64748b" transform="rotate(-45 601.3,364)">2014</text><rect x="615.6" y="209.5" width="16.1" height="114.5" fill="#2563eb" opacity="0.86" rx="2"/><text x="623.6" y="203.5" text-anchor="middle" font-size="10.5" font-weight="700" fill="#334155">498</text><rect x="637.9" y="201.4" width="16.1" height="122.6" fill="#2563eb" opacity="0.86" rx="2"/><text x="645.9" y="195.4" text-anchor="middle" font-size="10.5" font-weight="700" fill="#334155">534</text><text x="645.9" y="364" text-anchor="middle" font-size="10" fill="#64748b" transform="rotate(-45 645.9,364)">2016</text><rect x="660.1" y="208.8" width="16.1" height="115.2" fill="#2563eb" opacity="0.86" rx="2"/><text x="668.2" y="202.8" text-anchor="middle" font-size="10.5" font-weight="700" fill="#334155">501</text><rect x="682.4" y="85.0" width="16.1" height="239.0" fill="#2563eb" opacity="0.86" rx="2"/><text x="690.5" y="79.0" text-anchor="middle" font-size="10.5" font-weight="700" fill="#334155">1040</text><text x="690.5" y="364" text-anchor="middle" font-size="10" fill="#64748b" transform="rotate(-45 690.5,364)">2018</text><rect x="704.7" y="180.5" width="16.1" height="143.5" fill="#2563eb" opacity="0.86" rx="2"/><text x="712.8" y="174.5" text-anchor="middle" font-size="10.5" font-weight="700" fill="#334155">624</text><rect x="727.0" y="135.7" width="16.1" height="188.3" fill="#2563eb" opacity="0.86" rx="2"/><text x="735.1" y="129.7" text-anchor="middle" font-size="10.5" font-weight="700" fill="#334155">819</text><text x="735.1" y="364" text-anchor="middle" font-size="10" fill="#64748b" transform="rotate(-45 735.1,364)">2020</text><rect x="749.3" y="205.1" width="16.1" height="118.9" fill="#2563eb" opacity="0.86" rx="2"/><text x="757.4" y="199.1" text-anchor="middle" font-size="10.5" font-weight="700" fill="#334155">517</text><rect x="771.6" y="195.9" width="16.1" height="128.1" fill="#2563eb" opacity="0.86" rx="2"/><text x="779.7" y="189.9" text-anchor="middle" font-size="10.5" font-weight="700" fill="#334155">558</text><text x="779.7" y="364" text-anchor="middle" font-size="10" fill="#64748b" transform="rotate(-45 779.7,364)">2022</text><rect x="793.9" y="221.1" width="16.1" height="102.9" fill="#2563eb" opacity="0.86" rx="2"/><text x="802.0" y="215.1" text-anchor="middle" font-size="10.5" font-weight="700" fill="#334155">448</text><rect x="816.2" y="138.3" width="16.1" height="185.7" fill="#2563eb" opacity="0.86" rx="2"/><text x="824.3" y="132.3" text-anchor="middle" font-size="10.5" font-weight="700" fill="#334155">808</text><text x="824.3" y="364" text-anchor="middle" font-size="10" fill="#64748b" transform="rotate(-45 824.3,364)">2024</text><rect x="838.5" y="114.2" width="16.1" height="209.8" fill="#2563eb" opacity="0.86" rx="2"/><text x="846.6" y="108.2" text-anchor="middle" font-size="10.5" font-weight="700" fill="#334155">913</text><rect x="860.8" y="241.6" width="16.1" height="82.4" fill="#2563eb" opacity="0.86" rx="2"/><text x="868.9" y="235.6" text-anchor="middle" font-size="10.5" font-weight="700" fill="#334155">359</text><text x="868.9" y="364" text-anchor="middle" font-size="10" fill="#64748b" transform="rotate(-45 868.9,364)">2026</text></svg>