<svg viewBox="0 0 900 360" class="chart" role="img" aria-label="极端天气指标：热相关风险更清晰上升"><rect width="900" height="360" fill="white" rx="16"/><text x="55" y="24" font-size="17" font-weight="700" fill="#0f172a">极端天气指标：热相关风险更清晰上升</text><line x1="55" y1="312.0" x2="880" y2="312.0" stroke="#e2e8f0"/><text x="47" y="316.0" text-anchor="end" font-size="11" fill="#64748b">-9.8</text><line x1="55" y1="243.0" x2="880" y2="243.0" stroke="#e2e8f0"/><text x="47" y="247.0" text-anchor="end" font-size="11" fill="#64748b">15.6</text><line x1="55" y1="174.0" x2="880" y2="174.0" stroke="#e2e8f0"/><text x="47" y="178.0" text-anchor="end" font-size="11" fill="#64748b">41.0</text><line x1="55" y1="105.0" x2="880" y2="105.0" stroke="#e2e8f0"/><text x="47" y="109.0" text-anchor="end" font-size="11" fill="#64748b">66.4</text><line x1="55" y1="36.0" x2="880" y2="36.0" stroke="#e2e8f0"/><text x="47" y="40.0" text-anchor="end" font-size="11" fill="#64748b">91.8</text><text x="55.0" y="342" text-anchor="middle" font-size="11" fill="#64748b">1990</text><text x="169.6" y="342" text-anchor="middle" font-size="11" fill="#64748b">1995</text><text x="284.2" y="342" text-anchor="middle" font-size="11" fill="#64748b">2000</text><text x="398.8" y="342" text-anchor="middle" font-size="11" fill="#64748b">2005</text><text x="513.3" y="342" text-anchor="middle" font-size="11" fill="#64748b">2010</text><text x="627.9" y="342" text-anchor="middle" font-size="11" fill="#64748b">2015</text><text x="742.5" y="342" text-anchor="middle" font-size="11" fill="#64748b">2020</text><text x="857.1" y="342" text-anchor="middle" font-size="11" fill="#64748b">2025</text><polyline points="55.0,258.1 77.9,279.9 100.8,279.9 123.8,271.7 146.7,241.9 169.6,277.1 192.5,279.9 215.4,277.1 238.3,274.4 261.2,279.9 284.2,274.4 307.1,269.0 330.0,285.3 352.9,193.0 375.8,269.0 398.8,277.1 421.7,241.9 444.6,282.6 467.5,269.0 490.4,258.1 513.3,271.7 536.2,277.1 559.2,250.0 582.1,266.3 605.0,277.1 627.9,231.0 650.8,269.0 673.8,241.9 696.7,244.6 719.6,244.6 742.5,250.0 765.4,260.9 788.3,190.3 811.2,231.0 834.2,214.7 857.1,195.7 880.0,282.6" fill="none" stroke="#f97316" stroke-width="2.5" stroke-linejoin="round" stroke-linecap="round"/><circle cx="55" cy="354" r="5" fill="#f97316"/><text x="65" y="358" font-size="12" fill="#334155">高温日数≥30°C</text><polyline points="55.0,117.0 77.9,119.7 100.8,176.7 123.8,217.4 146.7,122.4 169.6,187.6 192.5,214.7 215.4,184.9 238.3,138.7 261.2,149.6 284.2,222.9 307.1,171.3 330.0,233.7 352.9,70.9 375.8,149.6 398.8,155.0 421.7,125.1 444.6,190.3 467.5,165.9 490.4,117.0 513.3,138.7 536.2,174.0 559.2,138.7 582.1,152.3 605.0,149.6 627.9,122.4 650.8,127.9 673.8,106.1 696.7,81.7 719.6,108.9 742.5,117.0 765.4,103.4 788.3,62.7 811.2,89.9 834.2,127.9 857.1,84.4 880.0,279.9" fill="none" stroke="#dc2626" stroke-width="2.5" stroke-linejoin="round" stroke-linecap="round"/><circle cx="265" cy="354" r="5" fill="#dc2626"/><text x="275" y="358" font-size="12" fill="#334155">热夜日数≥20°C</text><polyline points="55.0,282.6 77.9,269.0 100.8,269.0 123.8,277.1 146.7,266.3 169.6,271.7 192.5,271.7 215.4,282.6 238.3,279.9 261.2,269.0 284.2,277.1 307.1,271.7 330.0,258.1 352.9,274.4 375.8,274.4 398.8,269.0 421.7,277.1 444.6,271.7 467.5,271.7 490.4,279.9 513.3,269.0 536.2,274.4 559.2,274.4 582.1,263.6 605.0,271.7 627.9,266.3 650.8,279.9 673.8,279.9 696.7,239.1 719.6,263.6 742.5,255.4 765.4,277.1 788.3,269.0 811.2,271.7 834.2,266.3 857.1,258.1 880.0,271.7" fill="none" stroke="#2563eb" stroke-width="2.5" stroke-linejoin="round" stroke-linecap="round"/><circle cx="475" cy="354" r="5" fill="#2563eb"/><text x="485" y="358" font-size="12" fill="#334155">强降雨日数≥20mm</text></svg>