<svg viewBox="0 0 900 390" class="chart" role="img" aria-label="近十年相对1991—2020同月升温：夏秋更突出"><rect width="900" height="390" fill="white" rx="16"/><text x="55" y="24" font-size="17" font-weight="700" fill="#0f172a">近十年相对1991—2020同月升温：夏秋更突出</text><line x1="55" y1="324.0" x2="880" y2="324.0" stroke="#e2e8f0"/><text x="47" y="328.0" text-anchor="end" font-size="11" fill="#64748b">0</text><line x1="55" y1="253.5" x2="880" y2="253.5" stroke="#e2e8f0"/><text x="47" y="257.5" text-anchor="end" font-size="11" fill="#64748b">0</text><line x1="55" y1="183.0" x2="880" y2="183.0" stroke="#e2e8f0"/><text x="47" y="187.0" text-anchor="end" font-size="11" fill="#64748b">1</text><line x1="55" y1="112.5" x2="880" y2="112.5" stroke="#e2e8f0"/><text x="47" y="116.5" text-anchor="end" font-size="11" fill="#64748b">1</text><line x1="55" y1="42.0" x2="880" y2="42.0" stroke="#e2e8f0"/><text x="47" y="46.0" text-anchor="end" font-size="11" fill="#64748b">2</text><rect x="64.6" y="275.9" width="49.5" height="48.1" fill="#dc2626" opacity="0.86" rx="2"/><text x="89.4" y="269.9" text-anchor="middle" font-size="10.5" font-weight="700" fill="#334155">0.3</text><text x="89.4" y="364" text-anchor="middle" font-size="10" fill="#64748b" transform="rotate(-45 89.4,364)">1</text><rect x="133.4" y="134.8" width="49.5" height="189.2" fill="#dc2626" opacity="0.86" rx="2"/><text x="158.1" y="128.8" text-anchor="middle" font-size="10.5" font-weight="700" fill="#334155">1.1</text><rect x="202.1" y="239.4" width="49.5" height="84.6" fill="#dc2626" opacity="0.86" rx="2"/><text x="226.9" y="233.4" text-anchor="middle" font-size="10.5" font-weight="700" fill="#334155">0.5</text><text x="226.9" y="364" text-anchor="middle" font-size="10" fill="#64748b" transform="rotate(-45 226.9,364)">3</text><rect x="270.9" y="251.0" width="49.5" height="73.0" fill="#dc2626" opacity="0.86" rx="2"/><text x="295.6" y="245.0" text-anchor="middle" font-size="10.5" font-weight="700" fill="#334155">0.4</text><rect x="339.6" y="244.3" width="49.5" height="79.7" fill="#dc2626" opacity="0.86" rx="2"/><text x="364.4" y="238.3" text-anchor="middle" font-size="10.5" font-weight="700" fill="#334155">0.5</text><text x="364.4" y="364" text-anchor="middle" font-size="10" fill="#64748b" transform="rotate(-45 364.4,364)">5</text><rect x="408.4" y="85.0" width="49.5" height="239.0" fill="#dc2626" opacity="0.86" rx="2"/><text x="433.1" y="79.0" text-anchor="middle" font-size="10.5" font-weight="700" fill="#334155">1.4</text><rect x="477.1" y="113.2" width="49.5" height="210.8" fill="#dc2626" opacity="0.86" rx="2"/><text x="501.9" y="107.2" text-anchor="middle" font-size="10.5" font-weight="700" fill="#334155">1.3</text><text x="501.9" y="364" text-anchor="middle" font-size="10" fill="#64748b" transform="rotate(-45 501.9,364)">7</text><rect x="545.9" y="133.1" width="49.5" height="190.9" fill="#dc2626" opacity="0.86" rx="2"/><text x="570.6" y="127.1" text-anchor="middle" font-size="10.5" font-weight="700" fill="#334155">1.1</text><rect x="614.6" y="206.2" width="49.5" height="117.8" fill="#dc2626" opacity="0.86" rx="2"/><text x="639.4" y="200.2" text-anchor="middle" font-size="10.5" font-weight="700" fill="#334155">0.7</text><text x="639.4" y="364" text-anchor="middle" font-size="10" fill="#64748b" transform="rotate(-45 639.4,364)">9</text><rect x="683.4" y="181.3" width="49.5" height="142.7" fill="#dc2626" opacity="0.86" rx="2"/><text x="708.1" y="175.3" text-anchor="middle" font-size="10.5" font-weight="700" fill="#334155">0.9</text><rect x="752.1" y="227.7" width="49.5" height="96.3" fill="#dc2626" opacity="0.86" rx="2"/><text x="776.9" y="221.7" text-anchor="middle" font-size="10.5" font-weight="700" fill="#334155">0.6</text><text x="776.9" y="364" text-anchor="middle" font-size="10" fill="#64748b" transform="rotate(-45 776.9,364)">11</text><rect x="820.9" y="214.5" width="49.5" height="109.5" fill="#dc2626" opacity="0.86" rx="2"/><text x="845.6" y="208.5" text-anchor="middle" font-size="10.5" font-weight="700" fill="#334155">0.7</text></svg>