<svg viewBox="0 0 900 390" class="chart" role="img" aria-label="近十年相对1991—2020同月降水变化：月际差异明显"><rect width="900" height="390" fill="white" rx="16"/><text x="55" y="24" font-size="17" font-weight="700" fill="#0f172a">近十年相对1991—2020同月降水变化：月际差异明显</text><line x1="55" y1="324.0" x2="880" y2="324.0" stroke="#e2e8f0"/><text x="47" y="328.0" text-anchor="end" font-size="11" fill="#64748b">-8</text><line x1="55" y1="253.5" x2="880" y2="253.5" stroke="#e2e8f0"/><text x="47" y="257.5" text-anchor="end" font-size="11" fill="#64748b">0</text><line x1="55" y1="183.0" x2="880" y2="183.0" stroke="#e2e8f0"/><text x="47" y="187.0" text-anchor="end" font-size="11" fill="#64748b">9</text><line x1="55" y1="112.5" x2="880" y2="112.5" stroke="#e2e8f0"/><text x="47" y="116.5" text-anchor="end" font-size="11" fill="#64748b">17</text><line x1="55" y1="42.0" x2="880" y2="42.0" stroke="#e2e8f0"/><text x="47" y="46.0" text-anchor="end" font-size="11" fill="#64748b">25</text><rect x="64.6" y="237.3" width="49.5" height="20.0" fill="#2563eb" opacity="0.86" rx="2"/><text x="89.4" y="231.3" text-anchor="middle" font-size="10.5" font-weight="700" fill="#334155">2.3</text><text x="89.4" y="364" text-anchor="middle" font-size="10" fill="#64748b" transform="rotate(-45 89.4,364)">1</text><rect x="133.4" y="248.6" width="49.5" height="8.7" fill="#2563eb" opacity="0.86" rx="2"/><text x="158.1" y="242.6" text-anchor="middle" font-size="10.5" font-weight="700" fill="#334155">1.0</text><rect x="202.1" y="123.4" width="49.5" height="133.9" fill="#2563eb" opacity="0.86" rx="2"/><text x="226.9" y="117.4" text-anchor="middle" font-size="10.5" font-weight="700" fill="#334155">15</text><text x="226.9" y="364" text-anchor="middle" font-size="10" fill="#64748b" transform="rotate(-45 226.9,364)">3</text><rect x="270.9" y="101.7" width="49.5" height="155.7" fill="#2563eb" opacity="0.86" rx="2"/><text x="295.6" y="95.7" text-anchor="middle" font-size="10.5" font-weight="700" fill="#334155">18</text><rect x="339.6" y="199.9" width="49.5" height="57.4" fill="#2563eb" opacity="0.86" rx="2"/><text x="364.4" y="193.9" text-anchor="middle" font-size="10.5" font-weight="700" fill="#334155">6.6</text><text x="364.4" y="364" text-anchor="middle" font-size="10" fill="#64748b" transform="rotate(-45 364.4,364)">5</text><rect x="408.4" y="257.3" width="49.5" height="24.4" fill="#0d9488" opacity="0.86" rx="2"/><text x="433.1" y="295.7" text-anchor="middle" font-size="10.5" font-weight="700" fill="#334155">-2.8</text><rect x="477.1" y="139.1" width="49.5" height="118.3" fill="#2563eb" opacity="0.86" rx="2"/><text x="501.9" y="133.1" text-anchor="middle" font-size="10.5" font-weight="700" fill="#334155">14</text><text x="501.9" y="364" text-anchor="middle" font-size="10" fill="#64748b" transform="rotate(-45 501.9,364)">7</text><rect x="545.9" y="195.6" width="49.5" height="61.7" fill="#2563eb" opacity="0.86" rx="2"/><text x="570.6" y="189.6" text-anchor="middle" font-size="10.5" font-weight="700" fill="#334155">7.1</text><rect x="614.6" y="82.5" width="49.5" height="174.8" fill="#2563eb" opacity="0.86" rx="2"/><text x="639.4" y="76.5" text-anchor="middle" font-size="10.5" font-weight="700" fill="#334155">20</text><text x="639.4" y="364" text-anchor="middle" font-size="10" fill="#64748b" transform="rotate(-45 639.4,364)">9</text><rect x="683.4" y="153.9" width="49.5" height="103.5" fill="#2563eb" opacity="0.86" rx="2"/><text x="708.1" y="147.9" text-anchor="middle" font-size="10.5" font-weight="700" fill="#334155">12</text><rect x="752.1" y="257.3" width="49.5" height="50.4" fill="#0d9488" opacity="0.86" rx="2"/><text x="776.9" y="321.8" text-anchor="middle" font-size="10.5" font-weight="700" fill="#334155">-5.8</text><text x="776.9" y="364" text-anchor="middle" font-size="10" fill="#64748b" transform="rotate(-45 776.9,364)">11</text><rect x="820.9" y="257.3" width="49.5" height="12.2" fill="#0d9488" opacity="0.86" rx="2"/><text x="845.6" y="283.5" text-anchor="middle" font-size="10.5" font-weight="700" fill="#334155">-1.4</text></svg>