<svg viewBox="0 0 920 699" class="chart heatmap" role="img" aria-label="月度气温距平热力图：红色代表比基准期偏热"><rect width="920" height="699" fill="white" rx="16"/><text x="55" y="25" font-size="17" font-weight="700" fill="#0f172a">月度气温距平热力图：红色代表比基准期偏热</text><text x="90.2" y="40" text-anchor="middle" font-size="10" fill="#64748b">1月</text><text x="160.6" y="40" text-anchor="middle" font-size="10" fill="#64748b">2月</text><text x="231.0" y="40" text-anchor="middle" font-size="10" fill="#64748b">3月</text><text x="301.5" y="40" text-anchor="middle" font-size="10" fill="#64748b">4月</text><text x="371.9" y="40" text-anchor="middle" font-size="10" fill="#64748b">5月</text><text x="442.3" y="40" text-anchor="middle" font-size="10" fill="#64748b">6月</text><text x="512.7" y="40" text-anchor="middle" font-size="10" fill="#64748b">7月</text><text x="583.1" y="40" text-anchor="middle" font-size="10" fill="#64748b">8月</text><text x="653.5" y="40" text-anchor="middle" font-size="10" fill="#64748b">9月</text><text x="724.0" y="40" text-anchor="middle" font-size="10" fill="#64748b">10月</text><text x="794.4" y="40" text-anchor="middle" font-size="10" fill="#64748b">11月</text><text x="864.8" y="40" text-anchor="middle" font-size="10" fill="#64748b">12月</text><text x="47" y="57.2" text-anchor="end" font-size="10" fill="#64748b">1990</text><rect x="55.0" y="45.0" width="69.4" height="16.0" fill="#ffe9e5"><title>1990-01: 0.4</title></rect><rect x="125.4" y="45.0" width="69.4" height="16.0" fill="#ff9e7a"><title>1990-02: 3.1</title></rect><rect x="195.8" y="45.0" width="69.4" height="16.0" fill="#ffe4dd"><title>1990-03: 0.6</title></rect><rect x="266.2" y="45.0" width="69.4" height="16.0" fill="#cddeff"><title>1990-04: -1.0</title></rect><rect x="336.7" y="45.0" width="69.4" height="16.0" fill="#ffe9e5"><title>1990-05: 0.4</title></rect><rect x="407.1" y="45.0" width="69.4" height="16.0" fill="#d7e6ff"><title>1990-06: -0.7</title></rect><rect x="477.5" y="45.0" width="69.4" height="16.0" fill="#ffefed"><title>1990-07: 0.2</title></rect><rect x="547.9" y="45.0" width="69.4" height="16.0" fill="#ffefed"><title>1990-08: 0.2</title></rect><rect x="618.3" y="45.0" width="69.4" height="16.0" fill="#ffdbd1"><title>1990-09: 0.9</title></rect><rect x="688.8" y="45.0" width="69.4" height="16.0" fill="#ffe4dd"><title>1990-10: 0.6</title></rect><rect x="759.2" y="45.0" width="69.4" height="16.0" fill="#d0e0ff"><title>1990-11: -0.9</title></rect><rect x="829.6" y="45.0" width="69.4" height="16.0" fill="#9fbdff"><title>1990-12: -2.3</title></rect><text x="47" y="74.2" text-anchor="end" font-size="10" fill="#64748b">1991</text><rect x="55.0" y="62.0" width="69.4" height="16.0" fill="#e9f2ff"><title>1991-01: -0.2</title></rect><rect x="125.4" y="62.0" width="69.4" height="16.0" fill="#d0e0ff"><title>1991-02: -0.9</title></rect><rect x="195.8" y="62.0" width="69.4" height="16.0" fill="#ffe7e1"><title>1991-03: 0.5</title></rect><rect x="266.2" y="62.0" width="69.4" height="16.0" fill="#b8cfff"><title>1991-04: -1.6</title></rect><rect x="336.7" y="62.0" width="69.4" height="16.0" fill="#8eb0ff"><title>1991-05: -2.8</title></rect><rect x="407.1" y="62.0" width="69.4" height="16.0" fill="#b1c9ff"><title>1991-06: -1.8</title></rect><rect x="477.5" y="62.0" width="69.4" height="16.0" fill="#ecf5ff"><title>1991-07: -0.1</title></rect><rect x="547.9" y="62.0" width="69.4" height="16.0" fill="#ffe9e5"><title>1991-08: 0.4</title></rect><rect x="618.3" y="62.0" width="69.4" height="16.0" fill="#ffcdbd"><title>1991-09: 1.4</title></rect><rect x="688.8" y="62.0" width="69.4" height="16.0" fill="#adc7ff"><title>1991-10: -1.9</title></rect><rect x="759.2" y="62.0" width="69.4" height="16.0" fill="#d0e0ff"><title>1991-11: -0.9</title></rect><rect x="829.6" y="62.0" width="69.4" height="16.0" fill="#e2edff"><title>1991-12: -0.4</title></rect><text x="47" y="91.2" text-anchor="end" font-size="10" fill="#64748b">1992</text><rect x="55.0" y="79.0" width="69.4" height="16.0" fill="#bbd1ff"><title>1992-01: -1.5</title></rect><rect x="125.4" y="79.0" width="69.4" height="16.0" fill="#d7e6ff"><title>1992-02: -0.7</title></rect><rect x="195.8" y="79.0" width="69.4" height="16.0" fill="#e2edff"><title>1992-03: -0.4</title></rect><rect x="266.2" y="79.0" width="69.4" height="16.0" fill="#e2edff"><title>1992-04: -0.4</title></rect><rect x="336.7" y="79.0" width="69.4" height="16.0" fill="#ffefed"><title>1992-05: 0.2</title></rect><rect x="407.1" y="79.0" width="69.4" height="16.0" fill="#83a8ff"><title>1992-06: -3.1</title></rect><rect x="477.5" y="79.0" width="69.4" height="16.0" fill="#b8cfff"><title>1992-07: -1.6</title></rect><rect x="547.9" y="79.0" width="69.4" height="16.0" fill="#ffece9"><title>1992-08: 0.3</title></rect><rect x="618.3" y="79.0" width="69.4" height="16.0" fill="#ecf5ff"><title>1992-09: -0.1</title></rect><rect x="688.8" y="79.0" width="69.4" height="16.0" fill="#adc7ff"><title>1992-10: -1.9</title></rect><rect x="759.2" y="79.0" width="69.4" height="16.0" fill="#ffefed"><title>1992-11: 0.2</title></rect><rect x="829.6" y="79.0" width="69.4" height="16.0" fill="#ffe1d9"><title>1992-12: 0.7</title></rect><text x="47" y="108.2" text-anchor="end" font-size="10" fill="#64748b">1993</text><rect x="55.0" y="96.0" width="69.4" height="16.0" fill="#d4e3ff"><title>1993-01: -0.8</title></rect><rect x="125.4" y="96.0" width="69.4" height="16.0" fill="#dbe8ff"><title>1993-02: -0.6</title></rect><rect x="195.8" y="96.0" width="69.4" height="16.0" fill="#cddeff"><title>1993-03: -1.0</title></rect><rect x="266.2" y="96.0" width="69.4" height="16.0" fill="#d0e0ff"><title>1993-04: -0.9</title></rect><rect x="336.7" y="96.0" width="69.4" height="16.0" fill="#d4e3ff"><title>1993-05: -0.8</title></rect><rect x="407.1" y="96.0" width="69.4" height="16.0" fill="#e9f2ff"><title>1993-06: -0.2</title></rect><rect x="477.5" y="96.0" width="69.4" height="16.0" fill="#b1c9ff"><title>1993-07: -1.8</title></rect><rect x="547.9" y="96.0" width="69.4" height="16.0" fill="#deebff"><title>1993-08: -0.5</title></rect><rect x="618.3" y="96.0" width="69.4" height="16.0" fill="#c9dbff"><title>1993-09: -1.1</title></rect><rect x="688.8" y="96.0" width="69.4" height="16.0" fill="#aac4ff"><title>1993-10: -2.0</title></rect><rect x="759.2" y="96.0" width="69.4" height="16.0" fill="#c9dbff"><title>1993-11: -1.1</title></rect><rect x="829.6" y="96.0" width="69.4" height="16.0" fill="#fff5f5"><title>1993-12: 0.0</title></rect><text x="47" y="125.2" text-anchor="end" font-size="10" fill="#64748b">1994</text><rect x="55.0" y="113.0" width="69.4" height="16.0" fill="#e2edff"><title>1994-01: -0.4</title></rect><rect x="125.4" y="113.0" width="69.4" height="16.0" fill="#fff5f5"><title>1994-02: 0.0</title></rect><rect x="195.8" y="113.0" width="69.4" height="16.0" fill="#ffdbd1"><title>1994-03: 0.9</title></rect><rect x="266.2" y="113.0" width="69.4" height="16.0" fill="#deebff"><title>1994-04: -0.5</title></rect><rect x="336.7" y="113.0" width="69.4" height="16.0" fill="#ffefed"><title>1994-05: 0.2</title></rect><rect x="407.1" y="113.0" width="69.4" height="16.0" fill="#e5f0ff"><title>1994-06: -0.3</title></rect><rect x="477.5" y="113.0" width="69.4" height="16.0" fill="#ffd3c5"><title>1994-07: 1.2</title></rect><rect x="547.9" y="113.0" width="69.4" height="16.0" fill="#ffd6c9"><title>1994-08: 1.1</title></rect><rect x="618.3" y="113.0" width="69.4" height="16.0" fill="#d7e6ff"><title>1994-09: -0.7</title></rect><rect x="688.8" y="113.0" width="69.4" height="16.0" fill="#deebff"><title>1994-10: -0.5</title></rect><rect x="759.2" y="113.0" width="69.4" height="16.0" fill="#ffcbb9"><title>1994-11: 1.5</title></rect><rect x="829.6" y="113.0" width="69.4" height="16.0" fill="#ffe1d9"><title>1994-12: 0.7</title></rect><text x="47" y="142.2" text-anchor="end" font-size="10" fill="#64748b">1995</text><rect x="55.0" y="130.0" width="69.4" height="16.0" fill="#fff2f1"><title>1995-01: 0.1</title></rect><rect x="125.4" y="130.0" width="69.4" height="16.0" fill="#ffc5b1"><title>1995-02: 1.7</title></rect><rect x="195.8" y="130.0" width="69.4" height="16.0" fill="#deebff"><title>1995-03: -0.5</title></rect><rect x="266.2" y="130.0" width="69.4" height="16.0" fill="#e5f0ff"><title>1995-04: -0.3</title></rect><rect x="336.7" y="130.0" width="69.4" height="16.0" fill="#dbe8ff"><title>1995-05: -0.6</title></rect><rect x="407.1" y="130.0" width="69.4" height="16.0" fill="#b8cfff"><title>1995-06: -1.6</title></rect><rect x="477.5" y="130.0" width="69.4" height="16.0" fill="#ffece9"><title>1995-07: 0.3</title></rect><rect x="547.9" y="130.0" width="69.4" height="16.0" fill="#dbe8ff"><title>1995-08: -0.6</title></rect><rect x="618.3" y="130.0" width="69.4" height="16.0" fill="#a6c2ff"><title>1995-09: -2.1</title></rect><rect x="688.8" y="130.0" width="69.4" height="16.0" fill="#ffe1d9"><title>1995-10: 0.7</title></rect><rect x="759.2" y="130.0" width="69.4" height="16.0" fill="#ffded5"><title>1995-11: 0.8</title></rect><rect x="829.6" y="130.0" width="69.4" height="16.0" fill="#ffcdbd"><title>1995-12: 1.4</title></rect><text x="47" y="159.2" text-anchor="end" font-size="10" fill="#64748b">1996</text><rect x="55.0" y="147.0" width="69.4" height="16.0" fill="#ffbaa1"><title>1996-01: 2.1</title></rect><rect x="125.4" y="147.0" width="69.4" height="16.0" fill="#d0e0ff"><title>1996-02: -0.9</title></rect><rect x="195.8" y="147.0" width="69.4" height="16.0" fill="#d0e0ff"><title>1996-03: -0.9</title></rect><rect x="266.2" y="147.0" width="69.4" height="16.0" fill="#deebff"><title>1996-04: -0.5</title></rect><rect x="336.7" y="147.0" width="69.4" height="16.0" fill="#c6d9ff"><title>1996-05: -1.2</title></rect><rect x="407.1" y="147.0" width="69.4" height="16.0" fill="#d7e6ff"><title>1996-06: -0.7</title></rect><rect x="477.5" y="147.0" width="69.4" height="16.0" fill="#cddeff"><title>1996-07: -1.0</title></rect><rect x="547.9" y="147.0" width="69.4" height="16.0" fill="#b8cfff"><title>1996-08: -1.6</title></rect><rect x="618.3" y="147.0" width="69.4" height="16.0" fill="#9fbdff"><title>1996-09: -2.3</title></rect><rect x="688.8" y="147.0" width="69.4" height="16.0" fill="#bfd4ff"><title>1996-10: -1.4</title></rect><rect x="759.2" y="147.0" width="69.4" height="16.0" fill="#fff5f5"><title>1996-11: 0.0</title></rect><rect x="829.6" y="147.0" width="69.4" height="16.0" fill="#ffdbd1"><title>1996-12: 0.9</title></rect><text x="47" y="176.2" text-anchor="end" font-size="10" fill="#64748b">1997</text><rect x="55.0" y="164.0" width="69.4" height="16.0" fill="#ffe4dd"><title>1997-01: 0.6</title></rect><rect x="125.4" y="164.0" width="69.4" height="16.0" fill="#ffd3c5"><title>1997-02: 1.2</title></rect><rect x="195.8" y="164.0" width="69.4" height="16.0" fill="#ffd6c9"><title>1997-03: 1.1</title></rect><rect x="266.2" y="164.0" width="69.4" height="16.0" fill="#ffece9"><title>1997-04: 0.3</title></rect><rect x="336.7" y="164.0" width="69.4" height="16.0" fill="#ffe1d9"><title>1997-05: 0.7</title></rect><rect x="407.1" y="164.0" width="69.4" height="16.0" fill="#d7e6ff"><title>1997-06: -0.7</title></rect><rect x="477.5" y="164.0" width="69.4" height="16.0" fill="#b8cfff"><title>1997-07: -1.6</title></rect><rect x="547.9" y="164.0" width="69.4" height="16.0" fill="#ffefed"><title>1997-08: 0.2</title></rect><rect x="618.3" y="164.0" width="69.4" height="16.0" fill="#ffe9e5"><title>1997-09: 0.4</title></rect><rect x="688.8" y="164.0" width="69.4" height="16.0" fill="#ffcdbd"><title>1997-10: 1.4</title></rect><rect x="759.2" y="164.0" width="69.4" height="16.0" fill="#ffe1d9"><title>1997-11: 0.7</title></rect><rect x="829.6" y="164.0" width="69.4" height="16.0" fill="#ffece9"><title>1997-12: 0.3</title></rect><text x="47" y="193.2" text-anchor="end" font-size="10" fill="#64748b">1998</text><rect x="55.0" y="181.0" width="69.4" height="16.0" fill="#ffdbd1"><title>1998-01: 0.9</title></rect><rect x="125.4" y="181.0" width="69.4" height="16.0" fill="#ffd6c9"><title>1998-02: 1.1</title></rect><rect x="195.8" y="181.0" width="69.4" height="16.0" fill="#ffe9e5"><title>1998-03: 0.4</title></rect><rect x="266.2" y="181.0" width="69.4" height="16.0" fill="#fff2f1"><title>1998-04: 0.1</title></rect><rect x="336.7" y="181.0" width="69.4" height="16.0" fill="#ecf5ff"><title>1998-05: -0.1</title></rect><rect x="407.1" y="181.0" width="69.4" height="16.0" fill="#e9f2ff"><title>1998-06: -0.2</title></rect><rect x="477.5" y="181.0" width="69.4" height="16.0" fill="#fff5f5"><title>1998-07: 0.0</title></rect><rect x="547.9" y="181.0" width="69.4" height="16.0" fill="#ffefed"><title>1998-08: 0.2</title></rect><rect x="618.3" y="181.0" width="69.4" height="16.0" fill="#ffefed"><title>1998-09: 0.2</title></rect><rect x="688.8" y="181.0" width="69.4" height="16.0" fill="#c9dbff"><title>1998-10: -1.1</title></rect><rect x="759.2" y="181.0" width="69.4" height="16.0" fill="#c2d6ff"><title>1998-11: -1.3</title></rect><rect x="829.6" y="181.0" width="69.4" height="16.0" fill="#dbe8ff"><title>1998-12: -0.6</title></rect><text x="47" y="210.2" text-anchor="end" font-size="10" fill="#64748b">1999</text><rect x="55.0" y="198.0" width="69.4" height="16.0" fill="#ecf5ff"><title>1999-01: -0.1</title></rect><rect x="125.4" y="198.0" width="69.4" height="16.0" fill="#d0e0ff"><title>1999-02: -0.9</title></rect><rect x="195.8" y="198.0" width="69.4" height="16.0" fill="#fff5f5"><title>1999-03: 0.0</title></rect><rect x="266.2" y="198.0" width="69.4" height="16.0" fill="#ecf5ff"><title>1999-04: -0.1</title></rect><rect x="336.7" y="198.0" width="69.4" height="16.0" fill="#ffd6c9"><title>1999-05: 1.1</title></rect><rect x="407.1" y="198.0" width="69.4" height="16.0" fill="#dbe8ff"><title>1999-06: -0.6</title></rect><rect x="477.5" y="198.0" width="69.4" height="16.0" fill="#e2edff"><title>1999-07: -0.4</title></rect><rect x="547.9" y="198.0" width="69.4" height="16.0" fill="#ffece9"><title>1999-08: 0.3</title></rect><rect x="618.3" y="198.0" width="69.4" height="16.0" fill="#ffded5"><title>1999-09: 0.8</title></rect><rect x="688.8" y="198.0" width="69.4" height="16.0" fill="#ffefed"><title>1999-10: 0.2</title></rect><rect x="759.2" y="198.0" width="69.4" height="16.0" fill="#aac4ff"><title>1999-11: -2.0</title></rect><rect x="829.6" y="198.0" width="69.4" height="16.0" fill="#deebff"><title>1999-12: -0.5</title></rect><text x="47" y="227.2" text-anchor="end" font-size="10" fill="#64748b">2000</text><rect x="55.0" y="215.0" width="69.4" height="16.0" fill="#bbd1ff"><title>2000-01: -1.5</title></rect><rect x="125.4" y="215.0" width="69.4" height="16.0" fill="#ffd6c9"><title>2000-02: 1.1</title></rect><rect x="195.8" y="215.0" width="69.4" height="16.0" fill="#ffece9"><title>2000-03: 0.3</title></rect><rect x="266.2" y="215.0" width="69.4" height="16.0" fill="#e5f0ff"><title>2000-04: -0.3</title></rect><rect x="336.7" y="215.0" width="69.4" height="16.0" fill="#ffdbd1"><title>2000-05: 0.9</title></rect><rect x="407.1" y="215.0" width="69.4" height="16.0" fill="#deebff"><title>2000-06: -0.5</title></rect><rect x="477.5" y="215.0" width="69.4" height="16.0" fill="#b8cfff"><title>2000-07: -1.6</title></rect><rect x="547.9" y="215.0" width="69.4" height="16.0" fill="#e9f2ff"><title>2000-08: -0.2</title></rect><rect x="618.3" y="215.0" width="69.4" height="16.0" fill="#fff2f1"><title>2000-09: 0.1</title></rect><rect x="688.8" y="215.0" width="69.4" height="16.0" fill="#d4e3ff"><title>2000-10: -0.8</title></rect><rect x="759.2" y="215.0" width="69.4" height="16.0" fill="#d4e3ff"><title>2000-11: -0.8</title></rect><rect x="829.6" y="215.0" width="69.4" height="16.0" fill="#ffd0c1"><title>2000-12: 1.3</title></rect><text x="47" y="244.2" text-anchor="end" font-size="10" fill="#64748b">2001</text><rect x="55.0" y="232.0" width="69.4" height="16.0" fill="#ffd9cd"><title>2001-01: 1.0</title></rect><rect x="125.4" y="232.0" width="69.4" height="16.0" fill="#ffefed"><title>2001-02: 0.2</title></rect><rect x="195.8" y="232.0" width="69.4" height="16.0" fill="#ffb296"><title>2001-03: 2.4</title></rect><rect x="266.2" y="232.0" width="69.4" height="16.0" fill="#fff2f1"><title>2001-04: 0.1</title></rect><rect x="336.7" y="232.0" width="69.4" height="16.0" fill="#ffefed"><title>2001-05: 0.2</title></rect><rect x="407.1" y="232.0" width="69.4" height="16.0" fill="#fff2f1"><title>2001-06: 0.1</title></rect><rect x="477.5" y="232.0" width="69.4" height="16.0" fill="#d7e6ff"><title>2001-07: -0.7</title></rect><rect x="547.9" y="232.0" width="69.4" height="16.0" fill="#ffe9e5"><title>2001-08: 0.4</title></rect><rect x="618.3" y="232.0" width="69.4" height="16.0" fill="#c6d9ff"><title>2001-09: -1.2</title></rect><rect x="688.8" y="232.0" width="69.4" height="16.0" fill="#ffc8b5"><title>2001-10: 1.6</title></rect><rect x="759.2" y="232.0" width="69.4" height="16.0" fill="#c2d6ff"><title>2001-11: -1.3</title></rect><rect x="829.6" y="232.0" width="69.4" height="16.0" fill="#79a1ff"><title>2001-12: -3.4</title></rect><text x="47" y="261.2" text-anchor="end" font-size="10" fill="#64748b">2002</text><rect x="55.0" y="249.0" width="69.4" height="16.0" fill="#ecf5ff"><title>2002-01: -0.1</title></rect><rect x="125.4" y="249.0" width="69.4" height="16.0" fill="#ffe4dd"><title>2002-02: 0.6</title></rect><rect x="195.8" y="249.0" width="69.4" height="16.0" fill="#ffe4dd"><title>2002-03: 0.6</title></rect><rect x="266.2" y="249.0" width="69.4" height="16.0" fill="#fff5f5"><title>2002-04: 0.0</title></rect><rect x="336.7" y="249.0" width="69.4" height="16.0" fill="#bfd4ff"><title>2002-05: -1.4</title></rect><rect x="407.1" y="249.0" width="69.4" height="16.0" fill="#fff5f5"><title>2002-06: 0.0</title></rect><rect x="477.5" y="249.0" width="69.4" height="16.0" fill="#c6d9ff"><title>2002-07: -1.2</title></rect><rect x="547.9" y="249.0" width="69.4" height="16.0" fill="#a3bfff"><title>2002-08: -2.2</title></rect><rect x="618.3" y="249.0" width="69.4" height="16.0" fill="#d0e0ff"><title>2002-09: -0.9</title></rect><rect x="688.8" y="249.0" width="69.4" height="16.0" fill="#ecf5ff"><title>2002-10: -0.1</title></rect><rect x="759.2" y="249.0" width="69.4" height="16.0" fill="#ffe1d9"><title>2002-11: 0.7</title></rect><rect x="829.6" y="249.0" width="69.4" height="16.0" fill="#ffdbd1"><title>2002-12: 0.9</title></rect><text x="47" y="278.2" text-anchor="end" font-size="10" fill="#64748b">2003</text><rect x="55.0" y="266.0" width="69.4" height="16.0" fill="#d7e6ff"><title>2003-01: -0.7</title></rect><rect x="125.4" y="266.0" width="69.4" height="16.0" fill="#c9dbff"><title>2003-02: -1.1</title></rect><rect x="195.8" y="266.0" width="69.4" height="16.0" fill="#ecf5ff"><title>2003-03: -0.1</title></rect><rect x="266.2" y="266.0" width="69.4" height="16.0" fill="#ecf5ff"><title>2003-04: -0.1</title></rect><rect x="336.7" y="266.0" width="69.4" height="16.0" fill="#ffe9e5"><title>2003-05: 0.4</title></rect><rect x="407.1" y="266.0" width="69.4" height="16.0" fill="#ffa482"><title>2003-06: 2.9</title></rect><rect x="477.5" y="266.0" width="69.4" height="16.0" fill="#ffcdbd"><title>2003-07: 1.4</title></rect><rect x="547.9" y="266.0" width="69.4" height="16.0" fill="#ffaf92"><title>2003-08: 2.5</title></rect><rect x="618.3" y="266.0" width="69.4" height="16.0" fill="#fff5f5"><title>2003-09: 0.0</title></rect><rect x="688.8" y="266.0" width="69.4" height="16.0" fill="#c9dbff"><title>2003-10: -1.1</title></rect><rect x="759.2" y="266.0" width="69.4" height="16.0" fill="#ffded5"><title>2003-11: 0.8</title></rect><rect x="829.6" y="266.0" width="69.4" height="16.0" fill="#fff5f5"><title>2003-12: 0.0</title></rect><text x="47" y="295.2" text-anchor="end" font-size="10" fill="#64748b">2004</text><rect x="55.0" y="283.0" width="69.4" height="16.0" fill="#ffe7e1"><title>2004-01: 0.5</title></rect><rect x="125.4" y="283.0" width="69.4" height="16.0" fill="#e5f0ff"><title>2004-02: -0.3</title></rect><rect x="195.8" y="283.0" width="69.4" height="16.0" fill="#c6d9ff"><title>2004-03: -1.2</title></rect><rect x="266.2" y="283.0" width="69.4" height="16.0" fill="#c6d9ff"><title>2004-04: -1.2</title></rect><rect x="336.7" y="283.0" width="69.4" height="16.0" fill="#b8cfff"><title>2004-05: -1.6</title></rect><rect x="407.1" y="283.0" width="69.4" height="16.0" fill="#fff5f5"><title>2004-06: 0.0</title></rect><rect x="477.5" y="283.0" width="69.4" height="16.0" fill="#d0e0ff"><title>2004-07: -0.9</title></rect><rect x="547.9" y="283.0" width="69.4" height="16.0" fill="#fff2f1"><title>2004-08: 0.1</title></rect><rect x="618.3" y="283.0" width="69.4" height="16.0" fill="#ffe7e1"><title>2004-09: 0.5</title></rect><rect x="688.8" y="283.0" width="69.4" height="16.0" fill="#ffd9cd"><title>2004-10: 1.0</title></rect><rect x="759.2" y="283.0" width="69.4" height="16.0" fill="#cddeff"><title>2004-11: -1.0</title></rect><rect x="829.6" y="283.0" width="69.4" height="16.0" fill="#ffe4dd"><title>2004-12: 0.6</title></rect><text x="47" y="312.2" text-anchor="end" font-size="10" fill="#64748b">2005</text><rect x="55.0" y="300.0" width="69.4" height="16.0" fill="#b4ccff"><title>2005-01: -1.7</title></rect><rect x="125.4" y="300.0" width="69.4" height="16.0" fill="#9cbaff"><title>2005-02: -2.4</title></rect><rect x="195.8" y="300.0" width="69.4" height="16.0" fill="#bfd4ff"><title>2005-03: -1.4</title></rect><rect x="266.2" y="300.0" width="69.4" height="16.0" fill="#fff5f5"><title>2005-04: 0.0</title></rect><rect x="336.7" y="300.0" width="69.4" height="16.0" fill="#ffded5"><title>2005-05: 0.8</title></rect><rect x="407.1" y="300.0" width="69.4" height="16.0" fill="#ffc8b5"><title>2005-06: 1.6</title></rect><rect x="477.5" y="300.0" width="69.4" height="16.0" fill="#ffefed"><title>2005-07: 0.2</title></rect><rect x="547.9" y="300.0" width="69.4" height="16.0" fill="#c9dbff"><title>2005-08: -1.1</title></rect><rect x="618.3" y="300.0" width="69.4" height="16.0" fill="#dbe8ff"><title>2005-09: -0.6</title></rect><rect x="688.8" y="300.0" width="69.4" height="16.0" fill="#ffefed"><title>2005-10: 0.2</title></rect><rect x="759.2" y="300.0" width="69.4" height="16.0" fill="#deebff"><title>2005-11: -0.5</title></rect><rect x="829.6" y="300.0" width="69.4" height="16.0" fill="#91b2ff"><title>2005-12: -2.7</title></rect><text x="47" y="329.2" text-anchor="end" font-size="10" fill="#64748b">2006</text><rect x="55.0" y="317.0" width="69.4" height="16.0" fill="#d7e6ff"><title>2006-01: -0.7</title></rect><rect x="125.4" y="317.0" width="69.4" height="16.0" fill="#deebff"><title>2006-02: -0.5</title></rect><rect x="195.8" y="317.0" width="69.4" height="16.0" fill="#fff5f5"><title>2006-03: 0.0</title></rect><rect x="266.2" y="317.0" width="69.4" height="16.0" fill="#ffe1d9"><title>2006-04: 0.7</title></rect><rect x="336.7" y="317.0" width="69.4" height="16.0" fill="#ffdbd1"><title>2006-05: 0.9</title></rect><rect x="407.1" y="317.0" width="69.4" height="16.0" fill="#ffece9"><title>2006-06: 0.3</title></rect><rect x="477.5" y="317.0" width="69.4" height="16.0" fill="#ffb49a"><title>2006-07: 2.3</title></rect><rect x="547.9" y="317.0" width="69.4" height="16.0" fill="#b8cfff"><title>2006-08: -1.6</title></rect><rect x="618.3" y="317.0" width="69.4" height="16.0" fill="#ffe1d9"><title>2006-09: 0.7</title></rect><rect x="688.8" y="317.0" width="69.4" height="16.0" fill="#ffc5b1"><title>2006-10: 1.7</title></rect><rect x="759.2" y="317.0" width="69.4" height="16.0" fill="#ffb79e"><title>2006-11: 2.2</title></rect><rect x="829.6" y="317.0" width="69.4" height="16.0" fill="#ffe9e5"><title>2006-12: 0.4</title></rect><text x="47" y="346.2" text-anchor="end" font-size="10" fill="#64748b">2007</text><rect x="55.0" y="334.0" width="69.4" height="16.0" fill="#ffe9e5"><title>2007-01: 0.4</title></rect><rect x="125.4" y="334.0" width="69.4" height="16.0" fill="#ffc2ad"><title>2007-02: 1.8</title></rect><rect x="195.8" y="334.0" width="69.4" height="16.0" fill="#ffe9e5"><title>2007-03: 0.4</title></rect><rect x="266.2" y="334.0" width="69.4" height="16.0" fill="#ffd9cd"><title>2007-04: 1.0</title></rect><rect x="336.7" y="334.0" width="69.4" height="16.0" fill="#ffd6c9"><title>2007-05: 1.1</title></rect><rect x="407.1" y="334.0" width="69.4" height="16.0" fill="#ffe9e5"><title>2007-06: 0.4</title></rect><rect x="477.5" y="334.0" width="69.4" height="16.0" fill="#dbe8ff"><title>2007-07: -0.6</title></rect><rect x="547.9" y="334.0" width="69.4" height="16.0" fill="#bfd4ff"><title>2007-08: -1.4</title></rect><rect x="618.3" y="334.0" width="69.4" height="16.0" fill="#d7e6ff"><title>2007-09: -0.7</title></rect><rect x="688.8" y="334.0" width="69.4" height="16.0" fill="#deebff"><title>2007-10: -0.5</title></rect><rect x="759.2" y="334.0" width="69.4" height="16.0" fill="#bfd4ff"><title>2007-11: -1.4</title></rect><rect x="829.6" y="334.0" width="69.4" height="16.0" fill="#d7e6ff"><title>2007-12: -0.7</title></rect><text x="47" y="363.2" text-anchor="end" font-size="10" fill="#64748b">2008</text><rect x="55.0" y="351.0" width="69.4" height="16.0" fill="#ffdbd1"><title>2008-01: 0.9</title></rect><rect x="125.4" y="351.0" width="69.4" height="16.0" fill="#ffdbd1"><title>2008-02: 0.9</title></rect><rect x="195.8" y="351.0" width="69.4" height="16.0" fill="#ecf5ff"><title>2008-03: -0.1</title></rect><rect x="266.2" y="351.0" width="69.4" height="16.0" fill="#fff2f1"><title>2008-04: 0.1</title></rect><rect x="336.7" y="351.0" width="69.4" height="16.0" fill="#dbe8ff"><title>2008-05: -0.6</title></rect><rect x="407.1" y="351.0" width="69.4" height="16.0" fill="#c9dbff"><title>2008-06: -1.1</title></rect><rect x="477.5" y="351.0" width="69.4" height="16.0" fill="#deebff"><title>2008-07: -0.5</title></rect><rect x="547.9" y="351.0" width="69.4" height="16.0" fill="#fff5f5"><title>2008-08: 0.0</title></rect><rect x="618.3" y="351.0" width="69.4" height="16.0" fill="#e5f0ff"><title>2008-09: -0.3</title></rect><rect x="688.8" y="351.0" width="69.4" height="16.0" fill="#e5f0ff"><title>2008-10: -0.3</title></rect><rect x="759.2" y="351.0" width="69.4" height="16.0" fill="#bfd4ff"><title>2008-11: -1.4</title></rect><rect x="829.6" y="351.0" width="69.4" height="16.0" fill="#c6d9ff"><title>2008-12: -1.2</title></rect><text x="47" y="380.2" text-anchor="end" font-size="10" fill="#64748b">2009</text><rect x="55.0" y="368.0" width="69.4" height="16.0" fill="#dbe8ff"><title>2009-01: -0.6</title></rect><rect x="125.4" y="368.0" width="69.4" height="16.0" fill="#e5f0ff"><title>2009-02: -0.3</title></rect><rect x="195.8" y="368.0" width="69.4" height="16.0" fill="#deebff"><title>2009-03: -0.5</title></rect><rect x="266.2" y="368.0" width="69.4" height="16.0" fill="#dbe8ff"><title>2009-04: -0.6</title></rect><rect x="336.7" y="368.0" width="69.4" height="16.0" fill="#ffd3c5"><title>2009-05: 1.2</title></rect><rect x="407.1" y="368.0" width="69.4" height="16.0" fill="#ffdbd1"><title>2009-06: 0.9</title></rect><rect x="477.5" y="368.0" width="69.4" height="16.0" fill="#ffece9"><title>2009-07: 0.3</title></rect><rect x="547.9" y="368.0" width="69.4" height="16.0" fill="#ffd6c9"><title>2009-08: 1.1</title></rect><rect x="618.3" y="368.0" width="69.4" height="16.0" fill="#ffefed"><title>2009-09: 0.2</title></rect><rect x="688.8" y="368.0" width="69.4" height="16.0" fill="#ffe1d9"><title>2009-10: 0.7</title></rect><rect x="759.2" y="368.0" width="69.4" height="16.0" fill="#ffd3c5"><title>2009-11: 1.2</title></rect><rect x="829.6" y="368.0" width="69.4" height="16.0" fill="#fff2f1"><title>2009-12: 0.1</title></rect><text x="47" y="397.2" text-anchor="end" font-size="10" fill="#64748b">2010</text><rect x="55.0" y="385.0" width="69.4" height="16.0" fill="#d7e6ff"><title>2010-01: -0.7</title></rect><rect x="125.4" y="385.0" width="69.4" height="16.0" fill="#d4e3ff"><title>2010-02: -0.8</title></rect><rect x="195.8" y="385.0" width="69.4" height="16.0" fill="#b4ccff"><title>2010-03: -1.7</title></rect><rect x="266.2" y="385.0" width="69.4" height="16.0" fill="#e9f2ff"><title>2010-04: -0.2</title></rect><rect x="336.7" y="385.0" width="69.4" height="16.0" fill="#bbd1ff"><title>2010-05: -1.5</title></rect><rect x="407.1" y="385.0" width="69.4" height="16.0" fill="#d0e0ff"><title>2010-06: -0.9</title></rect><rect x="477.5" y="385.0" width="69.4" height="16.0" fill="#ffd9cd"><title>2010-07: 1.0</title></rect><rect x="547.9" y="385.0" width="69.4" height="16.0" fill="#deebff"><title>2010-08: -0.5</title></rect><rect x="618.3" y="385.0" width="69.4" height="16.0" fill="#fff5f5"><title>2010-09: 0.0</title></rect><rect x="688.8" y="385.0" width="69.4" height="16.0" fill="#d0e0ff"><title>2010-10: -0.9</title></rect><rect x="759.2" y="385.0" width="69.4" height="16.0" fill="#bbd1ff"><title>2010-11: -1.5</title></rect><rect x="829.6" y="385.0" width="69.4" height="16.0" fill="#c2d6ff"><title>2010-12: -1.3</title></rect><text x="47" y="414.2" text-anchor="end" font-size="10" fill="#64748b">2011</text><rect x="55.0" y="402.0" width="69.4" height="16.0" fill="#dbe8ff"><title>2011-01: -0.6</title></rect><rect x="125.4" y="402.0" width="69.4" height="16.0" fill="#e9f2ff"><title>2011-02: -0.2</title></rect><rect x="195.8" y="402.0" width="69.4" height="16.0" fill="#deebff"><title>2011-03: -0.5</title></rect><rect x="266.2" y="402.0" width="69.4" height="16.0" fill="#ffc5b1"><title>2011-04: 1.7</title></rect><rect x="336.7" y="402.0" width="69.4" height="16.0" fill="#ffcdbd"><title>2011-05: 1.4</title></rect><rect x="407.1" y="402.0" width="69.4" height="16.0" fill="#cddeff"><title>2011-06: -1.0</title></rect><rect x="477.5" y="402.0" width="69.4" height="16.0" fill="#b8cfff"><title>2011-07: -1.6</title></rect><rect x="547.9" y="402.0" width="69.4" height="16.0" fill="#ecf5ff"><title>2011-08: -0.1</title></rect><rect x="618.3" y="402.0" width="69.4" height="16.0" fill="#ffcdbd"><title>2011-09: 1.4</title></rect><rect x="688.8" y="402.0" width="69.4" height="16.0" fill="#ffded5"><title>2011-10: 0.8</title></rect><rect x="759.2" y="402.0" width="69.4" height="16.0" fill="#ffbaa1"><title>2011-11: 2.1</title></rect><rect x="829.6" y="402.0" width="69.4" height="16.0" fill="#ffe1d9"><title>2011-12: 0.7</title></rect><text x="47" y="431.2" text-anchor="end" font-size="10" fill="#64748b">2012</text><rect x="55.0" y="419.0" width="69.4" height="16.0" fill="#fff5f5"><title>2012-01: 0.0</title></rect><rect x="125.4" y="419.0" width="69.4" height="16.0" fill="#8aadff"><title>2012-02: -2.9</title></rect><rect x="195.8" y="419.0" width="69.4" height="16.0" fill="#ffefed"><title>2012-03: 0.2</title></rect><rect x="266.2" y="419.0" width="69.4" height="16.0" fill="#ecf5ff"><title>2012-04: -0.1</title></rect><rect x="336.7" y="419.0" width="69.4" height="16.0" fill="#ffded5"><title>2012-05: 0.8</title></rect><rect x="407.1" y="419.0" width="69.4" height="16.0" fill="#ffcdbd"><title>2012-06: 1.4</title></rect><rect x="477.5" y="419.0" width="69.4" height="16.0" fill="#e5f0ff"><title>2012-07: -0.3</title></rect><rect x="547.9" y="419.0" width="69.4" height="16.0" fill="#ffd0c1"><title>2012-08: 1.3</title></rect><rect x="618.3" y="419.0" width="69.4" height="16.0" fill="#ffe7e1"><title>2012-09: 0.5</title></rect><rect x="688.8" y="419.0" width="69.4" height="16.0" fill="#ffece9"><title>2012-10: 0.3</title></rect><rect x="759.2" y="419.0" width="69.4" height="16.0" fill="#ffe9e5"><title>2012-11: 0.4</title></rect><rect x="829.6" y="419.0" width="69.4" height="16.0" fill="#ffefed"><title>2012-12: 0.2</title></rect><text x="47" y="448.2" text-anchor="end" font-size="10" fill="#64748b">2013</text><rect x="55.0" y="436.0" width="69.4" height="16.0" fill="#ecf5ff"><title>2013-01: -0.1</title></rect><rect x="125.4" y="436.0" width="69.4" height="16.0" fill="#cddeff"><title>2013-02: -1.0</title></rect><rect x="195.8" y="436.0" width="69.4" height="16.0" fill="#e9f2ff"><title>2013-03: -0.2</title></rect><rect x="266.2" y="436.0" width="69.4" height="16.0" fill="#ecf5ff"><title>2013-04: -0.1</title></rect><rect x="336.7" y="436.0" width="69.4" height="16.0" fill="#adc7ff"><title>2013-05: -1.9</title></rect><rect x="407.1" y="436.0" width="69.4" height="16.0" fill="#c6d9ff"><title>2013-06: -1.2</title></rect><rect x="477.5" y="436.0" width="69.4" height="16.0" fill="#ffd6c9"><title>2013-07: 1.1</title></rect><rect x="547.9" y="436.0" width="69.4" height="16.0" fill="#e9f2ff"><title>2013-08: -0.2</title></rect><rect x="618.3" y="436.0" width="69.4" height="16.0" fill="#ffefed"><title>2013-09: 0.2</title></rect><rect x="688.8" y="436.0" width="69.4" height="16.0" fill="#ffc2ad"><title>2013-10: 1.8</title></rect><rect x="759.2" y="436.0" width="69.4" height="16.0" fill="#ecf5ff"><title>2013-11: -0.1</title></rect><rect x="829.6" y="436.0" width="69.4" height="16.0" fill="#deebff"><title>2013-12: -0.5</title></rect><text x="47" y="465.2" text-anchor="end" font-size="10" fill="#64748b">2014</text><rect x="55.0" y="453.0" width="69.4" height="16.0" fill="#ffded5"><title>2014-01: 0.8</title></rect><rect x="125.4" y="453.0" width="69.4" height="16.0" fill="#ffe4dd"><title>2014-02: 0.6</title></rect><rect x="195.8" y="453.0" width="69.4" height="16.0" fill="#ffe9e5"><title>2014-03: 0.4</title></rect><rect x="266.2" y="453.0" width="69.4" height="16.0" fill="#ffcdbd"><title>2014-04: 1.4</title></rect><rect x="336.7" y="453.0" width="69.4" height="16.0" fill="#e2edff"><title>2014-05: -0.4</title></rect><rect x="407.1" y="453.0" width="69.4" height="16.0" fill="#ffece9"><title>2014-06: 0.3</title></rect><rect x="477.5" y="453.0" width="69.4" height="16.0" fill="#d4e3ff"><title>2014-07: -0.8</title></rect><rect x="547.9" y="453.0" width="69.4" height="16.0" fill="#d0e0ff"><title>2014-08: -0.9</title></rect><rect x="618.3" y="453.0" width="69.4" height="16.0" fill="#ffd0c1"><title>2014-09: 1.3</title></rect><rect x="688.8" y="453.0" width="69.4" height="16.0" fill="#ffc2ad"><title>2014-10: 1.8</title></rect><rect x="759.2" y="453.0" width="69.4" height="16.0" fill="#ffc2ad"><title>2014-11: 1.8</title></rect><rect x="829.6" y="453.0" width="69.4" height="16.0" fill="#ecf5ff"><title>2014-12: -0.1</title></rect><text x="47" y="482.2" text-anchor="end" font-size="10" fill="#64748b">2015</text><rect x="55.0" y="470.0" width="69.4" height="16.0" fill="#ecf5ff"><title>2015-01: -0.1</title></rect><rect x="125.4" y="470.0" width="69.4" height="16.0" fill="#d0e0ff"><title>2015-02: -0.9</title></rect><rect x="195.8" y="470.0" width="69.4" height="16.0" fill="#ffefed"><title>2015-03: 0.2</title></rect><rect x="266.2" y="470.0" width="69.4" height="16.0" fill="#ffe4dd"><title>2015-04: 0.6</title></rect><rect x="336.7" y="470.0" width="69.4" height="16.0" fill="#ffc5b1"><title>2015-05: 1.7</title></rect><rect x="407.1" y="470.0" width="69.4" height="16.0" fill="#ffc5b1"><title>2015-06: 1.7</title></rect><rect x="477.5" y="470.0" width="69.4" height="16.0" fill="#ffb296"><title>2015-07: 2.4</title></rect><rect x="547.9" y="470.0" width="69.4" height="16.0" fill="#e2edff"><title>2015-08: -0.4</title></rect><rect x="618.3" y="470.0" width="69.4" height="16.0" fill="#d7e6ff"><title>2015-09: -0.7</title></rect><rect x="688.8" y="470.0" width="69.4" height="16.0" fill="#e5f0ff"><title>2015-10: -0.3</title></rect><rect x="759.2" y="470.0" width="69.4" height="16.0" fill="#ffdbd1"><title>2015-11: 0.9</title></rect><rect x="829.6" y="470.0" width="69.4" height="16.0" fill="#ffcbb9"><title>2015-12: 1.5</title></rect><text x="47" y="499.2" text-anchor="end" font-size="10" fill="#64748b">2016</text><rect x="55.0" y="487.0" width="69.4" height="16.0" fill="#ffbfa9"><title>2016-01: 1.9</title></rect><rect x="125.4" y="487.0" width="69.4" height="16.0" fill="#ffcdbd"><title>2016-02: 1.4</title></rect><rect x="195.8" y="487.0" width="69.4" height="16.0" fill="#dbe8ff"><title>2016-03: -0.6</title></rect><rect x="266.2" y="487.0" width="69.4" height="16.0" fill="#ecf5ff"><title>2016-04: -0.1</title></rect><rect x="336.7" y="487.0" width="69.4" height="16.0" fill="#dbe8ff"><title>2016-05: -0.6</title></rect><rect x="407.1" y="487.0" width="69.4" height="16.0" fill="#ecf5ff"><title>2016-06: -0.1</title></rect><rect x="477.5" y="487.0" width="69.4" height="16.0" fill="#ffe1d9"><title>2016-07: 0.7</title></rect><rect x="547.9" y="487.0" width="69.4" height="16.0" fill="#fff2f1"><title>2016-08: 0.1</title></rect><rect x="618.3" y="487.0" width="69.4" height="16.0" fill="#ffd6c9"><title>2016-09: 1.1</title></rect><rect x="688.8" y="487.0" width="69.4" height="16.0" fill="#ffe4dd"><title>2016-10: 0.6</title></rect><rect x="759.2" y="487.0" width="69.4" height="16.0" fill="#ffded5"><title>2016-11: 0.8</title></rect><rect x="829.6" y="487.0" width="69.4" height="16.0" fill="#ffd6c9"><title>2016-12: 1.1</title></rect><text x="47" y="516.2" text-anchor="end" font-size="10" fill="#64748b">2017</text><rect x="55.0" y="504.0" width="69.4" height="16.0" fill="#cddeff"><title>2017-01: -1.0</title></rect><rect x="125.4" y="504.0" width="69.4" height="16.0" fill="#ffbfa9"><title>2017-02: 1.9</title></rect><rect x="195.8" y="504.0" width="69.4" height="16.0" fill="#ffd6c9"><title>2017-03: 1.1</title></rect><rect x="266.2" y="504.0" width="69.4" height="16.0" fill="#ffe9e5"><title>2017-04: 0.4</title></rect><rect x="336.7" y="504.0" width="69.4" height="16.0" fill="#ffcdbd"><title>2017-05: 1.4</title></rect><rect x="407.1" y="504.0" width="69.4" height="16.0" fill="#ffa482"><title>2017-06: 2.9</title></rect><rect x="477.5" y="504.0" width="69.4" height="16.0" fill="#ffe1d9"><title>2017-07: 0.7</title></rect><rect x="547.9" y="504.0" width="69.4" height="16.0" fill="#ffdbd1"><title>2017-08: 0.9</title></rect><rect x="618.3" y="504.0" width="69.4" height="16.0" fill="#c9dbff"><title>2017-09: -1.1</title></rect><rect x="688.8" y="504.0" width="69.4" height="16.0" fill="#ffd9cd"><title>2017-10: 1.0</title></rect><rect x="759.2" y="504.0" width="69.4" height="16.0" fill="#c9dbff"><title>2017-11: -1.1</title></rect><rect x="829.6" y="504.0" width="69.4" height="16.0" fill="#c2d6ff"><title>2017-12: -1.3</title></rect><text x="47" y="533.2" text-anchor="end" font-size="10" fill="#64748b">2018</text><rect x="55.0" y="521.0" width="69.4" height="16.0" fill="#ffc8b5"><title>2018-01: 1.6</title></rect><rect x="125.4" y="521.0" width="69.4" height="16.0" fill="#b4ccff"><title>2018-02: -1.7</title></rect><rect x="195.8" y="521.0" width="69.4" height="16.0" fill="#dbe8ff"><title>2018-03: -0.6</title></rect><rect x="266.2" y="521.0" width="69.4" height="16.0" fill="#ffded5"><title>2018-04: 0.8</title></rect><rect x="336.7" y="521.0" width="69.4" height="16.0" fill="#ffefed"><title>2018-05: 0.2</title></rect><rect x="407.1" y="521.0" width="69.4" height="16.0" fill="#ffe1d9"><title>2018-06: 0.7</title></rect><rect x="477.5" y="521.0" width="69.4" height="16.0" fill="#ffcdbd"><title>2018-07: 1.4</title></rect><rect x="547.9" y="521.0" width="69.4" height="16.0" fill="#ffd0c1"><title>2018-08: 1.3</title></rect><rect x="618.3" y="521.0" width="69.4" height="16.0" fill="#ffd0c1"><title>2018-09: 1.3</title></rect><rect x="688.8" y="521.0" width="69.4" height="16.0" fill="#fff2f1"><title>2018-10: 0.1</title></rect><rect x="759.2" y="521.0" width="69.4" height="16.0" fill="#ffefed"><title>2018-11: 0.2</title></rect><rect x="829.6" y="521.0" width="69.4" height="16.0" fill="#ffe4dd"><title>2018-12: 0.6</title></rect><text x="47" y="550.2" text-anchor="end" font-size="10" fill="#64748b">2019</text><rect x="55.0" y="538.0" width="69.4" height="16.0" fill="#c6d9ff"><title>2019-01: -1.2</title></rect><rect x="125.4" y="538.0" width="69.4" height="16.0" fill="#ffefed"><title>2019-02: 0.2</title></rect><rect x="195.8" y="538.0" width="69.4" height="16.0" fill="#ffe1d9"><title>2019-03: 0.7</title></rect><rect x="266.2" y="538.0" width="69.4" height="16.0" fill="#ecf5ff"><title>2019-04: -0.1</title></rect><rect x="336.7" y="538.0" width="69.4" height="16.0" fill="#c6d9ff"><title>2019-05: -1.2</title></rect><rect x="407.1" y="538.0" width="69.4" height="16.0" fill="#fff5f5"><title>2019-06: 0.0</title></rect><rect x="477.5" y="538.0" width="69.4" height="16.0" fill="#ffcbb9"><title>2019-07: 1.5</title></rect><rect x="547.9" y="538.0" width="69.4" height="16.0" fill="#ffd0c1"><title>2019-08: 1.3</title></rect><rect x="618.3" y="538.0" width="69.4" height="16.0" fill="#ffe1d9"><title>2019-09: 0.7</title></rect><rect x="688.8" y="538.0" width="69.4" height="16.0" fill="#ffd6c9"><title>2019-10: 1.1</title></rect><rect x="759.2" y="538.0" width="69.4" height="16.0" fill="#d7e6ff"><title>2019-11: -0.7</title></rect><rect x="829.6" y="538.0" width="69.4" height="16.0" fill="#ffbfa9"><title>2019-12: 1.9</title></rect><text x="47" y="567.2" text-anchor="end" font-size="10" fill="#64748b">2020</text><rect x="55.0" y="555.0" width="69.4" height="16.0" fill="#fff2f1"><title>2020-01: 0.1</title></rect><rect x="125.4" y="555.0" width="69.4" height="16.0" fill="#ffaf92"><title>2020-02: 2.5</title></rect><rect x="195.8" y="555.0" width="69.4" height="16.0" fill="#ffe7e1"><title>2020-03: 0.5</title></rect><rect x="266.2" y="555.0" width="69.4" height="16.0" fill="#ffded5"><title>2020-04: 0.8</title></rect><rect x="336.7" y="555.0" width="69.4" height="16.0" fill="#ffbfa9"><title>2020-05: 1.9</title></rect><rect x="407.1" y="555.0" width="69.4" height="16.0" fill="#e5f0ff"><title>2020-06: -0.3</title></rect><rect x="477.5" y="555.0" width="69.4" height="16.0" fill="#ffd3c5"><title>2020-07: 1.2</title></rect><rect x="547.9" y="555.0" width="69.4" height="16.0" fill="#ffd3c5"><title>2020-08: 1.2</title></rect><rect x="618.3" y="555.0" width="69.4" height="16.0" fill="#ffece9"><title>2020-09: 0.3</title></rect><rect x="688.8" y="555.0" width="69.4" height="16.0" fill="#bfd4ff"><title>2020-10: -1.4</title></rect><rect x="759.2" y="555.0" width="69.4" height="16.0" fill="#ffd0c1"><title>2020-11: 1.3</title></rect><rect x="829.6" y="555.0" width="69.4" height="16.0" fill="#e9f2ff"><title>2020-12: -0.2</title></rect><text x="47" y="584.2" text-anchor="end" font-size="10" fill="#64748b">2021</text><rect x="55.0" y="572.0" width="69.4" height="16.0" fill="#d4e3ff"><title>2021-01: -0.8</title></rect><rect x="125.4" y="572.0" width="69.4" height="16.0" fill="#ffbaa1"><title>2021-02: 2.1</title></rect><rect x="195.8" y="572.0" width="69.4" height="16.0" fill="#e9f2ff"><title>2021-03: -0.2</title></rect><rect x="266.2" y="572.0" width="69.4" height="16.0" fill="#d7e6ff"><title>2021-04: -0.7</title></rect><rect x="336.7" y="572.0" width="69.4" height="16.0" fill="#ecf5ff"><title>2021-05: -0.1</title></rect><rect x="407.1" y="572.0" width="69.4" height="16.0" fill="#ffc8b5"><title>2021-06: 1.6</title></rect><rect x="477.5" y="572.0" width="69.4" height="16.0" fill="#ffdbd1"><title>2021-07: 0.9</title></rect><rect x="547.9" y="572.0" width="69.4" height="16.0" fill="#e9f2ff"><title>2021-08: -0.2</title></rect><rect x="618.3" y="572.0" width="69.4" height="16.0" fill="#ffcdbd"><title>2021-09: 1.4</title></rect><rect x="688.8" y="572.0" width="69.4" height="16.0" fill="#ffefed"><title>2021-10: 0.2</title></rect><rect x="759.2" y="572.0" width="69.4" height="16.0" fill="#d7e6ff"><title>2021-11: -0.7</title></rect><rect x="829.6" y="572.0" width="69.4" height="16.0" fill="#ffe9e5"><title>2021-12: 0.4</title></rect><text x="47" y="601.2" text-anchor="end" font-size="10" fill="#64748b">2022</text><rect x="55.0" y="589.0" width="69.4" height="16.0" fill="#d0e0ff"><title>2022-01: -0.9</title></rect><rect x="125.4" y="589.0" width="69.4" height="16.0" fill="#ffd3c5"><title>2022-02: 1.2</title></rect><rect x="195.8" y="589.0" width="69.4" height="16.0" fill="#ffe4dd"><title>2022-03: 0.6</title></rect><rect x="266.2" y="589.0" width="69.4" height="16.0" fill="#fff5f5"><title>2022-04: 0.0</title></rect><rect x="336.7" y="589.0" width="69.4" height="16.0" fill="#ffbaa1"><title>2022-05: 2.1</title></rect><rect x="407.1" y="589.0" width="69.4" height="16.0" fill="#ffa686"><title>2022-06: 2.8</title></rect><rect x="477.5" y="589.0" width="69.4" height="16.0" fill="#ffb79e"><title>2022-07: 2.2</title></rect><rect x="547.9" y="589.0" width="69.4" height="16.0" fill="#ffb296"><title>2022-08: 2.4</title></rect><rect x="618.3" y="589.0" width="69.4" height="16.0" fill="#ffd0c1"><title>2022-09: 1.3</title></rect><rect x="688.8" y="589.0" width="69.4" height="16.0" fill="#ffaf92"><title>2022-10: 2.5</title></rect><rect x="759.2" y="589.0" width="69.4" height="16.0" fill="#ffb79e"><title>2022-11: 2.2</title></rect><rect x="829.6" y="589.0" width="69.4" height="16.0" fill="#ffbfa9"><title>2022-12: 1.9</title></rect><text x="47" y="618.2" text-anchor="end" font-size="10" fill="#64748b">2023</text><rect x="55.0" y="606.0" width="69.4" height="16.0" fill="#ecf5ff"><title>2023-01: -0.1</title></rect><rect x="125.4" y="606.0" width="69.4" height="16.0" fill="#e5f0ff"><title>2023-02: -0.3</title></rect><rect x="195.8" y="606.0" width="69.4" height="16.0" fill="#ffc2ad"><title>2023-03: 1.8</title></rect><rect x="266.2" y="606.0" width="69.4" height="16.0" fill="#ffc5b1"><title>2023-04: 1.7</title></rect><rect x="336.7" y="606.0" width="69.4" height="16.0" fill="#ffe9e5"><title>2023-05: 0.4</title></rect><rect x="407.1" y="606.0" width="69.4" height="16.0" fill="#ffbda5"><title>2023-06: 2.0</title></rect><rect x="477.5" y="606.0" width="69.4" height="16.0" fill="#ffc2ad"><title>2023-07: 1.8</title></rect><rect x="547.9" y="606.0" width="69.4" height="16.0" fill="#ffc5b1"><title>2023-08: 1.7</title></rect><rect x="618.3" y="606.0" width="69.4" height="16.0" fill="#ffc5b1"><title>2023-09: 1.7</title></rect><rect x="688.8" y="606.0" width="69.4" height="16.0" fill="#ffa686"><title>2023-10: 2.8</title></rect><rect x="759.2" y="606.0" width="69.4" height="16.0" fill="#ffbfa9"><title>2023-11: 1.9</title></rect><rect x="829.6" y="606.0" width="69.4" height="16.0" fill="#ffded5"><title>2023-12: 0.8</title></rect><text x="47" y="635.2" text-anchor="end" font-size="10" fill="#64748b">2024</text><rect x="55.0" y="623.0" width="69.4" height="16.0" fill="#ffd0c1"><title>2024-01: 1.3</title></rect><rect x="125.4" y="623.0" width="69.4" height="16.0" fill="#ffac8e"><title>2024-02: 2.6</title></rect><rect x="195.8" y="623.0" width="69.4" height="16.0" fill="#ffcbb9"><title>2024-03: 1.5</title></rect><rect x="266.2" y="623.0" width="69.4" height="16.0" fill="#ffe1d9"><title>2024-04: 0.7</title></rect><rect x="336.7" y="623.0" width="69.4" height="16.0" fill="#ecf5ff"><title>2024-05: -0.1</title></rect><rect x="407.1" y="623.0" width="69.4" height="16.0" fill="#fff2f1"><title>2024-06: 0.1</title></rect><rect x="477.5" y="623.0" width="69.4" height="16.0" fill="#ffd3c5"><title>2024-07: 1.2</title></rect><rect x="547.9" y="623.0" width="69.4" height="16.0" fill="#ffc2ad"><title>2024-08: 1.8</title></rect><rect x="618.3" y="623.0" width="69.4" height="16.0" fill="#e2edff"><title>2024-09: -0.4</title></rect><rect x="688.8" y="623.0" width="69.4" height="16.0" fill="#ffd9cd"><title>2024-10: 1.0</title></rect><rect x="759.2" y="623.0" width="69.4" height="16.0" fill="#ffc2ad"><title>2024-11: 1.8</title></rect><rect x="829.6" y="623.0" width="69.4" height="16.0" fill="#ffefed"><title>2024-12: 0.2</title></rect><text x="47" y="652.2" text-anchor="end" font-size="10" fill="#64748b">2025</text><rect x="55.0" y="640.0" width="69.4" height="16.0" fill="#ffc8b5"><title>2025-01: 1.6</title></rect><rect x="125.4" y="640.0" width="69.4" height="16.0" fill="#ffd3c5"><title>2025-02: 1.2</title></rect><rect x="195.8" y="640.0" width="69.4" height="16.0" fill="#ffece9"><title>2025-03: 0.3</title></rect><rect x="266.2" y="640.0" width="69.4" height="16.0" fill="#ffd3c5"><title>2025-04: 1.2</title></rect><rect x="336.7" y="640.0" width="69.4" height="16.0" fill="#ffdbd1"><title>2025-05: 0.9</title></rect><rect x="407.1" y="640.0" width="69.4" height="16.0" fill="#ff7d4b"><title>2025-06: 4.3</title></rect><rect x="477.5" y="640.0" width="69.4" height="16.0" fill="#ffcdbd"><title>2025-07: 1.4</title></rect><rect x="547.9" y="640.0" width="69.4" height="16.0" fill="#ffcbb9"><title>2025-08: 1.5</title></rect><rect x="618.3" y="640.0" width="69.4" height="16.0" fill="#ffe4dd"><title>2025-09: 0.6</title></rect><rect x="688.8" y="640.0" width="69.4" height="16.0" fill="#ffd9cd"><title>2025-10: 1.0</title></rect><rect x="759.2" y="640.0" width="69.4" height="16.0" fill="#ffece9"><title>2025-11: 0.3</title></rect><rect x="829.6" y="640.0" width="69.4" height="16.0" fill="#ffd0c1"><title>2025-12: 1.3</title></rect><text x="47" y="669.2" text-anchor="end" font-size="10" fill="#64748b">2026</text><rect x="55.0" y="657.0" width="69.4" height="16.0" fill="#ffe7e1"><title>2026-01: 0.5</title></rect><rect x="125.4" y="657.0" width="69.4" height="16.0" fill="#ffa686"><title>2026-02: 2.8</title></rect><rect x="195.8" y="657.0" width="69.4" height="16.0" fill="#ffe4dd"><title>2026-03: 0.6</title></rect><rect x="266.2" y="657.0" width="69.4" height="16.0" fill="#ffb49a"><title>2026-04: 2.3</title></rect><rect x="336.7" y="657.0" width="69.4" height="16.0" fill="#ffbfa9"><title>2026-05: 1.9</title></rect><rect x="407.1" y="657.0" width="69.4" height="16.0" fill="#f1f5f9"><title>2026-06: </title></rect><rect x="477.5" y="657.0" width="69.4" height="16.0" fill="#f1f5f9"><title>2026-07: </title></rect><rect x="547.9" y="657.0" width="69.4" height="16.0" fill="#f1f5f9"><title>2026-08: </title></rect><rect x="618.3" y="657.0" width="69.4" height="16.0" fill="#f1f5f9"><title>2026-09: </title></rect><rect x="688.8" y="657.0" width="69.4" height="16.0" fill="#f1f5f9"><title>2026-10: </title></rect><rect x="759.2" y="657.0" width="69.4" height="16.0" fill="#f1f5f9"><title>2026-11: </title></rect><rect x="829.6" y="657.0" width="69.4" height="16.0" fill="#f1f5f9"><title>2026-12: </title></rect></svg>