<svg viewBox="0 0 900 390" class="chart"><rect width="900" height="390" fill="white" rx="16"/><text x="60" y="24" font-size="17" font-weight="700">年均 PM2.5：北京显著高于巴塞罗那</text><line x1="60" y1="324.0" x2="876" y2="324.0" stroke="#e2e8f0"/><text x="52" y="328.0" text-anchor="end" font-size="11" fill="#64748b">0</text><line x1="60" y1="253.5" x2="876" y2="253.5" stroke="#e2e8f0"/><text x="52" y="257.5" text-anchor="end" font-size="11" fill="#64748b">25</text><line x1="60" y1="183.0" x2="876" y2="183.0" stroke="#e2e8f0"/><text x="52" y="187.0" text-anchor="end" font-size="11" fill="#64748b">50</text><line x1="60" y1="112.5" x2="876" y2="112.5" stroke="#e2e8f0"/><text x="52" y="116.5" text-anchor="end" font-size="11" fill="#64748b">75</text><line x1="60" y1="42.0" x2="876" y2="42.0" stroke="#e2e8f0"/><text x="52" y="46.0" text-anchor="end" font-size="11" fill="#64748b">100</text><rect x="89.4" y="284.6" width="52.2" height="39.4" fill="#dc2626" opacity=".86" rx="2"/><text x="115.5" y="277.6" text-anchor="middle" font-size="10.5" font-weight="700" fill="#334155">14</text><rect x="141.6" y="nan" width="52.2" height="nan" fill="#2563eb" opacity=".86" rx="2"/><text x="167.7" y="nan" text-anchor="middle" font-size="10.5" font-weight="700" fill="#334155">nan</text><text x="141.6" y="366" text-anchor="middle" font-size="11" fill="#64748b">2021</text><rect x="252.6" y="282.9" width="52.2" height="41.1" fill="#dc2626" opacity=".86" rx="2"/><text x="278.7" y="275.9" text-anchor="middle" font-size="10.5" font-weight="700" fill="#334155">15</text><rect x="304.8" y="139.7" width="52.2" height="184.3" fill="#2563eb" opacity=".86" rx="2"/><text x="330.9" y="132.7" text-anchor="middle" font-size="10.5" font-weight="700" fill="#334155">65</text><text x="304.8" y="366" text-anchor="middle" font-size="11" fill="#64748b">2022</text><rect x="415.8" y="279.2" width="52.2" height="44.8" fill="#dc2626" opacity=".86" rx="2"/><text x="441.9" y="272.2" text-anchor="middle" font-size="10.5" font-weight="700" fill="#334155">16</text><rect x="468.0" y="119.4" width="52.2" height="204.6" fill="#2563eb" opacity=".86" rx="2"/><text x="494.1" y="112.4" text-anchor="middle" font-size="10.5" font-weight="700" fill="#334155">73</text><text x="468.0" y="366" text-anchor="middle" font-size="11" fill="#64748b">2023</text><rect x="579.0" y="284.3" width="52.2" height="39.7" fill="#dc2626" opacity=".86" rx="2"/><text x="605.1" y="277.3" text-anchor="middle" font-size="10.5" font-weight="700" fill="#334155">14</text><rect x="631.2" y="93.2" width="52.2" height="230.8" fill="#2563eb" opacity=".86" rx="2"/><text x="657.3" y="86.2" text-anchor="middle" font-size="10.5" font-weight="700" fill="#334155">82</text><text x="631.2" y="366" text-anchor="middle" font-size="11" fill="#64748b">2024</text><rect x="742.2" y="290.8" width="52.2" height="33.2" fill="#dc2626" opacity=".86" rx="2"/><text x="768.3" y="283.8" text-anchor="middle" font-size="10.5" font-weight="700" fill="#334155">12</text><rect x="794.4" y="89.0" width="52.2" height="235.0" fill="#2563eb" opacity=".86" rx="2"/><text x="820.5" y="82.0" text-anchor="middle" font-size="10.5" font-weight="700" fill="#334155">83</text><text x="794.4" y="366" text-anchor="middle" font-size="11" fill="#64748b">2025</text><circle cx="60" cy="384" r="5" fill="#dc2626"/><text x="70" y="388" font-size="12">巴塞罗那</text><circle cx="180" cy="384" r="5" fill="#2563eb"/><text x="190" y="388" font-size="12">北京</text></svg>