<svg viewBox="0 0 900 390" class="chart"><rect width="900" height="390" fill="white" rx="16"/><text x="60" y="24" font-size="17" font-weight="700">年均 PM10：北京颗粒物与沙尘影响更强</text><line x1="60" y1="324.0" x2="876" y2="324.0" stroke="#e2e8f0"/><text x="52" y="328.0" text-anchor="end" font-size="11" fill="#64748b">0</text><line x1="60" y1="253.5" x2="876" y2="253.5" stroke="#e2e8f0"/><text x="52" y="257.5" text-anchor="end" font-size="11" fill="#64748b">34</text><line x1="60" y1="183.0" x2="876" y2="183.0" stroke="#e2e8f0"/><text x="52" y="187.0" text-anchor="end" font-size="11" fill="#64748b">69</text><line x1="60" y1="112.5" x2="876" y2="112.5" stroke="#e2e8f0"/><text x="52" y="116.5" text-anchor="end" font-size="11" fill="#64748b">103</text><line x1="60" y1="42.0" x2="876" y2="42.0" stroke="#e2e8f0"/><text x="52" y="46.0" text-anchor="end" font-size="11" fill="#64748b">138</text><rect x="89.4" y="277.8" width="52.2" height="46.2" fill="#dc2626" opacity=".86" rx="2"/><text x="115.5" y="270.8" text-anchor="middle" font-size="10.5" font-weight="700" fill="#334155">23</text><rect x="141.6" y="nan" width="52.2" height="nan" fill="#2563eb" opacity=".86" rx="2"/><text x="167.7" y="nan" text-anchor="middle" font-size="10.5" font-weight="700" fill="#334155">nan</text><text x="141.6" y="366" text-anchor="middle" font-size="11" fill="#64748b">2021</text><rect x="252.6" y="278.2" width="52.2" height="45.8" fill="#dc2626" opacity=".86" rx="2"/><text x="278.7" y="271.2" text-anchor="middle" font-size="10.5" font-weight="700" fill="#334155">22</text><rect x="304.8" y="128.9" width="52.2" height="195.1" fill="#2563eb" opacity=".86" rx="2"/><text x="330.9" y="121.9" text-anchor="middle" font-size="10.5" font-weight="700" fill="#334155">95</text><text x="304.8" y="366" text-anchor="middle" font-size="11" fill="#64748b">2022</text><rect x="415.8" y="273.3" width="52.2" height="50.7" fill="#dc2626" opacity=".86" rx="2"/><text x="441.9" y="266.3" text-anchor="middle" font-size="10.5" font-weight="700" fill="#334155">25</text><rect x="468.0" y="105.0" width="52.2" height="219.0" fill="#2563eb" opacity=".86" rx="2"/><text x="494.1" y="98.0" text-anchor="middle" font-size="10.5" font-weight="700" fill="#334155">107</text><text x="468.0" y="366" text-anchor="middle" font-size="11" fill="#64748b">2023</text><rect x="579.0" y="283.5" width="52.2" height="40.5" fill="#dc2626" opacity=".86" rx="2"/><text x="605.1" y="276.5" text-anchor="middle" font-size="10.5" font-weight="700" fill="#334155">20</text><rect x="631.2" y="89.0" width="52.2" height="235.0" fill="#2563eb" opacity=".86" rx="2"/><text x="657.3" y="82.0" text-anchor="middle" font-size="10.5" font-weight="700" fill="#334155">115</text><text x="631.2" y="366" text-anchor="middle" font-size="11" fill="#64748b">2024</text><rect x="742.2" y="289.0" width="52.2" height="35.0" fill="#dc2626" opacity=".86" rx="2"/><text x="768.3" y="282.0" text-anchor="middle" font-size="10.5" font-weight="700" fill="#334155">17</text><rect x="794.4" y="126.6" width="52.2" height="197.4" fill="#2563eb" opacity=".86" rx="2"/><text x="820.5" y="119.6" text-anchor="middle" font-size="10.5" font-weight="700" fill="#334155">96</text><text x="794.4" y="366" text-anchor="middle" font-size="11" fill="#64748b">2025</text><circle cx="60" cy="384" r="5" fill="#dc2626"/><text x="70" y="388" font-size="12">巴塞罗那</text><circle cx="180" cy="384" r="5" fill="#2563eb"/><text x="190" y="388" font-size="12">北京</text></svg>