<svg viewBox="0 0 900 390" class="chart"><rect width="900" height="390" fill="white" rx="16"/><text x="60" y="24" font-size="17" font-weight="700">PM10 超过 WHO 日参考值天数</text><line x1="60" y1="324.0" x2="876" y2="324.0" stroke="#e2e8f0"/><text x="52" y="328.0" text-anchor="end" font-size="11" fill="#64748b">0</text><line x1="60" y1="253.5" x2="876" y2="253.5" stroke="#e2e8f0"/><text x="52" y="257.5" text-anchor="end" font-size="11" fill="#64748b">102</text><line x1="60" y1="183.0" x2="876" y2="183.0" stroke="#e2e8f0"/><text x="52" y="187.0" text-anchor="end" font-size="11" fill="#64748b">203</text><line x1="60" y1="112.5" x2="876" y2="112.5" stroke="#e2e8f0"/><text x="52" y="116.5" text-anchor="end" font-size="11" fill="#64748b">305</text><line x1="60" y1="42.0" x2="876" y2="42.0" stroke="#e2e8f0"/><text x="52" y="46.0" text-anchor="end" font-size="11" fill="#64748b">407</text><rect x="89.4" y="321.2" width="52.2" height="2.8" fill="#dc2626" opacity=".86" rx="2"/><text x="115.5" y="314.2" text-anchor="middle" font-size="10.5" font-weight="700" fill="#334155">4.0</text><rect x="141.6" y="324.0" width="52.2" height="0.0" fill="#2563eb" opacity=".86" rx="2"/><text x="167.7" y="317.0" text-anchor="middle" font-size="10.5" font-weight="700" fill="#334155">0.0</text><text x="141.6" y="366" text-anchor="middle" font-size="11" fill="#64748b">2021</text><rect x="252.6" y="320.5" width="52.2" height="3.5" fill="#dc2626" opacity=".86" rx="2"/><text x="278.7" y="313.5" text-anchor="middle" font-size="10.5" font-weight="700" fill="#334155">5.0</text><rect x="304.8" y="238.7" width="52.2" height="85.3" fill="#2563eb" opacity=".86" rx="2"/><text x="330.9" y="231.7" text-anchor="middle" font-size="10.5" font-weight="700" fill="#334155">123</text><text x="304.8" y="366" text-anchor="middle" font-size="11" fill="#64748b">2022</text><rect x="415.8" y="317.8" width="52.2" height="6.2" fill="#dc2626" opacity=".86" rx="2"/><text x="441.9" y="310.8" text-anchor="middle" font-size="10.5" font-weight="700" fill="#334155">9.0</text><rect x="468.0" y="104.3" width="52.2" height="219.7" fill="#2563eb" opacity=".86" rx="2"/><text x="494.1" y="97.3" text-anchor="middle" font-size="10.5" font-weight="700" fill="#334155">317</text><text x="468.0" y="366" text-anchor="middle" font-size="11" fill="#64748b">2023</text><rect x="579.0" y="319.8" width="52.2" height="4.2" fill="#dc2626" opacity=".86" rx="2"/><text x="605.1" y="312.8" text-anchor="middle" font-size="10.5" font-weight="700" fill="#334155">6.0</text><rect x="631.2" y="89.0" width="52.2" height="235.0" fill="#2563eb" opacity=".86" rx="2"/><text x="657.3" y="82.0" text-anchor="middle" font-size="10.5" font-weight="700" fill="#334155">339</text><text x="631.2" y="366" text-anchor="middle" font-size="11" fill="#64748b">2024</text><rect x="742.2" y="322.6" width="52.2" height="1.4" fill="#dc2626" opacity=".86" rx="2"/><text x="768.3" y="315.6" text-anchor="middle" font-size="10.5" font-weight="700" fill="#334155">2.0</text><rect x="794.4" y="102.2" width="52.2" height="221.8" fill="#2563eb" opacity=".86" rx="2"/><text x="820.5" y="95.2" text-anchor="middle" font-size="10.5" font-weight="700" fill="#334155">320</text><text x="794.4" y="366" text-anchor="middle" font-size="11" fill="#64748b">2025</text><circle cx="60" cy="384" r="5" fill="#dc2626"/><text x="70" y="388" font-size="12">巴塞罗那</text><circle cx="180" cy="384" r="5" fill="#2563eb"/><text x="190" y="388" font-size="12">北京</text></svg>