<svg viewBox="0 0 900 390" class="chart"><rect width="900" height="390" fill="white" rx="16"/><text x="60" y="24" font-size="17" font-weight="700">月份季节性：PM2.5 平均浓度</text><line x1="60" y1="324.0" x2="876" y2="324.0" stroke="#e2e8f0"/><text x="52" y="328.0" text-anchor="end" font-size="11" fill="#64748b">0</text><line x1="60" y1="253.5" x2="876" y2="253.5" stroke="#e2e8f0"/><text x="52" y="257.5" text-anchor="end" font-size="11" fill="#64748b">33</text><line x1="60" y1="183.0" x2="876" y2="183.0" stroke="#e2e8f0"/><text x="52" y="187.0" text-anchor="end" font-size="11" fill="#64748b">66</text><line x1="60" y1="112.5" x2="876" y2="112.5" stroke="#e2e8f0"/><text x="52" y="116.5" text-anchor="end" font-size="11" fill="#64748b">99</text><line x1="60" y1="42.0" x2="876" y2="42.0" stroke="#e2e8f0"/><text x="52" y="46.0" text-anchor="end" font-size="11" fill="#64748b">132</text><rect x="72.2" y="285.8" width="21.8" height="38.2" fill="#dc2626" opacity=".86" rx="2"/><text x="83.1" y="278.8" text-anchor="middle" font-size="9.5" font-weight="700" fill="#334155">18</text><rect x="94.0" y="89.0" width="21.8" height="235.0" fill="#2563eb" opacity=".86" rx="2"/><text x="104.9" y="82.0" text-anchor="middle" font-size="9.5" font-weight="700" fill="#334155">110</text><text x="94.0" y="366" text-anchor="middle" font-size="11" fill="#64748b">1月</text><rect x="140.2" y="282.0" width="21.8" height="42.0" fill="#dc2626" opacity=".86" rx="2"/><text x="151.1" y="275.0" text-anchor="middle" font-size="9.5" font-weight="700" fill="#334155">20</text><rect x="162.0" y="119.7" width="21.8" height="204.3" fill="#2563eb" opacity=".86" rx="2"/><text x="172.9" y="112.7" text-anchor="middle" font-size="9.5" font-weight="700" fill="#334155">95</text><text x="162.0" y="366" text-anchor="middle" font-size="11" fill="#64748b">2月</text><rect x="208.2" y="291.6" width="21.8" height="32.4" fill="#dc2626" opacity=".86" rx="2"/><text x="219.1" y="284.6" text-anchor="middle" font-size="9.5" font-weight="700" fill="#334155">15</text><rect x="230.0" y="173.9" width="21.8" height="150.1" fill="#2563eb" opacity=".86" rx="2"/><text x="240.9" y="166.9" text-anchor="middle" font-size="9.5" font-weight="700" fill="#334155">70</text><text x="230.0" y="366" text-anchor="middle" font-size="11" fill="#64748b">3月</text><rect x="276.2" y="295.7" width="21.8" height="28.3" fill="#dc2626" opacity=".86" rx="2"/><text x="287.1" y="288.7" text-anchor="middle" font-size="9.5" font-weight="700" fill="#334155">13</text><rect x="298.0" y="219.6" width="21.8" height="104.4" fill="#2563eb" opacity=".86" rx="2"/><text x="308.9" y="212.6" text-anchor="middle" font-size="9.5" font-weight="700" fill="#334155">49</text><text x="298.0" y="366" text-anchor="middle" font-size="11" fill="#64748b">4月</text><rect x="344.2" y="296.6" width="21.8" height="27.4" fill="#dc2626" opacity=".86" rx="2"/><text x="355.1" y="289.6" text-anchor="middle" font-size="9.5" font-weight="700" fill="#334155">13</text><rect x="366.0" y="215.1" width="21.8" height="108.9" fill="#2563eb" opacity=".86" rx="2"/><text x="376.9" y="208.1" text-anchor="middle" font-size="9.5" font-weight="700" fill="#334155">51</text><text x="366.0" y="366" text-anchor="middle" font-size="11" fill="#64748b">5月</text><rect x="412.2" y="295.9" width="21.8" height="28.1" fill="#dc2626" opacity=".86" rx="2"/><text x="423.1" y="288.9" text-anchor="middle" font-size="9.5" font-weight="700" fill="#334155">13</text><rect x="434.0" y="216.8" width="21.8" height="107.2" fill="#2563eb" opacity=".86" rx="2"/><text x="444.9" y="209.8" text-anchor="middle" font-size="9.5" font-weight="700" fill="#334155">50</text><text x="434.0" y="366" text-anchor="middle" font-size="11" fill="#64748b">6月</text><rect x="480.2" y="298.5" width="21.8" height="25.5" fill="#dc2626" opacity=".86" rx="2"/><text x="491.1" y="291.5" text-anchor="middle" font-size="9.5" font-weight="700" fill="#334155">12</text><rect x="502.0" y="193.2" width="21.8" height="130.8" fill="#2563eb" opacity=".86" rx="2"/><text x="512.9" y="186.2" text-anchor="middle" font-size="9.5" font-weight="700" fill="#334155">61</text><text x="502.0" y="366" text-anchor="middle" font-size="11" fill="#64748b">7月</text><rect x="548.2" y="296.3" width="21.8" height="27.7" fill="#dc2626" opacity=".86" rx="2"/><text x="559.1" y="289.3" text-anchor="middle" font-size="9.5" font-weight="700" fill="#334155">13</text><rect x="570.0" y="169.4" width="21.8" height="154.6" fill="#2563eb" opacity=".86" rx="2"/><text x="580.9" y="162.4" text-anchor="middle" font-size="9.5" font-weight="700" fill="#334155">72</text><text x="570.0" y="366" text-anchor="middle" font-size="11" fill="#64748b">8月</text><rect x="616.2" y="300.8" width="21.8" height="23.2" fill="#dc2626" opacity=".86" rx="2"/><text x="627.1" y="293.8" text-anchor="middle" font-size="9.5" font-weight="700" fill="#334155">11</text><rect x="638.0" y="165.3" width="21.8" height="158.7" fill="#2563eb" opacity=".86" rx="2"/><text x="648.9" y="158.3" text-anchor="middle" font-size="9.5" font-weight="700" fill="#334155">74</text><text x="638.0" y="366" text-anchor="middle" font-size="11" fill="#64748b">9月</text><rect x="684.2" y="295.9" width="21.8" height="28.1" fill="#dc2626" opacity=".86" rx="2"/><text x="695.1" y="288.9" text-anchor="middle" font-size="9.5" font-weight="700" fill="#334155">13</text><rect x="706.0" y="147.3" width="21.8" height="176.7" fill="#2563eb" opacity=".86" rx="2"/><text x="716.9" y="140.3" text-anchor="middle" font-size="9.5" font-weight="700" fill="#334155">82</text><text x="706.0" y="366" text-anchor="middle" font-size="11" fill="#64748b">10月</text><rect x="752.2" y="296.8" width="21.8" height="27.2" fill="#dc2626" opacity=".86" rx="2"/><text x="763.1" y="289.8" text-anchor="middle" font-size="9.5" font-weight="700" fill="#334155">13</text><rect x="774.0" y="113.9" width="21.8" height="210.1" fill="#2563eb" opacity=".86" rx="2"/><text x="784.9" y="106.9" text-anchor="middle" font-size="9.5" font-weight="700" fill="#334155">98</text><text x="774.0" y="366" text-anchor="middle" font-size="11" fill="#64748b">11月</text><rect x="820.2" y="288.4" width="21.8" height="35.6" fill="#dc2626" opacity=".86" rx="2"/><text x="831.1" y="281.4" text-anchor="middle" font-size="9.5" font-weight="700" fill="#334155">17</text><rect x="842.0" y="97.8" width="21.8" height="226.2" fill="#2563eb" opacity=".86" rx="2"/><text x="852.9" y="90.8" text-anchor="middle" font-size="9.5" font-weight="700" fill="#334155">106</text><text x="842.0" y="366" text-anchor="middle" font-size="11" fill="#64748b">12月</text><circle cx="60" cy="384" r="5" fill="#dc2626"/><text x="70" y="388" font-size="12">巴塞罗那</text><circle cx="180" cy="384" r="5" fill="#2563eb"/><text x="190" y="388" font-size="12">北京</text></svg>