<svg viewBox="0 0 900 390" class="chart"><rect width="900" height="390" fill="white" rx="16"/><text x="60" y="24" font-size="17" font-weight="700">月份季节性：PM10 平均浓度</text><line x1="60" y1="324.0" x2="876" y2="324.0" stroke="#e2e8f0"/><text x="52" y="328.0" text-anchor="end" font-size="11" fill="#64748b">0</text><line x1="60" y1="253.5" x2="876" y2="253.5" stroke="#e2e8f0"/><text x="52" y="257.5" text-anchor="end" font-size="11" fill="#64748b">43</text><line x1="60" y1="183.0" x2="876" y2="183.0" stroke="#e2e8f0"/><text x="52" y="187.0" text-anchor="end" font-size="11" fill="#64748b">86</text><line x1="60" y1="112.5" x2="876" y2="112.5" stroke="#e2e8f0"/><text x="52" y="116.5" text-anchor="end" font-size="11" fill="#64748b">129</text><line x1="60" y1="42.0" x2="876" y2="42.0" stroke="#e2e8f0"/><text x="52" y="46.0" text-anchor="end" font-size="11" fill="#64748b">172</text><rect x="72.2" y="286.2" width="21.8" height="37.8" fill="#dc2626" opacity=".86" rx="2"/><text x="83.1" y="279.2" text-anchor="middle" font-size="9.5" font-weight="700" fill="#334155">23</text><rect x="94.0" y="89.0" width="21.8" height="235.0" fill="#2563eb" opacity=".86" rx="2"/><text x="104.9" y="82.0" text-anchor="middle" font-size="9.5" font-weight="700" fill="#334155">143</text><text x="94.0" y="366" text-anchor="middle" font-size="11" fill="#64748b">1月</text><rect x="140.2" y="280.0" width="21.8" height="44.0" fill="#dc2626" opacity=".86" rx="2"/><text x="151.1" y="273.0" text-anchor="middle" font-size="9.5" font-weight="700" fill="#334155">27</text><rect x="162.0" y="114.0" width="21.8" height="210.0" fill="#2563eb" opacity=".86" rx="2"/><text x="172.9" y="107.0" text-anchor="middle" font-size="9.5" font-weight="700" fill="#334155">128</text><text x="162.0" y="366" text-anchor="middle" font-size="11" fill="#64748b">2月</text><rect x="208.2" y="286.9" width="21.8" height="37.1" fill="#dc2626" opacity=".86" rx="2"/><text x="219.1" y="279.9" text-anchor="middle" font-size="9.5" font-weight="700" fill="#334155">23</text><rect x="230.0" y="153.6" width="21.8" height="170.4" fill="#2563eb" opacity=".86" rx="2"/><text x="240.9" y="146.6" text-anchor="middle" font-size="9.5" font-weight="700" fill="#334155">104</text><text x="230.0" y="366" text-anchor="middle" font-size="11" fill="#64748b">3月</text><rect x="276.2" y="291.8" width="21.8" height="32.2" fill="#dc2626" opacity=".86" rx="2"/><text x="287.1" y="284.8" text-anchor="middle" font-size="9.5" font-weight="700" fill="#334155">20</text><rect x="298.0" y="192.4" width="21.8" height="131.6" fill="#2563eb" opacity=".86" rx="2"/><text x="308.9" y="185.4" text-anchor="middle" font-size="9.5" font-weight="700" fill="#334155">80</text><text x="298.0" y="366" text-anchor="middle" font-size="11" fill="#64748b">4月</text><rect x="344.2" y="291.6" width="21.8" height="32.4" fill="#dc2626" opacity=".86" rx="2"/><text x="355.1" y="284.6" text-anchor="middle" font-size="9.5" font-weight="700" fill="#334155">20</text><rect x="366.0" y="204.9" width="21.8" height="119.1" fill="#2563eb" opacity=".86" rx="2"/><text x="376.9" y="197.9" text-anchor="middle" font-size="9.5" font-weight="700" fill="#334155">72</text><text x="366.0" y="366" text-anchor="middle" font-size="11" fill="#64748b">5月</text><rect x="412.2" y="288.5" width="21.8" height="35.5" fill="#dc2626" opacity=".86" rx="2"/><text x="423.1" y="281.5" text-anchor="middle" font-size="9.5" font-weight="700" fill="#334155">22</text><rect x="434.0" y="209.0" width="21.8" height="115.0" fill="#2563eb" opacity=".86" rx="2"/><text x="444.9" y="202.0" text-anchor="middle" font-size="9.5" font-weight="700" fill="#334155">70</text><text x="434.0" y="366" text-anchor="middle" font-size="11" fill="#64748b">6月</text><rect x="480.2" y="289.3" width="21.8" height="34.7" fill="#dc2626" opacity=".86" rx="2"/><text x="491.1" y="282.3" text-anchor="middle" font-size="9.5" font-weight="700" fill="#334155">21</text><rect x="502.0" y="191.2" width="21.8" height="132.8" fill="#2563eb" opacity=".86" rx="2"/><text x="512.9" y="184.2" text-anchor="middle" font-size="9.5" font-weight="700" fill="#334155">81</text><text x="502.0" y="366" text-anchor="middle" font-size="11" fill="#64748b">7月</text><rect x="548.2" y="289.0" width="21.8" height="35.0" fill="#dc2626" opacity=".86" rx="2"/><text x="559.1" y="282.0" text-anchor="middle" font-size="9.5" font-weight="700" fill="#334155">21</text><rect x="570.0" y="163.9" width="21.8" height="160.1" fill="#2563eb" opacity=".86" rx="2"/><text x="580.9" y="156.9" text-anchor="middle" font-size="9.5" font-weight="700" fill="#334155">97</text><text x="570.0" y="366" text-anchor="middle" font-size="11" fill="#64748b">8月</text><rect x="616.2" y="294.6" width="21.8" height="29.4" fill="#dc2626" opacity=".86" rx="2"/><text x="627.1" y="287.6" text-anchor="middle" font-size="9.5" font-weight="700" fill="#334155">18</text><rect x="638.0" y="156.7" width="21.8" height="167.3" fill="#2563eb" opacity=".86" rx="2"/><text x="648.9" y="149.7" text-anchor="middle" font-size="9.5" font-weight="700" fill="#334155">102</text><text x="638.0" y="366" text-anchor="middle" font-size="11" fill="#64748b">9月</text><rect x="684.2" y="288.5" width="21.8" height="35.5" fill="#dc2626" opacity=".86" rx="2"/><text x="695.1" y="281.5" text-anchor="middle" font-size="9.5" font-weight="700" fill="#334155">22</text><rect x="706.0" y="140.6" width="21.8" height="183.4" fill="#2563eb" opacity=".86" rx="2"/><text x="716.9" y="133.6" text-anchor="middle" font-size="9.5" font-weight="700" fill="#334155">112</text><text x="706.0" y="366" text-anchor="middle" font-size="11" fill="#64748b">10月</text><rect x="752.2" y="292.8" width="21.8" height="31.2" fill="#dc2626" opacity=".86" rx="2"/><text x="763.1" y="285.8" text-anchor="middle" font-size="9.5" font-weight="700" fill="#334155">19</text><rect x="774.0" y="113.2" width="21.8" height="210.8" fill="#2563eb" opacity=".86" rx="2"/><text x="784.9" y="106.2" text-anchor="middle" font-size="9.5" font-weight="700" fill="#334155">128</text><text x="774.0" y="366" text-anchor="middle" font-size="11" fill="#64748b">11月</text><rect x="820.2" y="287.7" width="21.8" height="36.3" fill="#dc2626" opacity=".86" rx="2"/><text x="831.1" y="280.7" text-anchor="middle" font-size="9.5" font-weight="700" fill="#334155">22</text><rect x="842.0" y="113.7" width="21.8" height="210.3" fill="#2563eb" opacity=".86" rx="2"/><text x="852.9" y="106.7" text-anchor="middle" font-size="9.5" font-weight="700" fill="#334155">128</text><text x="842.0" y="366" text-anchor="middle" font-size="11" fill="#64748b">12月</text><circle cx="60" cy="384" r="5" fill="#dc2626"/><text x="70" y="388" font-size="12">巴塞罗那</text><circle cx="180" cy="384" r="5" fill="#2563eb"/><text x="190" y="388" font-size="12">北京</text></svg>