<svg viewBox="0 0 900 340" class="chart"><rect width="900" height="340" fill="white" rx="16"/><text x="64" y="24" font-size="17" font-weight="700">30日滚动 PM2.5：雾霾过程的季节波动</text><line x1="64" y1="292.0" x2="876" y2="292.0" stroke="#e2e8f0"/><text x="56" y="296.0" text-anchor="end" font-size="11" fill="#64748b">0</text><line x1="64" y1="229.5" x2="876" y2="229.5" stroke="#e2e8f0"/><text x="56" y="233.5" text-anchor="end" font-size="11" fill="#64748b">44</text><line x1="64" y1="167.0" x2="876" y2="167.0" stroke="#e2e8f0"/><text x="56" y="171.0" text-anchor="end" font-size="11" fill="#64748b">87</text><line x1="64" y1="104.5" x2="876" y2="104.5" stroke="#e2e8f0"/><text x="56" y="108.5" text-anchor="end" font-size="11" fill="#64748b">131</text><line x1="64" y1="42.0" x2="876" y2="42.0" stroke="#e2e8f0"/><text x="56" y="46.0" text-anchor="end" font-size="11" fill="#64748b">174</text><text x="64.0" y="322" text-anchor="middle" font-size="11" fill="#64748b">2021</text><text x="226.4" y="322" text-anchor="middle" font-size="11" fill="#64748b">2022</text><text x="388.8" y="322" text-anchor="middle" font-size="11" fill="#64748b">2023</text><text x="551.2" y="322" text-anchor="middle" font-size="11" fill="#64748b">2024</text><text x="714.0" y="322" text-anchor="middle" font-size="11" fill="#64748b">2025</text><polyline points="68.0,271.8 68.4,271.6 68.9,271.5 69.3,271.0 69.8,270.9 70.2,270.8 70.7,270.6 71.1,270.7 71.6,270.4 72.0,270.1 72.5,269.9 72.9,270.1 73.3,270.7 73.8,271.3 74.2,271.9 74.7,272.4 75.1,272.6 75.6,272.4 76.0,272.0 76.5,272.0 76.9,272.2 77.3,272.5 77.8,272.6 78.2,272.7 78.7,272.9 79.1,272.5 79.6,272.5 80.0,271.7 80.5,272.1 80.9,272.0 81.4,272.0 81.8,272.4 82.2,272.6 82.7,272.3 83.1,272.6 83.6,272.9 84.0,273.3 84.5,273.6 84.9,273.5 85.4,273.5 85.8,273.1 86.2,272.5 86.7,272.0 87.1,270.5 87.6,269.7 88.0,269.2 88.5,268.6 88.9,268.1 89.4,267.6 89.8,267.2 90.3,266.7 90.7,266.1 91.1,265.3 91.6,264.3 92.0,263.4 92.5,263.3 92.9,263.2 93.4,263.9 93.8,263.7 94.3,263.1 94.7,262.6 95.1,262.3 95.6,262.4 96.0,263.1 96.5,263.1 96.9,262.8 97.4,262.7 97.8,262.6 98.3,263.2 98.7,263.6 99.1,264.2 99.6,264.7 100.0,264.8 100.5,265.5 100.9,265.6 101.4,265.3 101.8,265.6 102.3,266.0 102.7,266.6 103.2,267.0 103.6,266.9 104.0,266.8 104.5,267.3 104.9,267.9 105.4,268.7 105.8,269.1 106.3,269.4 106.7,269.8 107.2,270.2 107.6,270.5 108.0,270.8 108.5,270.9 108.9,271.0 109.4,271.0 109.8,270.9 110.3,271.0 110.7,271.0 111.2,270.9 111.6,270.7 112.1,270.4 112.5,270.3 112.9,270.6 113.4,270.9 113.8,271.0 114.3,271.2 114.7,271.6 115.2,271.9 115.6,272.1 116.1,272.2 116.5,272.4 116.9,272.7 117.4,273.4 117.8,273.8 118.3,274.1 118.7,274.3 119.2,274.4 119.6,274.5 120.1,274.1 120.5,274.0 121.0,273.9 121.4,273.9 121.8,274.2 122.3,274.0 122.7,274.2 123.2,274.4 123.6,274.6 124.1,274.8 124.5,275.0 125.0,275.1 125.4,275.5 125.8,275.9 126.3,275.9 126.7,276.0 127.2,276.4 127.6,276.9 128.1,277.2 128.5,277.1 129.0,277.1 129.4,277.0 129.8,277.0 130.3,277.0 130.7,276.7 131.2,276.4 131.6,276.3 132.1,276.3 132.5,276.4 133.0,276.5 133.4,276.9 133.9,277.0 134.3,276.8 134.7,276.8 135.2,276.4 135.6,276.1 136.1,275.6 136.5,275.2 137.0,274.9 137.4,274.5 137.9,274.1 138.3,273.8 138.7,273.3 139.2,272.7 139.6,272.2 140.1,272.0 140.5,272.0 141.0,271.9 141.4,271.8 141.9,271.8 142.3,272.0 142.8,272.4 143.2,272.5 143.6,272.9 144.1,273.1 144.5,273.1 145.0,273.1 145.4,273.2 145.9,273.1 146.3,273.1 146.8,272.8 147.2,273.0 147.6,273.3 148.1,273.6 148.5,273.8 149.0,274.0 149.4,274.3 149.9,274.7 150.3,274.9 150.8,275.2 151.2,275.6 151.7,275.7 152.1,276.0 152.5,276.3 153.0,276.5 153.4,276.4 153.9,276.0 154.3,275.6 154.8,275.3 155.2,275.2 155.7,275.1 156.1,275.0 156.5,274.9 157.0,274.6 157.4,274.3 157.9,274.5 158.3,274.8 158.8,275.1 159.2,275.3 159.7,275.5 160.1,275.7 160.6,275.7 161.0,275.6 161.4,275.7 161.9,275.8 162.3,275.7 162.8,275.3 163.2,274.5 163.7,273.8 164.1,272.9 164.6,272.1 165.0,271.9 165.4,272.0 165.9,272.2 166.3,272.2 166.8,272.2 167.2,272.4 167.7,272.6 168.1,272.7 168.6,272.8 169.0,272.9 169.4,272.9 169.9,272.8 170.3,273.0 170.8,273.3 171.2,273.2 171.7,273.1 172.1,273.0 172.6,273.0 173.0,272.7 173.5,272.6 173.9,272.3 174.3,272.0 174.8,271.7 175.2,271.4 175.7,271.3 176.1,271.5 176.6,272.1 177.0,272.7 177.5,273.4 177.9,274.0 178.3,274.1 178.8,274.1 179.2,274.0 179.7,274.0 180.1,274.4 180.6,274.7 181.0,275.0 181.5,275.3 181.9,275.3 182.4,275.4 182.8,275.1 183.2,275.2 183.7,274.8 184.1,274.5 184.6,274.5 185.0,274.4 185.5,274.3 185.9,274.1 186.4,274.2 186.8,274.5 187.2,274.9 187.7,275.3 188.1,275.4 188.6,275.7 189.0,275.8 189.5,276.0 189.9,275.8 190.4,275.3 190.8,275.1 191.3,275.2 191.7,275.3 192.1,275.1 192.6,274.8 193.0,274.6 193.5,274.0 193.9,274.0 194.4,273.9 194.8,273.7 195.3,273.4 195.7,273.1 196.1,273.0 196.6,272.6 197.0,272.5 197.5,272.4 197.9,272.0 198.4,272.0 198.8,271.9 199.3,272.3 199.7,272.6 200.1,272.5 200.6,272.4 201.0,271.9 201.5,272.0 201.9,272.0 202.4,272.0 202.8,271.9 203.3,272.3 203.7,273.1 204.2,273.2 204.6,273.0 205.0,273.0 205.5,273.2 205.9,273.1 206.4,273.1 206.8,272.8 207.3,271.8 207.7,270.8 208.2,270.1 208.6,270.0 209.0,270.3 209.5,270.9 209.9,271.7 210.4,272.1 210.8,272.5 211.3,273.1 211.7,273.2 212.2,272.9 212.6,272.5 213.1,272.3 213.5,272.0 213.9,272.0 214.4,272.6 214.8,272.6 215.3,272.6 215.7,272.7 216.2,273.0 216.6,273.1 217.1,273.0 217.5,272.7 217.9,272.6 218.4,271.6 218.8,270.5 219.3,269.8 219.7,269.1 220.2,268.9 220.6,269.0 221.1,269.4 221.5,269.7 222.0,268.9 222.4,268.3 222.8,267.5 223.3,267.2 223.7,267.0 224.2,266.9 224.6,266.7 225.1,266.5 225.5,266.5 226.0,266.0 226.4,265.3 226.8,265.0 227.3,264.2 227.7,263.7 228.2,263.6 228.6,263.7 229.1,263.2 229.5,263.0 230.0,263.0 230.4,262.9 230.8,263.2 231.3,263.3 231.7,263.6 232.2,264.1 232.6,264.6 233.1,264.8 233.5,265.1 234.0,265.4 234.4,265.0 234.9,264.7 235.3,265.0 235.7,265.1 236.2,264.9 236.6,264.3 237.1,263.6 237.5,262.8 238.0,262.0 238.4,261.2 238.9,261.0 239.3,261.1 239.7,261.2 240.2,261.2 240.6,261.7 241.1,261.1 241.5,260.4 242.0,260.0 242.4,260.0 242.9,259.6 243.3,258.7 243.8,258.3 244.2,258.0 244.6,257.4 245.1,257.9 245.5,258.6 246.0,259.1 246.4,260.0 246.9,260.4 247.3,260.6 247.8,261.0 248.2,261.7 248.6,262.4 249.1,262.7 249.5,263.1 250.0,263.4 250.4,264.1 250.9,264.0 251.3,264.8 251.8,265.5 252.2,266.2 252.7,266.5 253.1,266.6 253.5,266.8 254.0,266.6 254.4,267.3 254.9,268.1 255.3,268.2 255.8,268.2 256.2,268.3 256.7,268.9 257.1,269.1 257.5,269.5 258.0,270.4 258.4,270.9 258.9,270.8 259.3,270.6 259.8,270.4 260.2,270.3 260.7,270.2 261.1,270.5 261.5,270.8 262.0,270.7 262.4,270.8 262.9,270.9 263.3,271.2 263.8,271.3 264.2,271.8 264.7,271.2 265.1,270.8 265.6,270.7 266.0,270.9 266.4,271.5 266.9,271.9 267.3,272.5 267.8,272.7 268.2,272.5 268.7,272.4 269.1,272.4 269.6,272.5 270.0,272.9 270.4,273.1 270.9,272.9 271.3,273.0 271.8,273.0 272.2,273.0 272.7,272.7 273.1,272.5 273.6,272.4 274.0,272.4 274.5,272.2 274.9,272.4 275.3,272.6 275.8,272.6 276.2,272.9 276.7,273.3 277.1,273.3 277.6,273.2 278.0,273.4 278.5,273.6 278.9,273.4 279.3,273.1 279.8,272.7 280.2,272.2 280.7,272.0 281.1,271.9 281.6,271.8 282.0,272.0 282.5,272.1 282.9,271.9 283.4,271.4 283.8,271.0 284.2,271.0 284.7,270.8 285.1,270.3 285.6,269.9 286.0,270.1 286.5,270.0 286.9,269.9 287.4,269.4 287.8,269.4 288.2,269.0 288.7,268.6 289.1,268.4 289.6,268.1 290.0,268.0 290.5,268.3 290.9,268.8 291.4,269.2 291.8,269.3 292.2,269.6 292.7,270.0 293.1,270.1 293.6,270.0 294.0,269.7 294.5,269.5 294.9,269.5 295.4,269.4 295.8,269.3 296.3,269.4 296.7,269.7 297.1,269.9 297.6,270.0 298.0,270.1 298.5,270.4 298.9,270.7 299.4,270.7 299.8,271.0 300.3,271.4 300.7,271.8 301.1,271.9 301.6,272.1 302.0,272.2 302.5,272.1 302.9,272.0 303.4,271.8 303.8,271.5 304.3,271.4 304.7,271.4 305.2,271.5 305.6,271.6 306.0,271.5 306.5,271.7 306.9,272.2 307.4,272.6 307.8,272.9 308.3,273.1 308.7,273.3 309.2,273.5 309.6,273.7 310.0,273.8 310.5,273.7 310.9,273.6 311.4,273.6 311.8,273.4 312.3,273.3 312.7,273.4 313.2,273.3 313.6,273.3 314.1,273.5 314.5,273.5 314.9,273.3 315.4,273.2 315.8,273.1 316.3,273.2 316.7,273.2 317.2,273.2 317.6,273.0 318.1,273.0 318.5,273.1 318.9,273.1 319.4,273.1 319.8,273.1 320.3,272.9 320.7,272.8 321.2,272.6 321.6,272.5 322.1,272.6 322.5,272.5 323.0,272.2 323.4,272.2 323.8,272.3 324.3,272.2 324.7,272.2 325.2,272.2 325.6,272.3 326.1,272.3 326.5,272.3 327.0,272.5 327.4,272.6 327.8,272.8 328.3,273.1 328.7,273.6 329.2,273.9 329.6,274.1 330.1,274.2 330.5,274.2 331.0,274.4 331.4,274.5 331.8,274.4 332.3,274.3 332.7,274.2 333.2,274.3 333.6,274.3 334.1,274.3 334.5,274.5 335.0,274.3 335.4,274.4 335.9,274.5 336.3,274.6 336.7,274.4 337.2,274.1 337.6,274.3 338.1,274.3 338.5,274.7 339.0,274.8 339.4,274.8 339.9,275.0 340.3,274.9 340.7,274.9 341.2,274.9 341.6,275.0 342.1,275.1 342.5,275.1 343.0,275.2 343.4,275.2 343.9,275.4 344.3,275.5 344.8,275.7 345.2,275.9 345.6,276.1 346.1,276.3 346.5,276.5 347.0,276.7 347.4,277.0 347.9,277.1 348.3,277.4 348.8,277.1 349.2,277.2 349.6,277.3 350.1,277.7 350.5,278.1 351.0,278.3 351.4,278.2 351.9,277.8 352.3,277.9 352.8,277.9 353.2,277.6 353.7,277.1 354.1,276.8 354.5,276.8 355.0,276.5 355.4,276.0 355.9,275.5 356.3,274.8 356.8,274.4 357.2,274.3 357.7,274.0 358.1,273.5 358.5,273.0 359.0,272.4 359.4,271.7 359.9,271.2 360.3,270.5 360.8,269.9 361.2,269.4 361.7,269.2 362.1,269.3 362.5,269.0 363.0,269.2 363.4,269.3 363.9,269.2 364.3,268.7 364.8,268.6 365.2,268.6 365.7,268.6 366.1,268.7 366.6,269.0 367.0,269.3 367.4,269.5 367.9,269.3 368.3,269.6 368.8,270.1 369.2,270.7 369.7,271.5 370.1,271.9 370.6,271.9 371.0,272.4 371.4,272.7 371.9,272.9 372.3,273.0 372.8,273.5 373.2,273.6 373.7,274.0 374.1,274.5 374.6,274.7 375.0,274.8 375.5,274.8 375.9,274.7 376.3,274.2 376.8,273.8 377.2,273.6 377.7,273.2 378.1,272.8 378.6,273.0 379.0,273.0 379.5,272.9 379.9,272.7 380.3,272.9 380.8,272.9 381.2,273.0 381.7,272.7 382.1,272.4 382.6,271.9 383.0,271.5 383.5,271.0 383.9,270.9 384.4,270.5 384.8,270.3 385.2,270.5 385.7,270.7 386.1,270.4 386.6,270.1 387.0,269.8 387.5,269.5 387.9,269.6 388.4,269.6 388.8,268.9 389.2,267.8 389.7,267.0 390.1,266.3 390.6,265.9 391.0,265.7 391.5,266.0 391.9,266.0 392.4,266.0 392.8,265.9 393.2,265.5 393.7,265.1 394.1,264.5 394.6,264.1 395.0,264.1 395.5,264.5 395.9,265.1 396.4,265.6 396.8,266.1 397.3,266.4 397.7,266.6 398.1,266.6 398.6,266.3 399.0,265.7 399.5,265.6 399.9,265.6 400.4,265.3 400.8,265.1 401.3,264.8 401.7,264.4 402.1,264.6 402.6,265.2 403.0,265.5 403.5,265.5 403.9,265.5 404.4,265.9 404.8,266.4 405.3,266.6 405.7,266.6 406.2,266.6 406.6,266.5 407.0,265.9 407.5,265.5 407.9,265.0 408.4,264.0 408.8,262.9 409.3,261.3 409.7,259.8 410.2,258.8 410.6,257.8 411.0,256.6 411.5,255.3 411.9,254.6 412.4,254.2 412.8,254.3 413.3,254.4 413.7,254.9 414.2,255.4 414.6,255.9 415.1,256.2 415.5,256.1 415.9,256.0 416.4,256.0 416.8,255.9 417.3,255.8 417.7,255.6 418.2,255.4 418.6,255.2 419.1,255.3 419.5,255.6 419.9,256.3 420.4,257.1 420.8,258.3 421.3,259.2 421.7,260.0 422.2,261.0 422.6,262.1 423.1,263.1 423.5,263.8 423.9,264.4 424.4,265.2 424.8,266.1 425.3,266.7 425.7,267.8 426.2,267.9 426.6,268.5 427.1,268.8 427.5,268.7 428.0,268.4 428.4,268.4 428.8,268.9 429.3,270.0 429.7,271.0 430.2,271.8 430.6,272.5 431.1,272.8 431.5,272.8 432.0,272.8 432.4,272.5 432.8,272.1 433.3,271.5 433.7,271.4 434.2,271.5 434.6,271.7 435.1,272.1 435.5,272.1 436.0,272.3 436.4,272.3 436.9,272.0 437.3,272.0 437.7,272.2 438.2,272.3 438.6,272.5 439.1,272.4 439.5,272.1 440.0,271.8 440.4,271.6 440.9,271.1 441.3,271.0 441.7,271.2 442.2,271.3 442.6,270.9 443.1,270.8 443.5,270.5 444.0,270.3 444.4,270.2 444.9,270.3 445.3,270.3 445.8,270.2 446.2,270.6 446.6,271.4 447.1,271.9 447.5,271.7 448.0,271.6 448.4,271.3 448.9,271.2 449.3,271.2 449.8,271.4 450.2,271.6 450.6,271.9 451.1,271.8 451.5,271.7 452.0,271.8 452.4,271.3 452.9,271.6 453.3,271.4 453.8,271.0 454.2,271.0 454.6,270.8 455.1,270.1 455.5,269.7 456.0,269.7 456.4,269.2 456.9,269.2 457.3,269.6 457.8,269.6 458.2,269.6 458.7,269.3 459.1,269.5 459.5,269.3 460.0,268.8 460.4,268.5 460.9,268.3 461.3,268.1 461.8,268.1 462.2,268.0 462.7,267.4 463.1,267.3 463.5,267.3 464.0,267.2 464.4,267.0 464.9,266.9 465.3,267.0 465.8,267.4 466.2,267.4 466.7,267.6 467.1,268.0 467.6,268.3 468.0,268.5 468.4,268.9 468.9,269.2 469.3,269.4 469.8,270.0 470.2,270.2 470.7,270.1 471.1,270.5 471.6,270.6 472.0,270.9 472.4,270.8 472.9,270.6 473.3,270.5 473.8,269.9 474.2,269.8 474.7,270.0 475.1,270.2 475.6,270.4 476.0,271.0 476.5,271.2 476.9,270.8 477.3,270.6 477.8,270.8 478.2,271.1 478.7,271.3 479.1,271.4 479.6,271.3 480.0,271.5 480.5,271.8 480.9,272.2 481.3,272.5 481.8,272.8 482.2,273.0 482.7,273.0 483.1,272.7 483.6,272.7 484.0,273.0 484.5,273.3 484.9,273.4 485.4,273.7 485.8,274.0 486.2,274.4 486.7,274.8 487.1,275.5 487.6,275.7 488.0,275.7 488.5,275.5 488.9,275.5 489.4,275.4 489.8,275.5 490.2,275.9 490.7,276.1 491.1,276.0 491.6,275.5 492.0,275.0 492.5,274.4 492.9,274.1 493.4,273.4 493.8,272.9 494.2,272.7 494.7,272.8 495.1,273.1 495.6,273.3 496.0,273.4 496.5,273.6 496.9,273.7 497.4,273.8 497.8,273.8 498.3,273.7 498.7,273.5 499.1,273.3 499.6,273.1 500.0,272.6 500.5,272.0 500.9,271.7 501.4,271.7 501.8,271.4 502.3,271.5 502.7,271.3 503.1,271.2 503.6,271.1 504.0,270.6 504.5,270.8 504.9,271.4 505.4,272.0 505.8,272.7 506.3,273.5 506.7,274.3 507.2,274.7 507.6,274.8 508.0,274.5 508.5,274.2 508.9,274.0 509.4,273.6 509.8,273.2 510.3,273.1 510.7,272.7 511.2,271.9 511.6,271.4 512.0,271.1 512.5,270.5 512.9,269.9 513.4,269.7 513.8,269.8 514.3,270.0 514.7,269.9 515.2,270.0 515.6,269.5 516.1,269.3 516.5,269.2 516.9,269.5 517.4,270.0 517.8,269.9 518.3,269.9 518.7,270.1 519.2,270.3 519.6,270.3 520.1,270.1 520.5,270.1 520.9,270.4 521.4,270.8 521.8,271.0 522.3,271.3 522.7,271.6 523.2,271.9 523.6,272.3 524.1,272.6 524.5,273.4 524.9,274.0 525.4,274.7 525.8,275.5 526.3,276.3 526.7,276.8 527.2,277.3 527.6,277.5 528.1,277.9 528.5,278.1 529.0,278.6 529.4,278.8 529.8,278.9 530.3,278.6 530.7,278.7 531.2,278.9 531.6,278.4 532.1,277.7 532.5,276.5 533.0,276.0 533.4,276.1 533.8,275.8 534.3,275.5 534.7,275.3 535.2,275.1 535.6,274.4 536.1,274.4 536.5,274.4 537.0,274.1 537.4,274.0 537.9,274.0 538.3,273.7 538.7,273.3 539.2,272.8 539.6,272.3 540.1,272.0 540.5,271.9 541.0,271.9 541.4,271.7 541.9,271.6 542.3,271.3 542.7,271.6 543.2,271.9 543.6,271.9 544.1,271.4 544.5,270.7 545.0,270.0 545.4,269.6 545.9,269.9 546.3,270.0 546.8,269.7 547.2,269.6 547.6,269.4 548.1,268.6 548.5,267.8 549.0,267.6 549.4,266.8 549.9,265.4 550.3,264.4 550.8,264.1 551.2,263.3 551.6,263.0 552.1,263.2 552.5,262.6 553.0,262.5 553.4,263.2 553.9,263.6 554.3,263.6 554.8,263.1 555.2,262.7 555.6,262.5 556.1,262.0 556.5,261.4 557.0,261.2 557.4,261.5 557.9,261.9 558.3,262.7 558.8,263.7 559.2,264.6 559.7,264.9 560.1,264.4 560.5,264.1 561.0,263.7 561.4,263.4 561.9,262.8 562.3,262.2 562.8,261.5 563.2,261.6 563.7,262.0 564.1,261.8 564.5,261.1 565.0,260.3 565.4,259.0 565.9,258.8 566.3,258.5 566.8,257.5 567.2,256.0 567.7,255.0 568.1,255.1 568.6,255.4 569.0,256.0 569.4,256.7 569.9,257.1 570.3,257.2 570.8,256.7 571.2,256.5 571.7,256.6 572.1,256.3 572.6,255.6 573.0,254.6 573.4,254.5 573.9,254.6 574.3,255.0 574.8,256.1 575.2,257.8 575.7,259.1 576.1,260.7 576.6,261.9 577.0,262.8 577.5,263.2 577.9,264.4 578.3,265.7 578.8,267.3 579.2,268.5 579.7,269.1 580.1,269.6 580.6,270.3 581.0,271.5 581.5,272.3 581.9,272.8 582.3,272.9 582.8,272.5 583.2,271.6 583.7,271.7 584.1,271.5 584.6,270.8 585.0,270.5 585.5,269.2 585.9,268.5 586.3,268.9 586.8,269.4 587.2,268.6 587.7,268.1 588.1,268.1 588.6,267.8 589.0,267.9 589.5,267.9 589.9,268.1 590.4,267.9 590.8,268.2 591.2,268.6 591.7,268.8 592.1,268.6 592.6,268.4 593.0,268.3 593.5,268.3 593.9,268.3 594.4,267.7 594.8,266.8 595.2,266.6 595.7,266.4 596.1,266.2 596.6,266.5 597.0,266.0 597.5,266.2 597.9,267.2 598.4,267.8 598.8,269.4 599.3,270.8 599.7,271.4 600.1,271.7 600.6,273.0 601.0,274.1 601.5,274.0 601.9,273.9 602.4,273.9 602.8,273.4 603.3,273.2 603.7,273.5 604.1,273.5 604.6,273.2 605.0,272.6 605.5,272.8 605.9,272.7 606.4,273.0 606.8,273.1 607.3,273.4 607.7,273.9 608.2,274.5 608.6,274.4 609.0,274.0 609.5,274.3 609.9,274.3 610.4,274.7 610.8,275.5 611.3,276.0 611.7,276.0 612.2,275.7 612.6,275.1 613.0,275.0 613.5,274.7 613.9,274.5 614.4,274.4 614.8,274.3 615.3,274.6 615.7,274.6 616.2,274.5 616.6,274.5 617.0,274.5 617.5,274.3 617.9,274.2 618.4,274.6 618.8,274.6 619.3,274.6 619.7,274.6 620.2,274.9 620.6,275.1 621.1,274.8 621.5,274.8 621.9,275.0 622.4,275.2 622.8,275.4 623.3,275.8 623.7,276.3 624.2,276.4 624.6,276.3 625.1,276.4 625.5,276.5 625.9,276.7 626.4,276.5 626.8,276.3 627.3,276.3 627.7,276.2 628.2,276.2 628.6,276.3 629.1,276.3 629.5,276.7 630.0,276.7 630.4,276.5 630.8,276.5 631.3,276.6 631.7,276.6 632.2,276.4 632.6,276.5 633.1,276.6 633.5,276.5 634.0,276.4 634.4,276.4 634.8,276.7 635.3,276.6 635.7,276.6 636.2,276.4 636.6,275.9 637.1,275.6 637.5,275.7 638.0,275.6 638.4,275.2 638.9,275.2 639.3,275.4 639.7,275.7 640.2,276.1 640.6,276.2 641.1,276.1 641.5,276.3 642.0,275.9 642.4,275.8 642.9,275.7 643.3,275.5 643.7,275.5 644.2,275.5 644.6,275.3 645.1,274.9 645.5,274.7 646.0,274.3 646.4,273.8 646.9,273.7 647.3,273.7 647.8,273.6 648.2,273.2 648.6,273.0 649.1,273.0 649.5,273.0 650.0,273.5 650.4,273.6 650.9,273.3 651.3,273.0 651.8,273.3 652.2,273.5 652.6,273.5 653.1,273.5 653.5,273.6 654.0,273.8 654.4,273.5 654.9,272.9 655.3,272.7 655.8,272.3 656.2,272.1 656.6,272.2 657.1,272.4 657.5,272.5 658.0,272.5 658.4,272.3 658.9,272.2 659.3,272.4 659.8,272.6 660.2,272.6 660.7,272.3 661.1,272.4 661.5,272.7 662.0,273.1 662.4,273.2 662.9,273.4 663.3,273.6 663.8,273.6 664.2,273.7 664.7,274.1 665.1,274.3 665.5,274.1 666.0,274.2 666.4,274.1 666.9,273.9 667.3,274.0 667.8,274.4 668.2,275.0 668.7,275.5 669.1,276.0 669.6,276.1 670.0,275.8 670.4,275.7 670.9,275.8 671.3,276.3 671.8,276.9 672.2,277.4 672.7,277.8 673.1,278.1 673.6,278.3 674.0,279.0 674.4,279.2 674.9,279.2 675.3,278.9 675.8,278.3 676.2,278.5 676.7,278.5 677.1,278.8 677.6,278.9 678.0,278.9 678.5,278.5 678.9,278.0 679.3,277.9 679.8,278.1 680.2,278.1 680.7,278.1 681.1,278.1 681.6,278.0 682.0,277.7 682.5,277.6 682.9,277.7 683.3,277.2 683.8,276.7 684.2,276.7 684.7,276.6 685.1,276.5 685.6,276.4 686.0,276.3 686.5,276.3 686.9,276.1 687.3,275.6 687.8,275.5 688.2,275.4 688.7,274.9 689.1,274.8 689.6,274.4 690.0,273.9 690.5,273.1 690.9,272.4 691.4,271.9 691.8,271.8 692.2,272.5 692.7,272.5 693.1,272.5 693.6,272.1 694.0,271.3 694.5,270.8 694.9,270.3 695.4,270.6 695.8,270.8 696.2,271.3 696.7,272.3 697.1,272.9 697.6,272.2 698.0,271.9 698.5,271.3 698.9,270.7 699.4,270.2 699.8,269.5 700.3,268.9 700.7,268.3 701.1,267.9 701.6,267.9 702.0,268.5 702.5,269.1 702.9,269.4 703.4,270.1 703.8,270.9 704.3,271.5 704.7,271.9 705.1,272.4 705.6,272.3 706.0,272.2 706.5,272.1 706.9,272.4 707.4,272.9 707.8,273.1 708.3,273.3 708.7,273.3 709.2,273.0 709.6,272.8 710.0,272.8 710.5,272.7 710.9,273.1 711.4,272.6 711.8,272.4 712.3,272.3 712.7,272.2 713.2,272.1 713.6,271.9 714.0,271.8 714.5,271.7 714.9,271.4 715.4,271.2 715.8,271.2 716.3,271.1 716.7,270.8 717.2,270.8 717.6,271.0 718.0,271.0 718.5,271.0 718.9,271.1 719.4,271.0 719.8,270.8 720.3,270.4 720.7,270.3 721.2,270.7 721.6,270.9 722.1,270.4 722.5,269.9 722.9,269.2 723.4,268.6 723.8,268.4 724.3,268.4 724.7,268.9 725.2,269.7 725.6,270.5 726.1,271.3 726.5,272.4 726.9,273.4 727.4,274.1 727.8,274.7 728.3,274.8 728.7,274.8 729.2,274.4 729.6,273.7 730.1,272.3 730.5,271.1 731.0,271.0 731.4,270.8 731.8,270.3 732.3,270.0 732.7,269.9 733.2,270.1 733.6,269.9 734.1,269.9 734.5,269.4 735.0,268.8 735.4,268.5 735.8,268.6 736.3,268.9 736.7,269.0 737.2,269.3 737.6,269.3 738.1,269.2 738.5,268.8 739.0,268.7 739.4,267.9 739.9,267.3 740.3,267.4 740.7,267.7 741.2,267.7 741.6,268.0 742.1,268.3 742.5,269.0 743.0,270.1 743.4,271.4 743.9,272.6 744.3,272.4 744.7,272.5 745.2,272.8 745.6,272.9 746.1,273.4 746.5,273.7 747.0,274.3 747.4,274.4 747.9,274.5 748.3,275.5 748.7,276.1 749.2,276.4 749.6,276.9 750.1,277.4 750.5,277.3 751.0,277.3 751.4,277.3 751.9,276.9 752.3,276.1 752.8,276.5 753.2,277.0 753.6,276.7 754.1,276.2 754.5,276.3 755.0,276.4 755.4,276.3 755.9,276.1 756.3,275.8 756.8,275.5 757.2,274.8 757.6,274.3 758.1,274.3 758.5,274.0 759.0,274.0 759.4,273.5 759.9,273.3 760.3,273.4 760.8,273.7 761.2,274.2 761.7,273.9 762.1,273.8 762.5,274.2 763.0,274.1 763.4,273.8 763.9,273.7 764.3,273.8 764.8,273.9 765.2,274.4 765.7,275.1 766.1,275.1 766.5,274.6 767.0,274.8 767.4,275.2 767.9,275.0 768.3,274.4 768.8,274.1 769.2,274.4 769.7,274.7 770.1,274.8 770.6,275.1 771.0,275.9 771.4,276.2 771.9,276.6 772.3,276.8 772.8,276.9 773.2,277.0 773.7,277.0 774.1,276.8 774.6,276.5 775.0,276.5 775.4,276.5 775.9,276.4 776.3,276.2 776.8,276.6 777.2,276.8 777.7,276.8 778.1,277.0 778.6,276.9 779.0,276.9 779.4,276.8 779.9,276.9 780.3,276.8 780.8,276.9 781.2,277.0 781.7,277.4 782.1,277.7 782.6,277.6 783.0,277.4 783.5,277.3 783.9,277.2 784.3,277.0 784.8,276.9 785.2,276.7 785.7,276.5 786.1,276.6 786.6,276.4 787.0,276.3 787.5,276.2 787.9,276.3 788.3,276.4 788.8,276.2 789.2,275.9 789.7,275.9 790.1,275.8 790.6,275.7 791.0,275.6 791.5,275.6 791.9,275.6 792.4,275.5 792.8,275.6 793.2,275.8 793.7,275.8 794.1,275.7 794.6,275.3 795.0,275.2 795.5,274.9 795.9,274.8 796.4,274.6 796.8,274.7 797.2,275.2 797.7,275.4 798.1,275.6 798.6,275.9 799.0,276.0 799.5,276.2 799.9,276.6 800.4,276.6 800.8,276.6 801.3,276.6 801.7,276.5 802.1,276.7 802.6,276.9 803.0,277.0 803.5,277.3 803.9,277.4 804.4,277.6 804.8,278.0 805.3,278.3 805.7,278.4 806.1,278.4 806.6,278.7 807.0,278.8 807.5,279.1 807.9,279.3 808.4,279.5 808.8,279.8 809.3,280.1 809.7,280.4 810.2,280.5 810.6,280.4 811.0,280.1 811.5,279.7 811.9,279.3 812.4,279.0 812.8,278.4 813.3,277.6 813.7,277.1 814.2,276.8 814.6,276.4 815.0,276.2 815.5,275.9 815.9,275.4 816.4,275.1 816.8,274.9 817.3,275.0 817.7,275.1 818.2,274.9 818.6,274.7 819.0,274.5 819.5,274.3 819.9,274.0 820.4,273.7 820.8,273.7 821.3,273.9 821.7,273.9 822.2,274.0 822.6,274.0 823.1,274.0 823.5,274.0 823.9,274.1 824.4,274.3 824.8,274.7 825.3,275.0 825.7,275.5 826.2,276.0 826.6,276.9 827.1,277.6 827.5,278.1 827.9,278.8 828.4,279.0 828.8,279.3 829.3,279.7 829.7,279.4 830.2,278.9 830.6,278.9 831.1,278.7 831.5,278.9 832.0,279.2 832.4,279.5 832.8,280.0 833.3,280.3 833.7,280.6 834.2,280.6 834.6,280.6 835.1,280.3 835.5,279.9 836.0,279.6 836.4,279.3 836.8,278.8 837.3,278.8 837.7,278.7 838.2,278.4 838.6,278.0 839.1,277.2 839.5,276.8 840.0,276.7 840.4,276.8 840.9,276.6 841.3,276.5 841.7,276.4 842.2,275.9 842.6,275.2 843.1,275.2 843.5,275.6 844.0,275.6 844.4,275.7 844.9,275.6 845.3,275.7 845.7,275.7 846.2,275.6 846.6,275.7 847.1,275.7 847.5,275.4 848.0,275.3 848.4,275.5 848.9,275.7 849.3,275.8 849.7,276.4 850.2,276.9 850.6,276.6 851.1,276.3 851.5,276.8 852.0,277.2 852.4,277.8 852.9,278.3 853.3,278.1 853.8,277.6 854.2,277.1 854.6,277.0 855.1,276.9 855.5,277.5 856.0,278.5 856.4,279.0 856.9,278.8 857.3,278.6 857.8,278.4 858.2,278.3 858.6,278.2 859.1,278.1 859.5,278.2 860.0,278.2 860.4,278.3 860.9,278.5 861.3,278.4 861.8,278.1 862.2,277.9 862.7,277.6 863.1,277.3 863.5,277.0 864.0,277.1 864.4,277.3 864.9,276.8 865.3,276.4 865.8,276.1 866.2,275.6 866.7,275.2 867.1,274.9 867.5,274.4 868.0,274.3 868.4,274.3 868.9,274.3 869.3,273.7 869.8,273.4 870.2,272.4 870.7,271.3 871.1,270.7 871.6,270.2 872.0,270.0 872.4,269.8 872.9,269.6 873.3,269.1 873.8,269.2 874.2,269.4 874.7,269.7 875.1,269.7 875.6,269.4 876.0,269.2" fill="none" stroke="#dc2626" stroke-width="2" stroke-linecap="round"/><polyline points="326.1,193.9 326.5,195.2 327.0,199.3 327.4,203.4 327.8,203.6 328.3,202.5 328.7,204.7 329.2,206.4 329.6,206.7 330.1,208.5 330.5,211.5 331.0,212.5 331.4,214.1 331.8,215.9 332.3,217.5 332.7,217.1 333.2,216.9 333.6,215.2 334.1,215.7 334.5,217.0 335.0,216.4 335.4,216.2 335.9,217.4 336.3,221.1 336.7,222.1 337.2,222.8 337.6,222.1 338.1,219.9 338.5,217.7 339.0,217.8 339.4,217.1 339.9,215.1 340.3,212.9 340.7,212.0 341.2,211.6 341.6,211.0 342.1,210.9 342.5,212.1 343.0,214.0 343.4,213.7 343.9,213.2 344.3,214.6 344.8,214.1 345.2,211.5 345.6,208.3 346.1,206.8 346.5,204.7 347.0,203.6 347.4,201.6 347.9,198.9 348.3,199.9 348.8,203.0 349.2,205.2 349.6,204.7 350.1,203.3 350.5,201.6 351.0,201.1 351.4,205.5 351.9,209.4 352.3,209.8 352.8,209.7 353.2,208.3 353.7,204.5 354.1,200.0 354.5,202.2 355.0,205.1 355.4,204.7 355.9,201.3 356.3,197.3 356.8,193.1 357.2,192.5 357.7,190.8 358.1,189.1 358.5,186.9 359.0,187.2 359.4,190.1 359.9,191.1 360.3,192.2 360.8,191.2 361.2,192.7 361.7,192.6 362.1,190.5 362.5,188.8 363.0,189.1 363.4,189.1 363.9,184.9 364.3,185.9 364.8,181.1 365.2,174.5 365.7,170.2 366.1,169.6 366.6,175.0 367.0,181.2 367.4,184.4 367.9,182.9 368.3,179.4 368.8,175.8 369.2,175.5 369.7,173.8 370.1,173.4 370.6,171.2 371.0,167.6 371.4,164.8 371.9,162.9 372.3,163.2 372.8,163.2 373.2,163.2 373.7,163.9 374.1,168.6 374.6,169.9 375.0,169.3 375.5,168.0 375.9,168.4 376.3,166.0 376.8,165.3 377.2,169.3 377.7,167.6 378.1,168.6 378.6,172.6 379.0,178.7 379.5,181.9 379.9,179.8 380.3,180.6 380.8,184.1 381.2,186.6 381.7,190.5 382.1,196.0 382.6,196.5 383.0,197.0 383.5,197.3 383.9,199.8 384.4,205.1 384.8,210.6 385.2,216.2 385.7,216.0 386.1,213.9 386.6,216.0 387.0,216.2 387.5,214.5 387.9,212.3 388.4,211.8 388.8,212.6 389.2,211.8 389.7,211.5 390.1,207.6 390.6,201.8 391.0,200.2 391.5,199.1 391.9,198.7 392.4,196.8 392.8,193.6 393.2,187.2 393.7,179.4 394.1,175.0 394.6,174.4 395.0,173.0 395.5,168.3 395.9,169.3 396.4,170.3 396.8,174.4 397.3,174.8 397.7,171.5 398.1,166.7 398.6,167.7 399.0,170.5 399.5,170.4 399.9,169.6 400.4,171.6 400.8,171.6 401.3,172.4 401.7,169.3 402.1,169.3 402.6,171.1 403.0,173.1 403.5,174.4 403.9,180.7 404.4,179.4 404.8,179.5 405.3,178.8 405.7,179.2 406.2,180.7 406.6,184.2 407.0,185.6 407.5,184.9 407.9,183.4 408.4,182.9 408.8,184.8 409.3,180.9 409.7,175.0 410.2,166.9 410.6,165.9 411.0,168.1 411.5,170.7 411.9,166.8 412.4,161.0 412.8,162.5 413.3,162.9 413.7,159.8 414.2,156.1 414.6,155.4 415.1,160.3 415.5,161.6 415.9,160.1 416.4,157.9 416.8,157.1 417.3,155.7 417.7,157.2 418.2,159.8 418.6,160.0 419.1,159.0 419.5,161.3 419.9,166.3 420.4,169.4 420.8,171.7 421.3,172.9 421.7,173.6 422.2,173.7 422.6,178.5 423.1,185.6 423.5,190.7 423.9,187.8 424.4,187.9 424.8,190.0 425.3,194.1 425.7,199.0 426.2,199.1 426.6,199.6 427.1,200.7 427.5,202.5 428.0,201.8 428.4,200.3 428.8,199.9 429.3,199.0 429.7,200.8 430.2,205.8 430.6,208.9 431.1,213.3 431.5,214.9 432.0,218.5 432.4,218.9 432.8,217.6 433.3,217.7 433.7,218.8 434.2,217.2 434.6,216.0 435.1,216.7 435.5,218.8 436.0,218.3 436.4,219.4 436.9,221.5 437.3,225.1 437.7,225.5 438.2,225.4 438.6,223.8 439.1,224.0 439.5,225.1 440.0,225.0 440.4,224.9 440.9,226.0 441.3,228.8 441.7,230.9 442.2,231.7 442.6,232.5 443.1,232.7 443.5,232.8 444.0,232.7 444.4,232.8 444.9,231.9 445.3,230.9 445.8,231.1 446.2,231.1 446.6,228.7 447.1,228.4 447.5,232.0 448.0,232.1 448.4,229.9 448.9,227.9 449.3,227.8 449.8,228.2 450.2,228.3 450.6,228.6 451.1,228.9 451.5,229.0 452.0,230.2 452.4,230.1 452.9,229.0 453.3,227.0 453.8,227.0 454.2,226.7 454.6,224.3 455.1,222.0 455.5,220.7 456.0,221.9 456.4,223.5 456.9,223.6 457.3,223.6 457.8,223.6 458.2,224.5 458.7,225.7 459.1,227.7 459.5,229.5 460.0,231.7 460.4,232.7 460.9,231.9 461.3,232.2 461.8,233.4 462.2,234.2 462.7,234.3 463.1,233.4 463.5,233.1 464.0,231.0 464.4,228.3 464.9,227.8 465.3,227.8 465.8,227.5 466.2,228.0 466.7,229.1 467.1,229.8 467.6,229.7 468.0,230.6 468.4,230.9 468.9,232.6 469.3,232.5 469.8,231.2 470.2,230.1 470.7,229.3 471.1,228.7 471.6,227.6 472.0,226.9 472.4,226.7 472.9,226.3 473.3,224.7 473.8,223.6 474.2,222.9 474.7,221.8 475.1,222.1 475.6,223.7 476.0,224.7 476.5,225.2 476.9,225.9 477.3,225.9 477.8,226.2 478.2,224.8 478.7,224.0 479.1,223.4 479.6,221.1 480.0,218.2 480.5,216.1 480.9,215.0 481.3,212.8 481.8,213.2 482.2,214.1 482.7,214.8 483.1,215.1 483.6,215.0 484.0,213.8 484.5,211.1 484.9,209.1 485.4,207.7 485.8,205.1 486.2,202.2 486.7,200.1 487.1,198.0 487.6,196.0 488.0,196.1 488.5,194.8 488.9,191.7 489.4,189.5 489.8,187.3 490.2,185.1 490.7,184.9 491.1,183.8 491.6,182.8 492.0,182.4 492.5,183.8 492.9,185.0 493.4,187.1 493.8,188.1 494.2,188.6 494.7,188.7 495.1,187.9 495.6,187.4 496.0,185.8 496.5,184.1 496.9,182.9 497.4,181.5 497.8,180.2 498.3,177.4 498.7,174.3 499.1,171.6 499.6,170.0 500.0,168.7 500.5,169.0 500.9,169.6 501.4,168.3 501.8,169.8 502.3,170.9 502.7,171.6 503.1,173.0 503.6,172.3 504.0,169.3 504.5,169.2 504.9,170.3 505.4,170.7 505.8,169.3 506.3,170.3 506.7,171.1 507.2,170.9 507.6,170.8 508.0,170.2 508.5,169.4 508.9,168.5 509.4,167.9 509.8,169.6 510.3,171.4 510.7,173.3 511.2,176.1 511.6,181.2 512.0,185.8 512.5,188.9 512.9,190.7 513.4,194.2 513.8,197.2 514.3,197.3 514.7,196.2 515.2,191.0 515.6,189.0 516.1,190.4 516.5,191.4 516.9,193.5 517.4,194.4 517.8,196.7 518.3,198.6 518.7,199.9 519.2,201.2 519.6,199.5 520.1,194.8 520.5,192.1 520.9,192.5 521.4,195.8 521.8,195.4 522.3,191.6 522.7,186.5 523.2,183.1 523.6,178.7 524.1,175.3 524.5,174.7 524.9,174.8 525.4,172.3 525.8,172.4 526.3,175.3 526.7,173.0 527.2,170.5 527.6,172.9 528.1,175.6 528.5,179.7 529.0,182.5 529.4,180.6 529.8,178.7 530.3,175.4 530.7,178.6 531.2,179.5 531.6,174.9 532.1,171.5 532.5,165.0 533.0,159.0 533.4,161.0 533.8,167.0 534.3,168.6 534.7,164.6 535.2,159.4 535.6,159.8 536.1,164.2 536.5,168.4 537.0,172.6 537.4,175.8 537.9,175.3 538.3,169.7 538.7,162.8 539.2,154.5 539.6,152.0 540.1,148.6 540.5,143.9 541.0,140.0 541.4,136.7 541.9,135.1 542.3,130.9 542.7,129.7 543.2,130.6 543.6,135.7 544.1,137.3 544.5,134.3 545.0,130.5 545.4,131.3 545.9,138.7 546.3,147.1 546.8,147.4 547.2,144.5 547.6,141.9 548.1,141.0 548.5,143.1 549.0,138.3 549.4,132.7 549.9,121.3 550.3,111.6 550.8,111.0 551.2,108.2 551.6,107.8 552.1,115.0 552.5,119.0 553.0,117.9 553.4,125.0 553.9,130.1 554.3,126.7 554.8,125.1 555.2,123.6 555.6,121.4 556.1,111.9 556.5,105.5 557.0,103.5 557.4,98.2 557.9,92.6 558.3,92.0 558.8,86.0 559.2,79.0 559.7,74.6 560.1,79.1 560.5,81.9 561.0,85.5 561.4,89.6 561.9,94.3 562.3,100.5 562.8,106.6 563.2,114.2 563.7,120.9 564.1,117.5 564.5,119.7 565.0,122.9 565.4,119.1 565.9,114.5 566.3,109.6 566.8,103.0 567.2,101.7 567.7,107.5 568.1,111.4 568.6,113.8 569.0,119.6 569.4,129.2 569.9,129.3 570.3,121.9 570.8,123.3 571.2,131.5 571.7,136.6 572.1,138.0 572.6,141.8 573.0,146.3 573.4,145.4 573.9,143.3 574.3,141.0 574.8,136.8 575.2,133.2 575.7,134.4 576.1,135.2 576.6,135.2 577.0,135.9 577.5,141.2 577.9,144.0 578.3,144.6 578.8,150.2 579.2,158.7 579.7,162.8 580.1,166.4 580.6,169.2 581.0,170.0 581.5,169.8 581.9,166.6 582.3,165.7 582.8,167.6 583.2,174.2 583.7,182.7 584.1,183.7 584.6,183.1 585.0,187.0 585.5,193.0 585.9,196.0 586.3,195.2 586.8,192.7 587.2,192.3 587.7,191.1 588.1,190.8 588.6,194.0 589.0,192.7 589.5,187.5 589.9,190.7 590.4,193.7 590.8,194.0 591.2,193.3 591.7,193.9 592.1,192.3 592.6,192.9 593.0,195.6 593.5,196.5 593.9,196.4 594.4,197.0 594.8,199.4 595.2,204.2 595.7,203.1 596.1,200.0 596.6,199.8 597.0,199.6 597.5,201.2 597.9,202.4 598.4,202.0 598.8,201.5 599.3,200.1 599.7,200.5 600.1,202.0 600.6,201.7 601.0,202.3 601.5,207.7 601.9,209.1 602.4,210.4 602.8,213.9 603.3,212.5 603.7,211.3 604.1,211.0 604.6,212.5 605.0,214.4 605.5,216.1 605.9,216.5 606.4,216.3 606.8,216.0 607.3,215.5 607.7,214.2 608.2,212.7 608.6,212.0 609.0,214.2 609.5,218.7 609.9,220.7 610.4,221.8 610.8,222.7 611.3,223.5 611.7,222.8 612.2,222.7 612.6,221.4 613.0,219.3 613.5,218.9 613.9,220.1 614.4,220.6 614.8,219.4 615.3,218.5 615.7,219.0 616.2,221.3 616.6,222.5 617.0,222.7 617.5,221.5 617.9,220.6 618.4,221.1 618.8,221.9 619.3,222.6 619.7,222.5 620.2,223.1 620.6,223.7 621.1,222.9 621.5,222.0 621.9,219.7 622.4,219.5 622.8,217.4 623.3,215.7 623.7,214.8 624.2,212.1 624.6,210.6 625.1,211.7 625.5,212.2 625.9,213.8 626.4,215.0 626.8,215.1 627.3,214.7 627.7,215.9 628.2,216.8 628.6,218.0 629.1,219.2 629.5,219.6 630.0,219.2 630.4,220.2 630.8,220.9 631.3,220.1 631.7,216.3 632.2,215.6 632.6,215.2 633.1,215.8 633.5,213.7 634.0,210.9 634.4,210.7 634.8,210.8 635.3,212.4 635.7,210.5 636.2,209.4 636.6,208.4 637.1,205.7 637.5,204.4 638.0,202.3 638.4,199.8 638.9,198.1 639.3,197.3 639.7,198.2 640.2,198.7 640.6,198.8 641.1,198.9 641.5,197.9 642.0,196.2 642.4,193.9 642.9,192.8 643.3,191.3 643.7,190.4 644.2,189.9 644.6,188.7 645.1,191.1 645.5,189.7 646.0,185.8 646.4,183.1 646.9,184.6 647.3,187.5 647.8,187.7 648.2,186.6 648.6,184.7 649.1,183.6 649.5,184.3 650.0,186.1 650.4,188.8 650.9,193.4 651.3,196.0 651.8,196.9 652.2,195.9 652.6,192.8 653.1,188.8 653.5,188.0 654.0,187.5 654.4,188.1 654.9,188.7 655.3,188.4 655.8,187.9 656.2,185.4 656.6,182.9 657.1,184.1 657.5,185.0 658.0,185.3 658.4,182.5 658.9,180.0 659.3,181.3 659.8,184.6 660.2,186.6 660.7,185.5 661.1,185.1 661.5,187.5 662.0,189.4 662.4,190.7 662.9,189.2 663.3,186.5 663.8,187.0 664.2,184.4 664.7,183.0 665.1,182.3 665.5,185.1 666.0,187.7 666.4,188.1 666.9,186.1 667.3,184.9 667.8,181.0 668.2,181.7 668.7,184.2 669.1,186.8 669.6,189.0 670.0,191.0 670.4,189.5 670.9,187.1 671.3,187.1 671.8,188.6 672.2,190.6 672.7,193.7 673.1,194.1 673.6,194.2 674.0,195.2 674.4,195.8 674.9,192.4 675.3,189.3 675.8,190.6 676.2,193.7 676.7,193.0 677.1,192.9 677.6,191.8 678.0,189.3 678.5,186.9 678.9,181.3 679.3,182.7 679.8,183.9 680.2,183.2 680.7,185.2 681.1,189.3 681.6,188.6 682.0,185.6 682.5,184.9 682.9,183.2 683.3,182.6 683.8,178.0 684.2,173.8 684.7,175.4 685.1,175.5 685.6,173.8 686.0,170.3 686.5,162.8 686.9,157.4 687.3,152.5 687.8,152.4 688.2,156.2 688.7,159.7 689.1,157.9 689.6,152.4 690.0,150.0 690.5,143.7 690.9,141.9 691.4,139.1 691.8,137.5 692.2,135.9 692.7,129.1 693.1,125.2 693.6,127.7 694.0,126.9 694.5,122.8 694.9,117.7 695.4,116.9 695.8,115.7 696.2,115.4 696.7,113.9 697.1,111.9 697.6,115.8 698.0,116.8 698.5,119.1 698.9,122.9 699.4,123.9 699.8,126.6 700.3,126.4 700.7,131.3 701.1,128.9 701.6,124.6 702.0,123.1 702.5,122.9 702.9,129.0 703.4,131.6 703.8,133.4 704.3,132.7 704.7,132.6 705.1,129.8 705.6,136.9 706.0,141.7 706.5,144.2 706.9,141.9 707.4,142.1 707.8,143.1 708.3,142.7 708.7,141.8 709.2,143.0 709.6,142.8 710.0,142.2 710.5,139.9 710.9,138.7 711.4,136.6 711.8,135.7 712.3,133.4 712.7,130.3 713.2,132.7 713.6,133.1 714.0,127.0 714.5,128.4 714.9,127.9 715.4,125.2 715.8,126.1 716.3,124.8 716.7,127.1 717.2,132.3 717.6,136.7 718.0,139.0 718.5,142.7 718.9,141.5 719.4,137.2 719.8,139.9 720.3,142.5 720.7,140.9 721.2,138.5 721.6,137.9 722.1,138.4 722.5,131.5 722.9,130.2 723.4,128.0 723.8,127.0 724.3,120.8 724.7,110.9 725.2,109.5 725.6,113.1 726.1,117.5 726.5,115.2 726.9,117.5 727.4,118.2 727.8,114.0 728.3,115.7 728.7,122.2 729.2,124.2 729.6,125.7 730.1,126.9 730.5,127.4 731.0,128.3 731.4,130.5 731.8,129.1 732.3,122.0 732.7,128.0 733.2,125.7 733.6,122.5 734.1,121.5 734.5,127.0 735.0,133.8 735.4,134.1 735.8,139.3 736.3,142.3 736.7,148.4 737.2,159.1 737.6,169.4 738.1,179.1 738.5,178.7 739.0,172.5 739.4,165.9 739.9,164.2 740.3,159.7 740.7,163.9 741.2,167.7 741.6,168.4 742.1,163.9 742.5,163.5 743.0,159.5 743.4,152.0 743.9,145.4 744.3,138.3 744.7,132.2 745.2,136.0 745.6,142.3 746.1,142.7 746.5,144.9 747.0,148.3 747.4,151.4 747.9,149.9 748.3,148.9 748.7,151.1 749.2,152.8 749.6,154.0 750.1,154.0 750.5,154.5 751.0,154.5 751.4,156.0 751.9,157.9 752.3,163.6 752.8,171.6 753.2,176.9 753.6,183.2 754.1,185.1 754.5,188.9 755.0,190.1 755.4,192.2 755.9,193.2 756.3,196.1 756.8,203.3 757.2,208.8 757.6,214.4 758.1,221.8 758.5,222.8 759.0,226.5 759.4,227.5 759.9,228.9 760.3,229.9 760.8,229.8 761.2,230.3 761.7,230.5 762.1,229.6 762.5,228.6 763.0,226.2 763.4,226.0 763.9,225.2 764.3,224.6 764.8,224.5 765.2,222.3 765.7,222.6 766.1,222.3 766.5,222.5 767.0,222.7 767.4,222.3 767.9,222.3 768.3,224.4 768.8,225.7 769.2,223.5 769.7,225.0 770.1,224.9 770.6,223.4 771.0,225.1 771.4,225.4 771.9,225.6 772.3,222.4 772.8,219.3 773.2,219.0 773.7,218.9 774.1,218.6 774.6,220.1 775.0,220.3 775.4,220.7 775.9,220.8 776.3,222.0 776.8,221.1 777.2,220.8 777.7,221.4 778.1,221.1 778.6,221.1 779.0,219.0 779.4,217.1 779.9,215.9 780.3,215.2 780.8,213.1 781.2,209.6 781.7,206.8 782.1,207.4 782.6,209.0 783.0,208.2 783.5,209.0 783.9,211.0 784.3,210.1 784.8,209.9 785.2,211.2 785.7,213.1 786.1,214.5 786.6,213.4 787.0,211.5 787.5,211.9 787.9,210.8 788.3,210.5 788.8,210.0 789.2,208.8 789.7,208.9 790.1,212.2 790.6,213.5 791.0,212.7 791.5,211.8 791.9,212.8 792.4,213.2 792.8,212.2 793.2,211.7 793.7,211.1 794.1,211.6 794.6,213.3 795.0,213.8 795.5,211.9 795.9,209.2 796.4,208.9 796.8,209.4 797.2,208.9 797.7,208.6 798.1,208.5 798.6,207.0 799.0,205.8 799.5,204.7 799.9,205.8 800.4,207.4 800.8,206.8 801.3,206.0 801.7,207.5 802.1,209.2 802.6,211.5 803.0,211.6 803.5,208.0 803.9,205.3 804.4,205.2 804.8,206.6 805.3,207.3 805.7,206.3 806.1,207.0 806.6,208.2 807.0,208.7 807.5,209.2 807.9,206.7 808.4,204.4 808.8,202.8 809.3,203.8 809.7,202.5 810.2,199.8 810.6,196.1 811.0,194.9 811.5,192.2 811.9,190.9 812.4,191.1 812.8,192.3 813.3,189.0 813.7,186.4 814.2,185.2 814.6,184.3 815.0,182.9 815.5,181.0 815.9,179.0 816.4,178.1 816.8,179.9 817.3,180.0 817.7,177.9 818.2,176.9 818.6,176.6 819.0,175.8 819.5,175.8 819.9,175.9 820.4,176.5 820.8,174.1 821.3,175.9 821.7,177.4 822.2,177.5 822.6,175.9 823.1,174.7 823.5,173.4 823.9,172.7 824.4,173.9 824.8,175.8 825.3,176.8 825.7,176.0 826.2,174.5 826.6,174.5 827.1,174.6 827.5,174.2 827.9,174.2 828.4,174.1 828.8,175.7 829.3,177.9 829.7,179.6 830.2,179.6 830.6,180.4 831.1,181.6 831.5,181.1 832.0,178.9 832.4,179.2 832.8,179.0 833.3,176.8 833.7,174.7 834.2,176.5 834.6,177.5 835.1,177.6 835.5,178.3 836.0,179.0 836.4,180.5 836.8,181.2 837.3,183.4 837.7,183.3 838.2,181.0 838.6,181.8 839.1,183.4 839.5,183.5 840.0,183.8 840.4,183.2 840.9,183.5 841.3,182.2 841.7,180.1 842.2,178.6 842.6,178.1 843.1,178.5 843.5,179.1 844.0,180.3 844.4,180.3 844.9,178.0 845.3,175.2 845.7,171.0 846.2,167.0 846.6,169.8 847.1,170.5 847.5,167.6 848.0,160.0 848.4,157.7 848.9,156.2 849.3,158.1 849.7,158.7 850.2,157.7 850.6,154.4 851.1,146.2 851.5,143.9 852.0,139.6 852.4,137.5 852.9,136.1 853.3,134.0 853.8,132.7 854.2,131.5 854.6,132.6 855.1,131.0 855.5,127.8 856.0,129.0 856.4,129.4 856.9,129.4 857.3,127.5 857.8,127.9 858.2,129.3 858.6,131.3 859.1,133.0 859.5,138.6 860.0,136.8 860.4,133.5 860.9,138.2 861.3,139.7 861.8,136.3 862.2,136.0 862.7,136.1 863.1,137.1 863.5,139.1 864.0,142.1 864.4,146.9 864.9,144.9 865.3,147.5 865.8,147.2 866.2,142.5 866.7,138.3 867.1,140.4 867.5,143.0 868.0,141.7 868.4,141.1 868.9,136.7 869.3,129.8 869.8,121.7 870.2,114.3 870.7,113.9 871.1,115.1 871.6,112.8 872.0,109.1 872.4,106.9 872.9,103.7 873.3,104.9 873.8,103.1 874.2,96.6 874.7,95.5 875.1,99.6 875.6,101.9 876.0,100.9" fill="none" stroke="#2563eb" stroke-width="2" stroke-linecap="round"/><circle cx="64" cy="334" r="5" fill="#dc2626"/><text x="74" y="338" font-size="12">巴塞罗那</text><circle cx="184" cy="334" r="5" fill="#2563eb"/><text x="194" y="338" font-size="12">北京</text></svg>